%TF.GenerationSoftware,KiCad,Pcbnew,10.0.1*%
%TF.CreationDate,2026-09-06T11:54:30-05:00*%
%TF.ProjectId,SmartPet,536d6172-7450-4657-942e-6b696361645f,rev?*%
%TF.SameCoordinates,Original*%
%TF.FileFunction,Copper,L1,Top*%
%TF.FilePolarity,Positive*%
%FSLAX46Y46*%
G04 Gerber Fmt 4.6, Leading zero omitted, Abs format (unit mm)*
G04 Created by KiCad (PCBNEW 10.0.1) date 2026-09-06 11:54:30*
%MOMM*%
%LPD*%
G01*
G04 APERTURE LIST*
G04 Aperture macros list*
%AMRoundRect*
0 Rectangle with rounded corners*
0 $1 Rounding radius*
0 $2 $3 $4 $5 $6 $7 $8 $9 X,Y pos of 4 corners*
0 Add a 4 corners polygon primitive as box body*
4,1,4,$2,$3,$4,$5,$6,$7,$8,$9,$2,$3,0*
0 Add four circle primitives for the rounded corners*
1,1,$1+$1,$2,$3*
1,1,$1+$1,$4,$5*
1,1,$1+$1,$6,$7*
1,1,$1+$1,$8,$9*
0 Add four rect primitives between the rounded corners*
20,1,$1+$1,$2,$3,$4,$5,0*
20,1,$1+$1,$4,$5,$6,$7,0*
20,1,$1+$1,$6,$7,$8,$9,0*
20,1,$1+$1,$8,$9,$2,$3,0*%
G04 Aperture macros list end*
%TA.AperFunction,SMDPad,CuDef*%
%ADD10RoundRect,0.150000X-0.512500X-0.150000X0.512500X-0.150000X0.512500X0.150000X-0.512500X0.150000X0*%
%TD*%
%TA.AperFunction,SMDPad,CuDef*%
%ADD11RoundRect,0.225000X-0.225000X-0.250000X0.225000X-0.250000X0.225000X0.250000X-0.225000X0.250000X0*%
%TD*%
%TA.AperFunction,SMDPad,CuDef*%
%ADD12RoundRect,0.200000X-0.275000X0.200000X-0.275000X-0.200000X0.275000X-0.200000X0.275000X0.200000X0*%
%TD*%
%TA.AperFunction,SMDPad,CuDef*%
%ADD13R,0.450000X0.300000*%
%TD*%
%TA.AperFunction,SMDPad,CuDef*%
%ADD14R,0.300000X0.450000*%
%TD*%
%TA.AperFunction,SMDPad,CuDef*%
%ADD15RoundRect,0.150000X-0.150000X-0.625000X0.150000X-0.625000X0.150000X0.625000X-0.150000X0.625000X0*%
%TD*%
%TA.AperFunction,SMDPad,CuDef*%
%ADD16RoundRect,0.250000X-0.350000X-0.650000X0.350000X-0.650000X0.350000X0.650000X-0.350000X0.650000X0*%
%TD*%
%TA.AperFunction,SMDPad,CuDef*%
%ADD17RoundRect,0.200000X-0.200000X-0.275000X0.200000X-0.275000X0.200000X0.275000X-0.200000X0.275000X0*%
%TD*%
%TA.AperFunction,SMDPad,CuDef*%
%ADD18RoundRect,0.225000X0.250000X-0.225000X0.250000X0.225000X-0.250000X0.225000X-0.250000X-0.225000X0*%
%TD*%
%TA.AperFunction,SMDPad,CuDef*%
%ADD19R,1.700000X1.000000*%
%TD*%
%TA.AperFunction,SMDPad,CuDef*%
%ADD20RoundRect,0.200000X0.275000X-0.200000X0.275000X0.200000X-0.275000X0.200000X-0.275000X-0.200000X0*%
%TD*%
%TA.AperFunction,SMDPad,CuDef*%
%ADD21RoundRect,0.225000X-0.250000X0.225000X-0.250000X-0.225000X0.250000X-0.225000X0.250000X0.225000X0*%
%TD*%
%TA.AperFunction,SMDPad,CuDef*%
%ADD22RoundRect,0.150000X-0.425000X0.150000X-0.425000X-0.150000X0.425000X-0.150000X0.425000X0.150000X0*%
%TD*%
%TA.AperFunction,SMDPad,CuDef*%
%ADD23RoundRect,0.075000X-0.500000X0.075000X-0.500000X-0.075000X0.500000X-0.075000X0.500000X0.075000X0*%
%TD*%
%TA.AperFunction,ComponentPad*%
%ADD24O,2.100000X1.000000*%
%TD*%
%TA.AperFunction,ComponentPad*%
%ADD25O,1.800000X1.000000*%
%TD*%
%TA.AperFunction,SMDPad,CuDef*%
%ADD26R,1.800000X1.500000*%
%TD*%
%TA.AperFunction,SMDPad,CuDef*%
%ADD27R,1.500000X1.800000*%
%TD*%
%TA.AperFunction,SMDPad,CuDef*%
%ADD28RoundRect,0.218750X0.218750X0.256250X-0.218750X0.256250X-0.218750X-0.256250X0.218750X-0.256250X0*%
%TD*%
%TA.AperFunction,SMDPad,CuDef*%
%ADD29RoundRect,0.218750X0.256250X-0.218750X0.256250X0.218750X-0.256250X0.218750X-0.256250X-0.218750X0*%
%TD*%
%TA.AperFunction,SMDPad,CuDef*%
%ADD30R,1.500000X0.900000*%
%TD*%
%TA.AperFunction,HeatsinkPad*%
%ADD31C,0.600000*%
%TD*%
%TA.AperFunction,HeatsinkPad*%
%ADD32R,2.900000X2.900000*%
%TD*%
%TA.AperFunction,ViaPad*%
%ADD33C,0.600000*%
%TD*%
%TA.AperFunction,Conductor*%
%ADD34C,0.450000*%
%TD*%
%TA.AperFunction,Conductor*%
%ADD35C,0.600000*%
%TD*%
%TA.AperFunction,Conductor*%
%ADD36C,0.360000*%
%TD*%
%TA.AperFunction,Conductor*%
%ADD37C,0.300000*%
%TD*%
%TA.AperFunction,Conductor*%
%ADD38C,0.200000*%
%TD*%
%TA.AperFunction,Conductor*%
%ADD39C,0.180000*%
%TD*%
%TA.AperFunction,Conductor*%
%ADD40C,0.400000*%
%TD*%
%TA.AperFunction,Conductor*%
%ADD41C,0.240000*%
%TD*%
%TA.AperFunction,Conductor*%
%ADD42C,0.250000*%
%TD*%
%TA.AperFunction,Conductor*%
%ADD43C,0.187400*%
%TD*%
%TA.AperFunction,Conductor*%
%ADD44C,0.350000*%
%TD*%
G04 APERTURE END LIST*
D10*
%TO.P,U3,1*%
%TO.N,VBAT*%
X76862500Y-64050000D03*
%TO.P,U3,2*%
%TO.N,GND*%
X76862500Y-65000000D03*
%TO.P,U3,3*%
%TO.N,VBAT*%
X76862500Y-65950000D03*
%TO.P,U3,4*%
%TO.N,N/C*%
X79137500Y-65950000D03*
%TO.P,U3,5*%
%TO.N,+3.3V*%
X79137500Y-64050000D03*
%TD*%
D11*
%TO.P,C5,1*%
%TO.N,ESP_EN*%
X82725000Y-75000000D03*
%TO.P,C5,2*%
%TO.N,GND*%
X84275000Y-75000000D03*
%TD*%
D12*
%TO.P,R9,1*%
%TO.N,+3.3V*%
X101000000Y-82675000D03*
%TO.P,R9,2*%
%TO.N,NTC_ADC*%
X101000000Y-84325000D03*
%TD*%
D13*
%TO.P,U4,1*%
%TO.N,+3.3V*%
X96725000Y-77750000D03*
%TO.P,U4,2*%
%TO.N,N/C*%
X96725000Y-78250000D03*
%TO.P,U4,3*%
X96725000Y-78750000D03*
%TO.P,U4,4*%
%TO.N,I2C_SCL*%
X96725000Y-79250000D03*
D14*
%TO.P,U4,5*%
%TO.N,GND*%
X97250000Y-79775000D03*
%TO.P,U4,6*%
%TO.N,I2C_SDA*%
X97750000Y-79775000D03*
%TO.P,U4,7*%
%TO.N,GND*%
X98250000Y-79775000D03*
%TO.P,U4,8*%
%TO.N,+3.3V*%
X98750000Y-79775000D03*
D13*
%TO.P,U4,9*%
%TO.N,N/C*%
X99275000Y-79250000D03*
%TO.P,U4,10*%
%TO.N,GND*%
X99275000Y-78750000D03*
%TO.P,U4,11*%
%TO.N,LIS3DH_INT*%
X99275000Y-78250000D03*
%TO.P,U4,12*%
%TO.N,GND*%
X99275000Y-77750000D03*
D14*
%TO.P,U4,13*%
X98750000Y-77225000D03*
%TO.P,U4,14*%
%TO.N,+3.3V*%
X98250000Y-77225000D03*
%TO.P,U4,15*%
%TO.N,GND*%
X97750000Y-77225000D03*
%TO.P,U4,16*%
X97250000Y-77225000D03*
%TD*%
D15*
%TO.P,J1,1*%
%TO.N,VBAT*%
X77500000Y-78000000D03*
%TO.P,J1,2*%
%TO.N,GND*%
X78500000Y-78000000D03*
D16*
%TO.P,J1,MP*%
X76200000Y-81875000D03*
X79800000Y-81875000D03*
%TD*%
D17*
%TO.P,R3,1*%
%TO.N,USB_CC1*%
X73675000Y-60500000D03*
%TO.P,R3,2*%
%TO.N,GND*%
X75325000Y-60500000D03*
%TD*%
%TO.P,R4,1*%
%TO.N,USB_CC2*%
X74675000Y-72000000D03*
%TO.P,R4,2*%
%TO.N,GND*%
X76325000Y-72000000D03*
%TD*%
D18*
%TO.P,C6,1*%
%TO.N,NTC_ADC*%
X105500000Y-84275000D03*
%TO.P,C6,2*%
%TO.N,GND*%
X105500000Y-82725000D03*
%TD*%
D19*
%TO.P,SW2,1*%
%TO.N,ESP_BOOT*%
X108350000Y-79100000D03*
X114650000Y-79100000D03*
%TO.P,SW2,2*%
%TO.N,GND*%
X108350000Y-82900000D03*
X114650000Y-82900000D03*
%TD*%
D17*
%TO.P,R1,1*%
%TO.N,MCP_PROG*%
X81175000Y-51500000D03*
%TO.P,R1,2*%
%TO.N,GND*%
X82825000Y-51500000D03*
%TD*%
D12*
%TO.P,R8,1*%
%TO.N,+3.3V*%
X97000000Y-82675000D03*
%TO.P,R8,2*%
%TO.N,I2C_SCL*%
X97000000Y-84325000D03*
%TD*%
%TO.P,R7,1*%
%TO.N,+3.3V*%
X95000000Y-82675000D03*
%TO.P,R7,2*%
%TO.N,I2C_SDA*%
X95000000Y-84325000D03*
%TD*%
D17*
%TO.P,R2,1*%
%TO.N,VBUS*%
X75675000Y-50000000D03*
%TO.P,R2,2*%
%TO.N,CHG_LED_A*%
X77325000Y-50000000D03*
%TD*%
D20*
%TO.P,R5,1*%
%TO.N,+3.3V*%
X86500000Y-75825000D03*
%TO.P,R5,2*%
%TO.N,ESP_EN*%
X86500000Y-74175000D03*
%TD*%
D21*
%TO.P,C7,1*%
%TO.N,+3.3V*%
X92500000Y-81725000D03*
%TO.P,C7,2*%
%TO.N,GND*%
X92500000Y-83275000D03*
%TD*%
D11*
%TO.P,C3,1*%
%TO.N,+3.3V*%
X81225000Y-65000000D03*
%TO.P,C3,2*%
%TO.N,GND*%
X82775000Y-65000000D03*
%TD*%
D20*
%TO.P,TH1,1*%
%TO.N,NTC_ADC*%
X103500000Y-84325000D03*
%TO.P,TH1,2*%
%TO.N,GND*%
X103500000Y-82675000D03*
%TD*%
D11*
%TO.P,C4,1*%
%TO.N,+3.3V*%
X80725000Y-60500000D03*
%TO.P,C4,2*%
%TO.N,GND*%
X82275000Y-60500000D03*
%TD*%
D22*
%TO.P,J2,A1*%
%TO.N,GND*%
X69380000Y-64800000D03*
%TO.P,J2,A4*%
%TO.N,VBUS*%
X69380000Y-65600000D03*
D23*
%TO.P,J2,A5*%
%TO.N,USB_CC1*%
X69380000Y-66750000D03*
%TO.P,J2,A6*%
%TO.N,N/C*%
X69380000Y-67750000D03*
%TO.P,J2,A7*%
X69380000Y-68250000D03*
%TO.P,J2,A8*%
X69380000Y-69250000D03*
D22*
%TO.P,J2,A9*%
%TO.N,VBUS*%
X69380000Y-70400000D03*
%TO.P,J2,A12*%
%TO.N,GND*%
X69380000Y-71200000D03*
%TO.P,J2,B1*%
X69380000Y-71200000D03*
%TO.P,J2,B4*%
%TO.N,VBUS*%
X69380000Y-70400000D03*
D23*
%TO.P,J2,B5*%
%TO.N,USB_CC2*%
X69380000Y-69750000D03*
%TO.P,J2,B6*%
%TO.N,N/C*%
X69380000Y-68750000D03*
%TO.P,J2,B7*%
X69380000Y-67250000D03*
%TO.P,J2,B8*%
X69380000Y-66250000D03*
D22*
%TO.P,J2,B9*%
%TO.N,VBUS*%
X69380000Y-65600000D03*
%TO.P,J2,B12*%
%TO.N,GND*%
X69380000Y-64800000D03*
D24*
%TO.P,J2,SH*%
X68805000Y-63680000D03*
D25*
X64625000Y-63680000D03*
D24*
X68805000Y-72320000D03*
D25*
X64625000Y-72320000D03*
%TD*%
D10*
%TO.P,U2,1*%
%TO.N,CHG_STAT*%
X76862500Y-55050000D03*
%TO.P,U2,2*%
%TO.N,GND*%
X76862500Y-56000000D03*
%TO.P,U2,3*%
%TO.N,VBAT*%
X76862500Y-56950000D03*
%TO.P,U2,4*%
%TO.N,VBUS*%
X79137500Y-56950000D03*
%TO.P,U2,5*%
%TO.N,MCP_PROG*%
X79137500Y-55050000D03*
%TD*%
D26*
%TO.P,U5,1*%
%TO.N,GND*%
X115900000Y-63700000D03*
%TO.P,U5,2*%
%TO.N,GPS_TX*%
X115900000Y-65600000D03*
%TO.P,U5,3*%
%TO.N,GPS_RX*%
X115900000Y-67500000D03*
%TO.P,U5,4*%
%TO.N,N/C*%
X115900000Y-69400000D03*
%TO.P,U5,5*%
X115900000Y-71300000D03*
D27*
%TO.P,U5,6*%
%TO.N,+3.3V*%
X118700000Y-74100000D03*
%TO.P,U5,7*%
X120600000Y-74100000D03*
%TO.P,U5,8*%
%TO.N,N/C*%
X122500000Y-74100000D03*
%TO.P,U5,9*%
%TO.N,GND*%
X124400000Y-74100000D03*
%TO.P,U5,10*%
X126300000Y-74100000D03*
D26*
%TO.P,U5,11*%
X129100000Y-71300000D03*
%TO.P,U5,12*%
X129100000Y-69400000D03*
%TO.P,U5,13*%
X129100000Y-67500000D03*
%TO.P,U5,14*%
%TO.N,N/C*%
X129100000Y-65600000D03*
%TO.P,U5,15*%
X129100000Y-63700000D03*
D27*
%TO.P,U5,16*%
%TO.N,I2C_SDA*%
X126300000Y-60900000D03*
%TO.P,U5,17*%
%TO.N,I2C_SCL*%
X124400000Y-60900000D03*
%TO.P,U5,18*%
%TO.N,N/C*%
X122500000Y-60900000D03*
%TO.P,U5,19*%
%TO.N,GND*%
X120600000Y-60900000D03*
%TO.P,U5,20*%
X118700000Y-60900000D03*
%TD*%
D19*
%TO.P,SW1,1*%
%TO.N,ESP_EN*%
X83350000Y-79100000D03*
X89650000Y-79100000D03*
%TO.P,SW1,2*%
%TO.N,GND*%
X83350000Y-82900000D03*
X89650000Y-82900000D03*
%TD*%
D11*
%TO.P,C2,1*%
%TO.N,VBAT*%
X81225000Y-70500000D03*
%TO.P,C2,2*%
%TO.N,GND*%
X82775000Y-70500000D03*
%TD*%
%TO.P,C1,1*%
%TO.N,VBUS*%
X72225000Y-56000000D03*
%TO.P,C1,2*%
%TO.N,GND*%
X73775000Y-56000000D03*
%TD*%
D28*
%TO.P,D1,1*%
%TO.N,CHG_LED_A*%
X73287500Y-50000000D03*
%TO.P,D1,2*%
%TO.N,CHG_STAT*%
X71712500Y-50000000D03*
%TD*%
D11*
%TO.P,C8,1*%
%TO.N,+3.3V*%
X119225000Y-78500000D03*
%TO.P,C8,2*%
%TO.N,GND*%
X120775000Y-78500000D03*
%TD*%
D12*
%TO.P,R6,1*%
%TO.N,+3.3V*%
X108500000Y-74175000D03*
%TO.P,R6,2*%
%TO.N,ESP_BOOT*%
X108500000Y-75825000D03*
%TD*%
D29*
%TO.P,D2,1*%
%TO.N,LED_STAT_A*%
X115000000Y-52787500D03*
%TO.P,D2,2*%
%TO.N,GND*%
X115000000Y-51212500D03*
%TD*%
D20*
%TO.P,R11,1*%
%TO.N,LED_STAT*%
X115000000Y-56825000D03*
%TO.P,R11,2*%
%TO.N,LED_STAT_A*%
X115000000Y-55175000D03*
%TD*%
D30*
%TO.P,U1,1*%
%TO.N,GND*%
X89250000Y-59500000D03*
%TO.P,U1,2*%
%TO.N,+3.3V*%
X89250000Y-61000000D03*
%TO.P,U1,3*%
%TO.N,ESP_EN*%
X89250000Y-62500000D03*
%TO.P,U1,4*%
%TO.N,NTC_ADC*%
X89250000Y-64000000D03*
%TO.P,U1,5*%
%TO.N,LIS3DH_INT*%
X89250000Y-65500000D03*
%TO.P,U1,6*%
%TO.N,I2C_SDA*%
X89250000Y-67000000D03*
%TO.P,U1,7*%
%TO.N,I2C_SCL*%
X89250000Y-68500000D03*
%TO.P,U1,8*%
%TO.N,GPS_TX*%
X89250000Y-70000000D03*
%TO.P,U1,9*%
%TO.N,GPS_RX*%
X89250000Y-71500000D03*
%TO.P,U1,10*%
%TO.N,N/C*%
X106750000Y-71500000D03*
%TO.P,U1,11*%
%TO.N,LED_STAT*%
X106750000Y-70000000D03*
%TO.P,U1,12*%
%TO.N,N/C*%
X106750000Y-68500000D03*
%TO.P,U1,13*%
X106750000Y-67000000D03*
%TO.P,U1,14*%
X106750000Y-65500000D03*
%TO.P,U1,15*%
%TO.N,ESP_BOOT*%
X106750000Y-64000000D03*
%TO.P,U1,16*%
%TO.N,N/C*%
X106750000Y-62500000D03*
%TO.P,U1,17*%
X106750000Y-61000000D03*
%TO.P,U1,18*%
%TO.N,GND*%
X106750000Y-59500000D03*
D31*
%TO.P,U1,19*%
X97860000Y-65150000D03*
X97860000Y-66250000D03*
X98410000Y-64600000D03*
X98410000Y-65700000D03*
X98410000Y-66800000D03*
X98960000Y-65150000D03*
D32*
X98960000Y-65700000D03*
D31*
X98960000Y-66250000D03*
X99510000Y-64600000D03*
X99510000Y-65700000D03*
X99510000Y-66800000D03*
X100060000Y-65150000D03*
X100060000Y-66250000D03*
%TD*%
D33*
%TO.N,VBAT*%
X77758700Y-68971100D03*
X79251800Y-56139000D03*
%TO.N,GND*%
X125000000Y-80000000D03*
X98250000Y-81200000D03*
X97500000Y-76400000D03*
X70000000Y-80000000D03*
X98750000Y-76400000D03*
X100500000Y-78750000D03*
%TO.N,+3.3V*%
X96924100Y-81718600D03*
X86279500Y-62149600D03*
X95059100Y-74856900D03*
X101838600Y-80852100D03*
X98000000Y-75300000D03*
%TO.N,ESP_EN*%
X86407800Y-63086400D03*
X86408900Y-77799800D03*
%TO.N,NTC_ADC*%
X99970300Y-83890300D03*
X91961400Y-65255800D03*
%TO.N,I2C_SCL*%
X121009700Y-63085300D03*
X86408900Y-68971100D03*
X92175700Y-80222700D03*
%TO.N,I2C_SDA*%
X91511800Y-66708200D03*
X91400700Y-84419900D03*
X123893100Y-63085300D03*
%TO.N,USB_CC1*%
X71991900Y-63085300D03*
X72824900Y-66876100D03*
%TO.N,ESP_BOOT*%
X106592700Y-72717700D03*
X109476100Y-63085300D03*
%TO.N,VBUS*%
X74875300Y-53408400D03*
X70800000Y-65599999D03*
X70800000Y-70400000D03*
X74217000Y-59297600D03*
X71400000Y-56000000D03*
%TO.N,GPS_TX*%
X112359500Y-66028200D03*
X94619600Y-68775600D03*
%TO.N,GPS_RX*%
X97942500Y-68971100D03*
X111526600Y-66876000D03*
%TO.N,LED_STAT*%
X115242900Y-60142400D03*
X109476100Y-68971100D03*
%TD*%
%TO.N,VBAT*%
D34*
X77011700Y-56800800D02*
X76862500Y-56950000D01*
X77963600Y-56800800D02*
X77011700Y-56800800D01*
D35*
X81225000Y-70500000D02*
X78727400Y-68002400D01*
D34*
X78336000Y-56139000D02*
X77963600Y-56511400D01*
D35*
X81225000Y-70500000D02*
X77500000Y-74225000D01*
X78073400Y-64852200D02*
X78333300Y-65112100D01*
X76862500Y-64050000D02*
X77712200Y-64050000D01*
X78727400Y-68002400D02*
X76862500Y-66137500D01*
D34*
X77011700Y-65800800D02*
X76862500Y-65950000D01*
X77963600Y-65800800D02*
X77011700Y-65800800D01*
X79251800Y-56139000D02*
X78336000Y-56139000D01*
D35*
X76862500Y-66137500D02*
X76862500Y-65950000D01*
D36*
X77851100Y-64188900D02*
X78073400Y-64411200D01*
D34*
X78333300Y-65112100D02*
X77963600Y-65481800D01*
X77963600Y-65481800D02*
X77963600Y-65511400D01*
D35*
X77963600Y-56511400D02*
X77963600Y-56800800D01*
X77758700Y-68971100D02*
X78727400Y-68002400D01*
D36*
X78073400Y-64411200D02*
X78073400Y-64852200D01*
D35*
X77963600Y-65511400D02*
X77963600Y-65800800D01*
X77712200Y-64050000D02*
X77851100Y-64188900D01*
X77500000Y-74225000D02*
X77500000Y-78000000D01*
%TO.N,GND*%
D37*
X69380000Y-71200000D02*
X68805000Y-72320000D01*
D38*
X99275000Y-78750000D02*
X100500000Y-78750000D01*
D37*
X69380000Y-64800000D02*
X68805000Y-63680000D01*
D38*
X97250000Y-79775000D02*
X97250000Y-79550000D01*
X97250000Y-77225000D02*
X97500000Y-76400000D01*
X98750000Y-77225000D02*
X98750000Y-76400000D01*
X98250000Y-79775000D02*
X98250000Y-81200000D01*
X99275000Y-77750000D02*
X98750000Y-77225000D01*
X97750000Y-77225000D02*
X97500000Y-76400000D01*
%TO.N,+3.3V*%
D39*
X98250000Y-77225000D02*
X98000000Y-75300000D01*
D40*
X95059100Y-75825000D02*
X91433900Y-75825000D01*
X120600000Y-74100000D02*
X118700000Y-74100000D01*
X91433900Y-80658900D02*
X92500000Y-81725000D01*
X80087500Y-65000000D02*
X79137500Y-64050000D01*
X80725000Y-60500000D02*
X80725000Y-62149600D01*
X119225000Y-75926700D02*
X118700000Y-75401700D01*
D41*
X96178300Y-77203300D02*
X96178300Y-77750000D01*
D40*
X95000000Y-82675000D02*
X96924100Y-82675000D01*
D41*
X99296700Y-80321700D02*
X98750000Y-80321700D01*
D40*
X87429100Y-61000000D02*
X86279500Y-62149600D01*
X96924100Y-82675000D02*
X97000000Y-82675000D01*
X81225000Y-65000000D02*
X80087500Y-65000000D01*
D41*
X98750000Y-79775000D02*
X98750000Y-80321700D01*
D40*
X118700000Y-74100000D02*
X117548300Y-74100000D01*
X89250000Y-61000000D02*
X87429100Y-61000000D01*
X95059100Y-74856900D02*
X95059100Y-75825000D01*
X96924100Y-82675000D02*
X96924100Y-81718600D01*
D41*
X96725000Y-77750000D02*
X96178300Y-77750000D01*
D40*
X101838600Y-80852100D02*
X100832900Y-81857800D01*
X119225000Y-78500000D02*
X119225000Y-75926700D01*
X119225000Y-78500000D02*
X116872900Y-80852100D01*
X91433900Y-75825000D02*
X91433900Y-80658900D01*
X116872900Y-80852100D02*
X101838600Y-80852100D01*
D41*
X100832900Y-81857800D02*
X99296700Y-80321700D01*
D40*
X101000000Y-82675000D02*
X101000000Y-82025000D01*
X80725000Y-62149600D02*
X80725000Y-62462500D01*
X86279500Y-62149600D02*
X80725000Y-62149600D01*
X95059100Y-75825000D02*
X95059100Y-76084100D01*
X118700000Y-74100000D02*
X118700000Y-75401700D01*
X117473300Y-74175000D02*
X108500000Y-74175000D01*
X91433900Y-75825000D02*
X86500000Y-75825000D01*
X80725000Y-62462500D02*
X79137500Y-64050000D01*
X117548300Y-74100000D02*
X117473300Y-74175000D01*
D41*
X95059100Y-76084100D02*
X96178300Y-77203300D01*
X101000000Y-82025000D02*
X100832900Y-81857800D01*
%TO.N,ESP_EN*%
D42*
X85524800Y-77799800D02*
X82725000Y-75000000D01*
X87586900Y-63086400D02*
X86407800Y-63086400D01*
X89650000Y-79100000D02*
X86408900Y-79100000D01*
X89250000Y-62500000D02*
X88173300Y-62500000D01*
X86408900Y-77799800D02*
X85524800Y-77799800D01*
X86408900Y-79100000D02*
X83350000Y-79100000D01*
X86500000Y-74175000D02*
X83550000Y-74175000D01*
X83550000Y-74175000D02*
X82725000Y-75000000D01*
X88173300Y-62500000D02*
X87586900Y-63086400D01*
X86408900Y-77799800D02*
X86408900Y-79100000D01*
%TO.N,NTC_ADC*%
X90705600Y-64000000D02*
X91961400Y-65255800D01*
X89250000Y-64000000D02*
X90705600Y-64000000D01*
X105450000Y-84325000D02*
X105500000Y-84275000D01*
X103500000Y-84325000D02*
X101000000Y-84325000D01*
X103500000Y-84325000D02*
X105450000Y-84325000D01*
X100565300Y-83890300D02*
X101000000Y-84325000D01*
X99970300Y-83890300D02*
X100565300Y-83890300D01*
%TO.N,I2C_SCL*%
X124400000Y-60900000D02*
X124400000Y-62126700D01*
X92175700Y-80222700D02*
X92292800Y-80222700D01*
X92292800Y-80222700D02*
X93689800Y-81619700D01*
X86408900Y-68971100D02*
X87702200Y-68971100D01*
X121968300Y-62126700D02*
X124400000Y-62126700D01*
X93689800Y-81619700D02*
X93689800Y-82604600D01*
X87702200Y-68971100D02*
X88173300Y-68500000D01*
X94585200Y-83500000D02*
X96175000Y-83500000D01*
X93689800Y-81619700D02*
X96059500Y-79250000D01*
X96175000Y-83500000D02*
X97000000Y-84325000D01*
X93689800Y-82604600D02*
X94585200Y-83500000D01*
X89250000Y-68500000D02*
X88173300Y-68500000D01*
X121009700Y-63085300D02*
X121968300Y-62126700D01*
X96059500Y-79250000D02*
X96725000Y-79250000D01*
%TO.N,I2C_SDA*%
X94905100Y-84419900D02*
X95000000Y-84325000D01*
X97575800Y-80500900D02*
X97575800Y-81686400D01*
X97750000Y-80326700D02*
X97575800Y-80500900D01*
X97854500Y-84761500D02*
X97545300Y-85070700D01*
X125341400Y-63085300D02*
X126300000Y-62126700D01*
X89250000Y-67000000D02*
X90326700Y-67000000D01*
X123893100Y-63085300D02*
X125341400Y-63085300D01*
X97575800Y-81686400D02*
X97854500Y-81965100D01*
X97750000Y-79775000D02*
X97750000Y-80326700D01*
X97545300Y-85070700D02*
X95745700Y-85070700D01*
X90618500Y-66708200D02*
X90326700Y-67000000D01*
X91511800Y-66708200D02*
X90618500Y-66708200D01*
X91400700Y-84419900D02*
X94905100Y-84419900D01*
X97854500Y-81965100D02*
X97854500Y-84761500D01*
X126300000Y-60900000D02*
X126300000Y-62126700D01*
X95745700Y-85070700D02*
X95000000Y-84325000D01*
%TO.N,LIS3DH_INT*%
X99826700Y-78250000D02*
X99826700Y-69895200D01*
X99275000Y-78250000D02*
X99826700Y-78250000D01*
X91203000Y-65500000D02*
X89250000Y-65500000D01*
X93226100Y-67523100D02*
X91203000Y-65500000D01*
X99826700Y-69895200D02*
X97454600Y-67523100D01*
X97454600Y-67523100D02*
X93226100Y-67523100D01*
%TO.N,USB_CC1*%
X72824900Y-66876100D02*
X72824900Y-66774500D01*
D43*
X69404500Y-66774500D02*
X69380000Y-66750000D01*
D42*
X73675000Y-61402200D02*
X73675000Y-60500000D01*
D43*
X72824900Y-66774500D02*
X69404500Y-66774500D01*
D42*
X71991900Y-63085300D02*
X73675000Y-61402200D01*
%TO.N,USB_CC2*%
X69380000Y-69750000D02*
X72425000Y-69750000D01*
X72425000Y-69750000D02*
X74675000Y-72000000D01*
%TO.N,ESP_BOOT*%
X108500000Y-79100000D02*
X108350000Y-79100000D01*
D43*
X109476100Y-63275200D02*
X108520200Y-63275200D01*
X108520200Y-63275200D02*
X107795400Y-64000000D01*
D42*
X109476100Y-63085300D02*
X109476100Y-63275200D01*
X106592700Y-73917700D02*
X108500000Y-75825000D01*
D43*
X106750000Y-64000000D02*
X107795400Y-64000000D01*
D42*
X114650000Y-79100000D02*
X108500000Y-79100000D01*
X106592700Y-72717700D02*
X106592700Y-73917700D01*
X108500000Y-75825000D02*
X108500000Y-79100000D01*
%TO.N,MCP_PROG*%
X79137500Y-53537500D02*
X79137500Y-55050000D01*
X81175000Y-51500000D02*
X79137500Y-53537500D01*
%TO.N,VBUS*%
D35*
X75675000Y-52608700D02*
X75675000Y-50000000D01*
X74217000Y-59297600D02*
X76789900Y-59297600D01*
X74875300Y-53408400D02*
X75675000Y-52608700D01*
X72225000Y-57305600D02*
X72225000Y-56000000D01*
X71400000Y-56000000D02*
X72220000Y-56000000D01*
D44*
X69380000Y-70400000D02*
X70800000Y-70400000D01*
D35*
X76789900Y-59297600D02*
X79137500Y-56950000D01*
D44*
X69380000Y-65599999D02*
X70800000Y-65599999D01*
D35*
X74217000Y-59297600D02*
X72225000Y-57305600D01*
%TO.N,CHG_LED_A*%
D42*
X74088500Y-49199000D02*
X75174200Y-49199000D01*
D43*
X75399400Y-49199000D02*
X75586900Y-49011500D01*
D42*
X73287500Y-50000000D02*
X74088500Y-49199000D01*
D43*
X75174200Y-49199000D02*
X75399400Y-49199000D01*
D42*
X75586900Y-49011500D02*
X76336500Y-49011500D01*
X76336500Y-49011500D02*
X77325000Y-50000000D01*
%TO.N,CHG_STAT*%
X71712500Y-51165200D02*
X71712500Y-50000000D01*
X76862500Y-55050000D02*
X75597300Y-55050000D01*
X75597300Y-55050000D02*
X71712500Y-51165200D01*
%TO.N,GPS_TX*%
X94619600Y-68775600D02*
X92427400Y-68775600D01*
D43*
X89250000Y-70000000D02*
X90295400Y-70000000D01*
X91927800Y-69275200D02*
X91020200Y-69275200D01*
D42*
X92427400Y-68775600D02*
X91927800Y-69275200D01*
D43*
X91020200Y-69275200D02*
X90295400Y-70000000D01*
D42*
X115900000Y-65600000D02*
X114673300Y-65600000D01*
X112359500Y-66028200D02*
X114245100Y-66028200D01*
X114245100Y-66028200D02*
X114673300Y-65600000D01*
%TO.N,GPS_RX*%
X97942500Y-68971100D02*
X96238000Y-68971100D01*
X111526600Y-66876000D02*
X114049300Y-66876000D01*
D43*
X89250000Y-71500000D02*
X90295400Y-71500000D01*
D42*
X115900000Y-67500000D02*
X114673300Y-67500000D01*
X96238000Y-68971100D02*
X94433900Y-70775200D01*
D43*
X91020200Y-70775200D02*
X90295400Y-71500000D01*
D42*
X114049300Y-66876000D02*
X114673300Y-67500000D01*
D43*
X94433900Y-70775200D02*
X91020200Y-70775200D01*
%TO.N,LED_STAT_A*%
D42*
X115000000Y-52787500D02*
X115000000Y-55175000D01*
%TO.N,LED_STAT*%
X109476100Y-68971100D02*
X109476100Y-69275200D01*
X115242900Y-57067900D02*
X115000000Y-56825000D01*
D43*
X109476100Y-69275200D02*
X108520200Y-69275200D01*
X106750000Y-70000000D02*
X107795400Y-70000000D01*
D42*
X115242900Y-60142400D02*
X115242900Y-57067900D01*
D43*
X108520200Y-69275200D02*
X107795400Y-70000000D01*
%TD*%
%TA.AperFunction,Conductor*%
%TO.N,GND*%
G36*
X83959191Y-48019407D02*
G01*
X83995155Y-48068907D01*
X84000000Y-48099500D01*
X84000000Y-58400000D01*
X84000001Y-58400000D01*
X111999999Y-58400000D01*
X112000000Y-58400000D01*
X112000000Y-56593477D01*
X114324500Y-56593477D01*
X114324500Y-57056520D01*
X114324501Y-57056523D01*
X114339352Y-57150299D01*
X114339354Y-57150304D01*
X114396950Y-57263342D01*
X114486658Y-57353050D01*
X114599696Y-57410646D01*
X114693481Y-57425500D01*
X114818400Y-57425499D01*
X114876590Y-57444406D01*
X114912554Y-57493906D01*
X114917400Y-57524499D01*
X114917400Y-59719078D01*
X114898493Y-59777269D01*
X114888404Y-59789081D01*
X114842400Y-59835084D01*
X114842396Y-59835090D01*
X114776509Y-59949209D01*
X114757439Y-60020378D01*
X114742400Y-60076508D01*
X114742400Y-60208292D01*
X114744602Y-60216510D01*
X114776509Y-60335590D01*
X114842396Y-60449709D01*
X114842398Y-60449711D01*
X114842400Y-60449714D01*
X114935586Y-60542900D01*
X114935588Y-60542901D01*
X114935590Y-60542903D01*
X115049710Y-60608790D01*
X115049708Y-60608790D01*
X115049712Y-60608791D01*
X115049714Y-60608792D01*
X115177008Y-60642900D01*
X115177010Y-60642900D01*
X115308790Y-60642900D01*
X115308792Y-60642900D01*
X115436086Y-60608792D01*
X115436088Y-60608790D01*
X115436090Y-60608790D01*
X115550209Y-60542903D01*
X115550209Y-60542902D01*
X115550214Y-60542900D01*
X115643400Y-60449714D01*
X115643403Y-60449709D01*
X115709290Y-60335590D01*
X115709290Y-60335588D01*
X115709292Y-60335586D01*
X115743400Y-60208292D01*
X115743400Y-60076508D01*
X115717621Y-59980299D01*
X117750000Y-59980299D01*
X117750000Y-60774999D01*
X117750001Y-60775000D01*
X118574999Y-60775000D01*
X118575000Y-60774999D01*
X118575000Y-59800001D01*
X118825000Y-59800001D01*
X118825000Y-60774999D01*
X118825001Y-60775000D01*
X120474999Y-60775000D01*
X120475000Y-60774999D01*
X120475000Y-59800001D01*
X120474999Y-59800000D01*
X119830299Y-59800000D01*
X119771964Y-59811603D01*
X119705001Y-59856347D01*
X119646113Y-59872955D01*
X119594999Y-59856347D01*
X119528035Y-59811603D01*
X119528036Y-59811603D01*
X119469700Y-59800000D01*
X118825001Y-59800000D01*
X118825000Y-59800001D01*
X118575000Y-59800001D01*
X118574999Y-59800000D01*
X117930299Y-59800000D01*
X117871963Y-59811603D01*
X117805810Y-59855806D01*
X117805806Y-59855810D01*
X117761603Y-59921963D01*
X117750000Y-59980299D01*
X115717621Y-59980299D01*
X115709292Y-59949214D01*
X115709290Y-59949211D01*
X115709290Y-59949209D01*
X115643403Y-59835090D01*
X115643399Y-59835084D01*
X115597396Y-59789081D01*
X115569619Y-59734564D01*
X115568400Y-59719078D01*
X115568400Y-57338999D01*
X115587307Y-57280808D01*
X115597390Y-57269001D01*
X115603050Y-57263342D01*
X115660646Y-57150304D01*
X115675500Y-57056519D01*
X115675499Y-56593482D01*
X115668177Y-56547251D01*
X115660647Y-56499700D01*
X115660646Y-56499698D01*
X115660646Y-56499696D01*
X115603050Y-56386658D01*
X115513342Y-56296950D01*
X115400304Y-56239354D01*
X115400305Y-56239354D01*
X115306522Y-56224500D01*
X114693479Y-56224500D01*
X114693476Y-56224501D01*
X114599700Y-56239352D01*
X114599695Y-56239354D01*
X114486659Y-56296949D01*
X114396949Y-56386659D01*
X114339354Y-56499695D01*
X114324500Y-56593477D01*
X112000000Y-56593477D01*
X112000000Y-52535751D01*
X114324500Y-52535751D01*
X114324500Y-53039248D01*
X114340049Y-53137419D01*
X114340050Y-53137423D01*
X114379687Y-53215214D01*
X114400342Y-53255751D01*
X114494249Y-53349658D01*
X114528624Y-53367173D01*
X114619523Y-53413489D01*
X114617987Y-53416501D01*
X114655541Y-53443736D01*
X114674500Y-53501910D01*
X114674500Y-54493121D01*
X114655593Y-54551312D01*
X114606093Y-54587276D01*
X114606092Y-54587276D01*
X114599693Y-54589354D01*
X114486659Y-54646949D01*
X114396949Y-54736659D01*
X114339354Y-54849695D01*
X114324500Y-54943477D01*
X114324500Y-55406520D01*
X114324501Y-55406523D01*
X114339352Y-55500299D01*
X114339354Y-55500304D01*
X114396950Y-55613342D01*
X114486658Y-55703050D01*
X114599696Y-55760646D01*
X114693481Y-55775500D01*
X115306518Y-55775499D01*
X115306520Y-55775499D01*
X115306521Y-55775498D01*
X115353411Y-55768072D01*
X115400299Y-55760647D01*
X115400299Y-55760646D01*
X115400304Y-55760646D01*
X115513342Y-55703050D01*
X115603050Y-55613342D01*
X115660646Y-55500304D01*
X115675500Y-55406519D01*
X115675499Y-54943482D01*
X115663346Y-54866743D01*
X115660647Y-54849700D01*
X115660646Y-54849698D01*
X115660646Y-54849696D01*
X115603050Y-54736658D01*
X115513342Y-54646950D01*
X115511265Y-54645891D01*
X115400306Y-54589354D01*
X115393908Y-54587276D01*
X115344408Y-54551313D01*
X115325500Y-54493122D01*
X115325500Y-53501997D01*
X115344407Y-53443806D01*
X115382005Y-53416488D01*
X115380477Y-53413489D01*
X115412134Y-53397358D01*
X115505751Y-53349658D01*
X115599658Y-53255751D01*
X115659951Y-53137420D01*
X115675500Y-53039246D01*
X115675500Y-52535754D01*
X115659951Y-52437580D01*
X115599658Y-52319249D01*
X115505751Y-52225342D01*
X115410322Y-52176718D01*
X115387423Y-52165050D01*
X115387420Y-52165049D01*
X115362876Y-52161161D01*
X115289249Y-52149500D01*
X115289246Y-52149500D01*
X114710754Y-52149500D01*
X114710751Y-52149500D01*
X114612580Y-52165049D01*
X114612576Y-52165050D01*
X114494250Y-52225341D01*
X114400341Y-52319250D01*
X114340050Y-52437576D01*
X114340049Y-52437580D01*
X114324500Y-52535751D01*
X112000000Y-52535751D01*
X112000000Y-51337501D01*
X114325001Y-51337501D01*
X114325001Y-51464209D01*
X114340531Y-51562262D01*
X114400751Y-51680452D01*
X114494547Y-51774248D01*
X114612735Y-51834468D01*
X114710790Y-51849999D01*
X114875000Y-51849999D01*
X114875000Y-51337501D01*
X115125000Y-51337501D01*
X115125000Y-51849998D01*
X115125001Y-51849999D01*
X115289209Y-51849999D01*
X115387262Y-51834468D01*
X115505452Y-51774248D01*
X115599248Y-51680452D01*
X115659468Y-51562264D01*
X115675000Y-51464208D01*
X115675000Y-51337501D01*
X115674999Y-51337500D01*
X115125001Y-51337500D01*
X115125000Y-51337501D01*
X114875000Y-51337501D01*
X114874999Y-51337500D01*
X114325002Y-51337500D01*
X114325001Y-51337501D01*
X112000000Y-51337501D01*
X112000000Y-50960791D01*
X114325000Y-50960791D01*
X114325000Y-51087499D01*
X114325001Y-51087500D01*
X114874999Y-51087500D01*
X114875000Y-51087499D01*
X114875000Y-50575001D01*
X115125000Y-50575001D01*
X115125000Y-51087499D01*
X115125001Y-51087500D01*
X115674998Y-51087500D01*
X115674999Y-51087499D01*
X115674999Y-50960790D01*
X115659468Y-50862737D01*
X115599248Y-50744547D01*
X115505452Y-50650751D01*
X115387264Y-50590531D01*
X115289209Y-50575000D01*
X115125001Y-50575000D01*
X115125000Y-50575001D01*
X114875000Y-50575001D01*
X114874999Y-50575000D01*
X114710791Y-50575000D01*
X114612737Y-50590531D01*
X114494547Y-50650751D01*
X114400751Y-50744547D01*
X114340531Y-50862735D01*
X114325000Y-50960791D01*
X112000000Y-50960791D01*
X112000000Y-48099500D01*
X112018907Y-48041309D01*
X112068407Y-48005345D01*
X112099000Y-48000500D01*
X127907290Y-48000500D01*
X127996759Y-48000500D01*
X128003234Y-48000712D01*
X128254515Y-48017181D01*
X128267343Y-48018870D01*
X128511149Y-48067366D01*
X128523649Y-48070715D01*
X128608445Y-48099500D01*
X128759036Y-48150619D01*
X128770999Y-48155575D01*
X128993926Y-48265510D01*
X129005142Y-48271985D01*
X129211824Y-48410086D01*
X129222097Y-48417969D01*
X129408981Y-48581861D01*
X129418138Y-48591018D01*
X129582030Y-48777902D01*
X129589913Y-48788175D01*
X129728014Y-48994857D01*
X129734489Y-49006073D01*
X129844424Y-49229000D01*
X129849380Y-49240963D01*
X129929282Y-49476345D01*
X129932634Y-49488854D01*
X129981128Y-49732651D01*
X129982818Y-49745490D01*
X129999288Y-49996765D01*
X129999500Y-50003240D01*
X129999500Y-62650500D01*
X129980593Y-62708691D01*
X129931093Y-62744655D01*
X129900500Y-62749500D01*
X128180252Y-62749500D01*
X128180251Y-62749500D01*
X128180241Y-62749501D01*
X128121772Y-62761132D01*
X128121766Y-62761134D01*
X128055451Y-62805445D01*
X128055445Y-62805451D01*
X128011134Y-62871766D01*
X128011132Y-62871772D01*
X127999501Y-62930241D01*
X127999500Y-62930253D01*
X127999500Y-64469746D01*
X127999501Y-64469758D01*
X128011132Y-64528227D01*
X128011134Y-64528233D01*
X128055746Y-64594998D01*
X128072355Y-64653886D01*
X128055746Y-64705002D01*
X128011134Y-64771766D01*
X128011132Y-64771772D01*
X127999501Y-64830241D01*
X127999500Y-64830253D01*
X127999500Y-66369746D01*
X127999501Y-66369758D01*
X128011132Y-66428227D01*
X128011134Y-66428233D01*
X128056046Y-66495447D01*
X128072655Y-66554335D01*
X128056047Y-66605450D01*
X128011603Y-66671964D01*
X128000000Y-66730299D01*
X128000000Y-67374999D01*
X128000001Y-67375000D01*
X129001000Y-67375000D01*
X129015912Y-67379845D01*
X129031593Y-67379845D01*
X129044278Y-67389061D01*
X129059191Y-67393907D01*
X129068407Y-67406592D01*
X129081093Y-67415809D01*
X129085938Y-67430721D01*
X129095155Y-67443407D01*
X129100000Y-67474000D01*
X129100000Y-67500000D01*
X129126000Y-67500000D01*
X129184191Y-67518907D01*
X129220155Y-67568407D01*
X129225000Y-67599000D01*
X129225000Y-72249999D01*
X129225001Y-72250000D01*
X129900500Y-72250000D01*
X129958691Y-72268907D01*
X129994655Y-72318407D01*
X129999500Y-72349000D01*
X129999500Y-84996759D01*
X129999288Y-85003234D01*
X129982818Y-85254509D01*
X129981128Y-85267348D01*
X129932634Y-85511145D01*
X129929282Y-85523654D01*
X129849380Y-85759036D01*
X129844424Y-85770999D01*
X129734489Y-85993926D01*
X129728014Y-86005142D01*
X129589913Y-86211824D01*
X129582030Y-86222097D01*
X129418138Y-86408981D01*
X129408981Y-86418138D01*
X129222097Y-86582030D01*
X129211824Y-86589913D01*
X129005142Y-86728014D01*
X128993926Y-86734489D01*
X128770999Y-86844424D01*
X128759036Y-86849380D01*
X128523654Y-86929282D01*
X128511145Y-86932634D01*
X128267348Y-86981128D01*
X128254509Y-86982818D01*
X128003234Y-86999288D01*
X127996759Y-86999500D01*
X65003241Y-86999500D01*
X64996766Y-86999288D01*
X64745490Y-86982818D01*
X64732651Y-86981128D01*
X64488854Y-86932634D01*
X64476345Y-86929282D01*
X64240963Y-86849380D01*
X64229000Y-86844424D01*
X64006073Y-86734489D01*
X63994857Y-86728014D01*
X63788175Y-86589913D01*
X63777902Y-86582030D01*
X63591018Y-86418138D01*
X63581861Y-86408981D01*
X63417969Y-86222097D01*
X63410086Y-86211824D01*
X63271985Y-86005142D01*
X63265510Y-85993926D01*
X63155575Y-85770999D01*
X63150619Y-85759036D01*
X63070715Y-85523649D01*
X63067365Y-85511145D01*
X63040088Y-85374016D01*
X63018870Y-85267343D01*
X63017181Y-85254509D01*
X63012622Y-85184955D01*
X63000712Y-85003234D01*
X63000500Y-84996759D01*
X63000500Y-83025001D01*
X82300000Y-83025001D01*
X82300000Y-83419700D01*
X82311603Y-83478036D01*
X82355806Y-83544189D01*
X82355810Y-83544193D01*
X82421963Y-83588396D01*
X82480299Y-83599999D01*
X82480303Y-83600000D01*
X83224999Y-83600000D01*
X83225000Y-83599999D01*
X83225000Y-83025001D01*
X83475000Y-83025001D01*
X83475000Y-83599999D01*
X83475001Y-83600000D01*
X84219697Y-83600000D01*
X84219700Y-83599999D01*
X84278036Y-83588396D01*
X84344189Y-83544193D01*
X84344193Y-83544189D01*
X84388396Y-83478036D01*
X84399999Y-83419700D01*
X84400000Y-83419697D01*
X84400000Y-83025001D01*
X88600000Y-83025001D01*
X88600000Y-83419700D01*
X88611603Y-83478036D01*
X88655806Y-83544189D01*
X88655810Y-83544193D01*
X88721963Y-83588396D01*
X88780299Y-83599999D01*
X88780303Y-83600000D01*
X89524999Y-83600000D01*
X89525000Y-83599999D01*
X89525000Y-83025001D01*
X89775000Y-83025001D01*
X89775000Y-83599999D01*
X89775001Y-83600000D01*
X90519697Y-83600000D01*
X90519700Y-83599999D01*
X90578036Y-83588396D01*
X90644189Y-83544193D01*
X90644193Y-83544189D01*
X90688396Y-83478036D01*
X90699999Y-83419700D01*
X90700000Y-83419697D01*
X90700000Y-83025001D01*
X90699999Y-83025000D01*
X89775001Y-83025000D01*
X89775000Y-83025001D01*
X89525000Y-83025001D01*
X89524999Y-83025000D01*
X88600001Y-83025000D01*
X88600000Y-83025001D01*
X84400000Y-83025001D01*
X84399999Y-83025000D01*
X83475001Y-83025000D01*
X83475000Y-83025001D01*
X83225000Y-83025001D01*
X83224999Y-83025000D01*
X82300001Y-83025000D01*
X82300000Y-83025001D01*
X63000500Y-83025001D01*
X63000500Y-83016546D01*
X91825000Y-83016546D01*
X91825000Y-83149999D01*
X91825001Y-83150000D01*
X92374999Y-83150000D01*
X92375000Y-83149999D01*
X92375000Y-82625001D01*
X92625000Y-82625001D01*
X92625000Y-83149999D01*
X92625001Y-83150000D01*
X93174998Y-83150000D01*
X93174999Y-83149999D01*
X93174999Y-83016546D01*
X93159239Y-82917034D01*
X93159237Y-82917030D01*
X93098118Y-82797078D01*
X93002921Y-82701881D01*
X92882969Y-82640762D01*
X92882970Y-82640762D01*
X92783454Y-82625000D01*
X92625001Y-82625000D01*
X92625000Y-82625001D01*
X92375000Y-82625001D01*
X92374999Y-82625000D01*
X92216547Y-82625000D01*
X92216546Y-82625001D01*
X92117034Y-82640760D01*
X92117030Y-82640762D01*
X91997078Y-82701881D01*
X91901881Y-82797078D01*
X91840762Y-82917030D01*
X91825000Y-83016546D01*
X63000500Y-83016546D01*
X63000500Y-82000001D01*
X75400001Y-82000001D01*
X75400001Y-82579203D01*
X75402850Y-82609600D01*
X75402850Y-82609602D01*
X75447654Y-82737647D01*
X75528207Y-82846790D01*
X75528209Y-82846792D01*
X75637352Y-82927345D01*
X75765398Y-82972149D01*
X75795789Y-82974999D01*
X76074998Y-82974999D01*
X76075000Y-82974998D01*
X76075000Y-82000001D01*
X76325000Y-82000001D01*
X76325000Y-82974998D01*
X76325001Y-82974999D01*
X76604203Y-82974999D01*
X76634600Y-82972149D01*
X76634602Y-82972149D01*
X76762647Y-82927345D01*
X76871790Y-82846792D01*
X76871792Y-82846790D01*
X76952345Y-82737647D01*
X76997149Y-82609601D01*
X76999999Y-82579211D01*
X77000000Y-82579210D01*
X77000000Y-82000001D01*
X79000001Y-82000001D01*
X79000001Y-82579203D01*
X79002850Y-82609600D01*
X79002850Y-82609602D01*
X79047654Y-82737647D01*
X79128207Y-82846790D01*
X79128209Y-82846792D01*
X79237352Y-82927345D01*
X79365398Y-82972149D01*
X79395789Y-82974999D01*
X79674998Y-82974999D01*
X79675000Y-82974998D01*
X79675000Y-82000001D01*
X79925000Y-82000001D01*
X79925000Y-82974998D01*
X79925001Y-82974999D01*
X80204203Y-82974999D01*
X80234600Y-82972149D01*
X80234602Y-82972149D01*
X80362647Y-82927345D01*
X80393820Y-82904338D01*
X80471790Y-82846792D01*
X80471792Y-82846790D01*
X80552345Y-82737647D01*
X80597149Y-82609601D01*
X80599999Y-82579211D01*
X80600000Y-82579210D01*
X80600000Y-82380299D01*
X82300000Y-82380299D01*
X82300000Y-82774999D01*
X82300001Y-82775000D01*
X83224999Y-82775000D01*
X83225000Y-82774999D01*
X83225000Y-82200001D01*
X83475000Y-82200001D01*
X83475000Y-82774999D01*
X83475001Y-82775000D01*
X84399999Y-82775000D01*
X84400000Y-82774999D01*
X84400000Y-82380302D01*
X84399999Y-82380299D01*
X88600000Y-82380299D01*
X88600000Y-82774999D01*
X88600001Y-82775000D01*
X89524999Y-82775000D01*
X89525000Y-82774999D01*
X89525000Y-82200001D01*
X89775000Y-82200001D01*
X89775000Y-82774999D01*
X89775001Y-82775000D01*
X90699999Y-82775000D01*
X90700000Y-82774999D01*
X90700000Y-82380302D01*
X90699999Y-82380299D01*
X90688396Y-82321963D01*
X90644193Y-82255810D01*
X90644189Y-82255806D01*
X90578036Y-82211603D01*
X90519700Y-82200000D01*
X89775001Y-82200000D01*
X89775000Y-82200001D01*
X89525000Y-82200001D01*
X89524999Y-82200000D01*
X88780299Y-82200000D01*
X88721963Y-82211603D01*
X88655810Y-82255806D01*
X88655806Y-82255810D01*
X88611603Y-82321963D01*
X88600000Y-82380299D01*
X84399999Y-82380299D01*
X84388396Y-82321963D01*
X84344193Y-82255810D01*
X84344189Y-82255806D01*
X84278036Y-82211603D01*
X84219700Y-82200000D01*
X83475001Y-82200000D01*
X83475000Y-82200001D01*
X83225000Y-82200001D01*
X83224999Y-82200000D01*
X82480299Y-82200000D01*
X82421963Y-82211603D01*
X82355810Y-82255806D01*
X82355806Y-82255810D01*
X82311603Y-82321963D01*
X82300000Y-82380299D01*
X80600000Y-82380299D01*
X80600000Y-82000001D01*
X80599999Y-82000000D01*
X79925001Y-82000000D01*
X79925000Y-82000001D01*
X79675000Y-82000001D01*
X79674999Y-82000000D01*
X79000002Y-82000000D01*
X79000001Y-82000001D01*
X77000000Y-82000001D01*
X76999999Y-82000000D01*
X76325001Y-82000000D01*
X76325000Y-82000001D01*
X76075000Y-82000001D01*
X76074999Y-82000000D01*
X75400002Y-82000000D01*
X75400001Y-82000001D01*
X63000500Y-82000001D01*
X63000500Y-81170788D01*
X75400000Y-81170788D01*
X75400000Y-81749999D01*
X75400001Y-81750000D01*
X76074999Y-81750000D01*
X76075000Y-81749999D01*
X76075000Y-80775001D01*
X76325000Y-80775001D01*
X76325000Y-81749999D01*
X76325001Y-81750000D01*
X76999998Y-81750000D01*
X76999999Y-81749999D01*
X76999999Y-81170796D01*
X76999998Y-81170788D01*
X79000000Y-81170788D01*
X79000000Y-81749999D01*
X79000001Y-81750000D01*
X79674999Y-81750000D01*
X79675000Y-81749999D01*
X79675000Y-80775001D01*
X79925000Y-80775001D01*
X79925000Y-81749999D01*
X79925001Y-81750000D01*
X80599998Y-81750000D01*
X80599999Y-81749999D01*
X80599999Y-81170796D01*
X80597149Y-81140399D01*
X80597149Y-81140397D01*
X80552345Y-81012352D01*
X80471792Y-80903209D01*
X80471790Y-80903207D01*
X80362647Y-80822654D01*
X80234601Y-80777850D01*
X80204211Y-80775000D01*
X79925001Y-80775000D01*
X79925000Y-80775001D01*
X79675000Y-80775001D01*
X79674999Y-80775000D01*
X79395796Y-80775000D01*
X79365399Y-80777850D01*
X79365397Y-80777850D01*
X79237352Y-80822654D01*
X79128209Y-80903207D01*
X79128207Y-80903209D01*
X79047654Y-81012352D01*
X79002850Y-81140398D01*
X79000000Y-81170788D01*
X76999998Y-81170788D01*
X76997149Y-81140399D01*
X76997149Y-81140397D01*
X76952345Y-81012352D01*
X76871792Y-80903209D01*
X76871790Y-80903207D01*
X76762647Y-80822654D01*
X76634601Y-80777850D01*
X76604211Y-80775000D01*
X76325001Y-80775000D01*
X76325000Y-80775001D01*
X76075000Y-80775001D01*
X76074999Y-80775000D01*
X75795796Y-80775000D01*
X75765399Y-80777850D01*
X75765397Y-80777850D01*
X75637352Y-80822654D01*
X75528209Y-80903207D01*
X75528207Y-80903209D01*
X75447654Y-81012352D01*
X75402850Y-81140398D01*
X75400000Y-81170788D01*
X63000500Y-81170788D01*
X63000500Y-65034234D01*
X67729500Y-65034234D01*
X67729500Y-65185766D01*
X67756764Y-65287516D01*
X67768720Y-65332139D01*
X67844481Y-65463360D01*
X67844483Y-65463362D01*
X67844485Y-65463365D01*
X67951635Y-65570515D01*
X67951637Y-65570516D01*
X67951639Y-65570518D01*
X68082861Y-65646279D01*
X68082859Y-65646279D01*
X68082863Y-65646280D01*
X68082865Y-65646281D01*
X68229234Y-65685500D01*
X68229236Y-65685500D01*
X68380764Y-65685500D01*
X68380766Y-65685500D01*
X68479878Y-65658943D01*
X68540979Y-65662146D01*
X68588528Y-65700651D01*
X68604500Y-65754570D01*
X68604500Y-65783260D01*
X68605947Y-65793189D01*
X68614427Y-65851395D01*
X68652994Y-65930285D01*
X68661565Y-65990867D01*
X68646369Y-66028766D01*
X68620486Y-66067502D01*
X68620486Y-66067503D01*
X68620485Y-66067505D01*
X68615197Y-66094090D01*
X68604500Y-66147867D01*
X68604500Y-66352129D01*
X68604501Y-66352137D01*
X68620484Y-66432494D01*
X68620486Y-66432498D01*
X68628840Y-66445001D01*
X68645447Y-66503889D01*
X68628840Y-66554999D01*
X68620485Y-66567503D01*
X68620484Y-66567504D01*
X68604500Y-66647864D01*
X68604500Y-66852129D01*
X68604501Y-66852137D01*
X68620484Y-66932494D01*
X68620486Y-66932498D01*
X68628840Y-66945001D01*
X68645447Y-67003889D01*
X68628840Y-67054999D01*
X68620485Y-67067503D01*
X68620484Y-67067504D01*
X68604500Y-67147864D01*
X68604500Y-67352129D01*
X68604501Y-67352137D01*
X68620484Y-67432494D01*
X68620486Y-67432498D01*
X68628840Y-67445001D01*
X68645447Y-67503889D01*
X68628840Y-67554999D01*
X68620485Y-67567503D01*
X68620484Y-67567504D01*
X68604500Y-67647864D01*
X68604500Y-67852129D01*
X68604501Y-67852137D01*
X68620484Y-67932494D01*
X68620486Y-67932498D01*
X68628840Y-67945001D01*
X68645447Y-68003889D01*
X68628840Y-68054999D01*
X68620485Y-68067503D01*
X68620484Y-68067504D01*
X68604500Y-68147864D01*
X68604500Y-68352129D01*
X68604501Y-68352137D01*
X68620484Y-68432494D01*
X68620486Y-68432498D01*
X68628840Y-68445001D01*
X68645447Y-68503889D01*
X68628840Y-68554999D01*
X68620485Y-68567503D01*
X68620484Y-68567504D01*
X68604500Y-68647864D01*
X68604500Y-68852129D01*
X68604501Y-68852137D01*
X68620484Y-68932494D01*
X68620486Y-68932498D01*
X68628840Y-68945001D01*
X68645447Y-69003889D01*
X68628840Y-69054999D01*
X68620485Y-69067503D01*
X68620484Y-69067504D01*
X68604500Y-69147864D01*
X68604500Y-69352129D01*
X68604501Y-69352137D01*
X68620484Y-69432494D01*
X68620486Y-69432498D01*
X68628840Y-69445001D01*
X68645447Y-69503889D01*
X68628840Y-69554999D01*
X68620485Y-69567503D01*
X68620484Y-69567504D01*
X68604500Y-69647864D01*
X68604500Y-69852129D01*
X68604501Y-69852137D01*
X68620484Y-69932494D01*
X68620485Y-69932496D01*
X68646368Y-69971232D01*
X68662977Y-70030120D01*
X68652994Y-70069714D01*
X68614427Y-70148604D01*
X68611354Y-70169700D01*
X68604529Y-70216546D01*
X68604500Y-70216743D01*
X68604500Y-70245430D01*
X68585593Y-70303621D01*
X68536093Y-70339585D01*
X68479879Y-70341056D01*
X68380766Y-70314500D01*
X68229234Y-70314500D01*
X68139652Y-70338503D01*
X68082860Y-70353720D01*
X67951639Y-70429481D01*
X67844481Y-70536639D01*
X67768720Y-70667860D01*
X67768719Y-70667865D01*
X67729500Y-70814234D01*
X67729500Y-70965766D01*
X67764086Y-71094847D01*
X67768720Y-71112139D01*
X67844481Y-71243360D01*
X67844483Y-71243362D01*
X67844485Y-71243365D01*
X67951635Y-71350515D01*
X67951637Y-71350516D01*
X67951639Y-71350518D01*
X68082861Y-71426279D01*
X68082859Y-71426279D01*
X68082863Y-71426280D01*
X68082865Y-71426281D01*
X68229234Y-71465500D01*
X68229236Y-71465500D01*
X68380764Y-71465500D01*
X68380766Y-71465500D01*
X68527135Y-71426281D01*
X68527137Y-71426279D01*
X68527139Y-71426279D01*
X68658360Y-71350518D01*
X68658360Y-71350517D01*
X68658365Y-71350515D01*
X68765515Y-71243365D01*
X68804986Y-71175000D01*
X68841279Y-71112139D01*
X68841279Y-71112137D01*
X68841281Y-71112135D01*
X68878327Y-70973875D01*
X68911650Y-70922563D01*
X68968771Y-70900636D01*
X68973953Y-70900500D01*
X69838257Y-70900500D01*
X69838260Y-70900500D01*
X69906393Y-70890573D01*
X70011483Y-70839198D01*
X70036447Y-70814234D01*
X70046186Y-70804496D01*
X70100703Y-70776719D01*
X70116189Y-70775500D01*
X70426679Y-70775500D01*
X70484870Y-70794407D01*
X70487476Y-70796633D01*
X70487540Y-70796551D01*
X70492690Y-70800503D01*
X70606810Y-70866390D01*
X70606808Y-70866390D01*
X70606812Y-70866391D01*
X70606814Y-70866392D01*
X70734108Y-70900500D01*
X70734110Y-70900500D01*
X70865890Y-70900500D01*
X70865892Y-70900500D01*
X70993186Y-70866392D01*
X70993188Y-70866390D01*
X70993190Y-70866390D01*
X71107309Y-70800503D01*
X71107309Y-70800502D01*
X71107314Y-70800500D01*
X71200500Y-70707314D01*
X71248024Y-70625000D01*
X71266390Y-70593190D01*
X71266390Y-70593188D01*
X71266392Y-70593186D01*
X71300500Y-70465892D01*
X71300500Y-70334108D01*
X71266392Y-70206814D01*
X71266391Y-70206812D01*
X71264712Y-70200546D01*
X71267697Y-70199746D01*
X71263909Y-70151348D01*
X71295901Y-70099192D01*
X71352439Y-70075802D01*
X71360164Y-70075500D01*
X72249165Y-70075500D01*
X72307356Y-70094407D01*
X72319169Y-70104496D01*
X74045504Y-71830830D01*
X74073281Y-71885347D01*
X74074500Y-71900834D01*
X74074500Y-72306520D01*
X74074501Y-72306523D01*
X74089352Y-72400299D01*
X74089354Y-72400304D01*
X74146950Y-72513342D01*
X74236658Y-72603050D01*
X74349696Y-72660646D01*
X74443481Y-72675500D01*
X74906518Y-72675499D01*
X74906520Y-72675499D01*
X74906521Y-72675498D01*
X74953411Y-72668072D01*
X75000299Y-72660647D01*
X75000299Y-72660646D01*
X75000304Y-72660646D01*
X75113342Y-72603050D01*
X75203050Y-72513342D01*
X75260646Y-72400304D01*
X75271926Y-72329081D01*
X75275500Y-72306521D01*
X75275500Y-72125001D01*
X75725001Y-72125001D01*
X75725001Y-72306485D01*
X75739833Y-72400141D01*
X75739836Y-72400151D01*
X75797358Y-72513043D01*
X75886956Y-72602641D01*
X75999848Y-72660163D01*
X75999852Y-72660164D01*
X76093515Y-72674999D01*
X76200000Y-72674999D01*
X76200000Y-72125001D01*
X76450000Y-72125001D01*
X76450000Y-72674998D01*
X76450001Y-72674999D01*
X76556483Y-72674999D01*
X76556485Y-72674998D01*
X76650141Y-72660166D01*
X76650151Y-72660163D01*
X76763043Y-72602641D01*
X76852641Y-72513043D01*
X76910163Y-72400151D01*
X76910164Y-72400147D01*
X76925000Y-72306484D01*
X76925000Y-72125001D01*
X76924999Y-72125000D01*
X76450001Y-72125000D01*
X76450000Y-72125001D01*
X76200000Y-72125001D01*
X76199999Y-72125000D01*
X75725002Y-72125000D01*
X75725001Y-72125001D01*
X75275500Y-72125001D01*
X75275500Y-72083993D01*
X75275499Y-71693515D01*
X75725000Y-71693515D01*
X75725000Y-71874999D01*
X75725001Y-71875000D01*
X76199999Y-71875000D01*
X76200000Y-71874999D01*
X76200000Y-71325001D01*
X76450000Y-71325001D01*
X76450000Y-71874999D01*
X76450001Y-71875000D01*
X76924998Y-71875000D01*
X76924999Y-71874999D01*
X76924999Y-71693516D01*
X76924998Y-71693514D01*
X76910166Y-71599858D01*
X76910163Y-71599848D01*
X76852641Y-71486956D01*
X76763043Y-71397358D01*
X76650151Y-71339836D01*
X76650147Y-71339835D01*
X76556484Y-71325000D01*
X76450001Y-71325000D01*
X76450000Y-71325001D01*
X76200000Y-71325001D01*
X76200000Y-71325000D01*
X76093517Y-71325000D01*
X76093514Y-71325001D01*
X75999858Y-71339833D01*
X75999848Y-71339836D01*
X75886956Y-71397358D01*
X75797358Y-71486956D01*
X75739836Y-71599848D01*
X75739835Y-71599852D01*
X75725000Y-71693515D01*
X75275499Y-71693515D01*
X75275499Y-71693479D01*
X75275498Y-71693476D01*
X75260647Y-71599700D01*
X75260646Y-71599698D01*
X75260646Y-71599696D01*
X75203050Y-71486658D01*
X75113342Y-71396950D01*
X75000304Y-71339354D01*
X75000305Y-71339354D01*
X74906522Y-71324500D01*
X74906519Y-71324500D01*
X74500835Y-71324500D01*
X74442644Y-71305593D01*
X74430831Y-71295504D01*
X73528527Y-70393200D01*
X72624862Y-69489535D01*
X72624859Y-69489533D01*
X72624858Y-69489532D01*
X72624857Y-69489531D01*
X72550642Y-69446683D01*
X72550644Y-69446683D01*
X72516333Y-69437490D01*
X72467853Y-69424500D01*
X72467851Y-69424500D01*
X70254500Y-69424500D01*
X70196309Y-69405593D01*
X70160345Y-69356093D01*
X70155500Y-69325501D01*
X70155499Y-69147870D01*
X70155498Y-69147862D01*
X70139515Y-69067506D01*
X70139515Y-69067505D01*
X70131159Y-69054999D01*
X70114551Y-68996114D01*
X70131159Y-68944999D01*
X70139515Y-68932495D01*
X70155500Y-68852133D01*
X70155499Y-68647868D01*
X70154805Y-68644381D01*
X70140363Y-68571769D01*
X70139515Y-68567505D01*
X70131159Y-68554999D01*
X70114551Y-68496114D01*
X70131159Y-68444999D01*
X70139515Y-68432495D01*
X70155500Y-68352133D01*
X70155499Y-68147868D01*
X70139515Y-68067505D01*
X70131159Y-68054999D01*
X70114551Y-67996114D01*
X70131159Y-67944999D01*
X70139515Y-67932495D01*
X70155500Y-67852133D01*
X70155499Y-67647868D01*
X70139515Y-67567505D01*
X70131159Y-67554999D01*
X70114551Y-67496114D01*
X70131159Y-67444999D01*
X70139515Y-67432495D01*
X70155500Y-67352133D01*
X70155499Y-67167700D01*
X70174406Y-67109510D01*
X70223906Y-67073546D01*
X70254499Y-67068700D01*
X72301012Y-67068700D01*
X72359203Y-67087607D01*
X72386747Y-67118198D01*
X72424400Y-67183414D01*
X72517586Y-67276600D01*
X72517588Y-67276601D01*
X72517590Y-67276603D01*
X72631710Y-67342490D01*
X72631708Y-67342490D01*
X72631712Y-67342491D01*
X72631714Y-67342492D01*
X72759008Y-67376600D01*
X72759010Y-67376600D01*
X72890790Y-67376600D01*
X72890792Y-67376600D01*
X73018086Y-67342492D01*
X73018088Y-67342490D01*
X73018090Y-67342490D01*
X73132209Y-67276603D01*
X73132209Y-67276602D01*
X73132214Y-67276600D01*
X73225400Y-67183414D01*
X73228126Y-67178693D01*
X73291290Y-67069290D01*
X73291290Y-67069288D01*
X73291292Y-67069286D01*
X73325400Y-66941992D01*
X73325400Y-66810208D01*
X73291292Y-66682914D01*
X73291290Y-66682911D01*
X73291290Y-66682909D01*
X73225403Y-66568790D01*
X73225401Y-66568788D01*
X73225400Y-66568786D01*
X73132214Y-66475600D01*
X73132211Y-66475598D01*
X73132209Y-66475596D01*
X73018089Y-66409709D01*
X73018091Y-66409709D01*
X72958328Y-66393696D01*
X72890792Y-66375600D01*
X72759008Y-66375600D01*
X72691472Y-66393696D01*
X72631709Y-66409709D01*
X72532418Y-66467036D01*
X72482918Y-66480300D01*
X70250638Y-66480300D01*
X70192447Y-66461393D01*
X70156483Y-66411893D01*
X70153541Y-66361984D01*
X70155499Y-66352140D01*
X70155499Y-66352137D01*
X70155500Y-66352133D01*
X70155499Y-66147868D01*
X70155498Y-66147865D01*
X70155498Y-66147860D01*
X70144748Y-66093811D01*
X70147691Y-66068950D01*
X70147691Y-66043906D01*
X70151232Y-66039030D01*
X70151941Y-66033050D01*
X70168934Y-66014667D01*
X70183655Y-65994406D01*
X70189385Y-65992544D01*
X70193474Y-65988121D01*
X70241846Y-65975499D01*
X70426679Y-65975499D01*
X70484870Y-65994406D01*
X70487476Y-65996632D01*
X70487540Y-65996550D01*
X70492690Y-66000502D01*
X70606810Y-66066389D01*
X70606808Y-66066389D01*
X70606812Y-66066390D01*
X70606814Y-66066391D01*
X70734108Y-66100499D01*
X70734110Y-66100499D01*
X70865890Y-66100499D01*
X70865892Y-66100499D01*
X70993186Y-66066391D01*
X70993188Y-66066389D01*
X70993190Y-66066389D01*
X71107309Y-66000502D01*
X71107309Y-66000501D01*
X71107314Y-66000499D01*
X71200500Y-65907313D01*
X71230994Y-65854496D01*
X71266390Y-65793189D01*
X71266390Y-65793187D01*
X71266392Y-65793185D01*
X71300500Y-65665891D01*
X71300500Y-65534107D01*
X71266392Y-65406813D01*
X71266390Y-65406810D01*
X71266390Y-65406808D01*
X71200503Y-65292689D01*
X71200501Y-65292687D01*
X71200500Y-65292685D01*
X71107314Y-65199499D01*
X71107311Y-65199497D01*
X71107309Y-65199495D01*
X70993189Y-65133608D01*
X70993191Y-65133608D01*
X70935540Y-65118161D01*
X70865892Y-65099499D01*
X70734108Y-65099499D01*
X70664460Y-65118161D01*
X70606809Y-65133608D01*
X70492690Y-65199495D01*
X70487540Y-65203448D01*
X70485726Y-65201085D01*
X70442166Y-65223280D01*
X70426679Y-65224499D01*
X70116188Y-65224499D01*
X70057997Y-65205592D01*
X70046185Y-65195503D01*
X70011484Y-65160803D01*
X70011483Y-65160802D01*
X70000828Y-65155593D01*
X69906395Y-65109427D01*
X69879139Y-65105456D01*
X69838260Y-65099500D01*
X68973953Y-65099500D01*
X68915762Y-65080593D01*
X68879798Y-65031093D01*
X68878333Y-65026147D01*
X68841281Y-64887865D01*
X68841279Y-64887862D01*
X68841279Y-64887860D01*
X68765518Y-64756639D01*
X68765516Y-64756637D01*
X68765515Y-64756635D01*
X68658365Y-64649485D01*
X68658362Y-64649483D01*
X68658360Y-64649481D01*
X68527138Y-64573720D01*
X68527140Y-64573720D01*
X68461398Y-64556105D01*
X68380766Y-64534500D01*
X68229234Y-64534500D01*
X68148602Y-64556105D01*
X68082860Y-64573720D01*
X67951639Y-64649481D01*
X67844481Y-64756639D01*
X67768720Y-64887860D01*
X67752476Y-64948486D01*
X67729500Y-65034234D01*
X63000500Y-65034234D01*
X63000500Y-63866740D01*
X75999500Y-63866740D01*
X75999500Y-64233260D01*
X76005458Y-64274151D01*
X76009427Y-64301395D01*
X76028672Y-64340760D01*
X76060802Y-64406483D01*
X76143517Y-64489198D01*
X76178899Y-64506495D01*
X76248604Y-64540572D01*
X76248605Y-64540572D01*
X76248607Y-64540573D01*
X76316740Y-64550500D01*
X76796608Y-64550500D01*
X77463880Y-64550500D01*
X77466304Y-64551287D01*
X77468763Y-64550621D01*
X77481131Y-64556105D01*
X77522071Y-64569407D01*
X77525951Y-64572375D01*
X77530105Y-64575718D01*
X77543786Y-64589399D01*
X77555526Y-64596177D01*
X77561475Y-64600965D01*
X77574237Y-64620488D01*
X77589843Y-64637819D01*
X77590662Y-64645615D01*
X77594953Y-64652179D01*
X77593802Y-64675476D01*
X77596241Y-64698669D01*
X77595031Y-64703712D01*
X77581208Y-64755300D01*
X77572900Y-64786308D01*
X77572900Y-64918092D01*
X77596320Y-65005496D01*
X77607009Y-65045389D01*
X77611043Y-65052376D01*
X77623762Y-65112225D01*
X77598874Y-65168120D01*
X77595310Y-65171876D01*
X77563098Y-65204088D01*
X77493963Y-65323833D01*
X77491736Y-65322547D01*
X77459130Y-65360717D01*
X77407412Y-65375300D01*
X77067719Y-65375300D01*
X76955682Y-65375300D01*
X76847463Y-65404297D01*
X76792140Y-65436237D01*
X76742642Y-65449500D01*
X76316740Y-65449500D01*
X76282673Y-65454463D01*
X76248604Y-65459427D01*
X76143518Y-65510801D01*
X76060801Y-65593518D01*
X76009427Y-65698604D01*
X76006181Y-65720886D01*
X75999500Y-65766740D01*
X75999500Y-66133260D01*
X76001629Y-66147870D01*
X76009427Y-66201395D01*
X76058268Y-66301300D01*
X76060802Y-66306483D01*
X76143517Y-66389198D01*
X76185267Y-66409608D01*
X76248604Y-66440572D01*
X76248605Y-66440572D01*
X76248607Y-66440573D01*
X76316740Y-66450500D01*
X76426678Y-66450500D01*
X76484869Y-66469407D01*
X76496682Y-66479496D01*
X77949582Y-67932396D01*
X77977359Y-67986913D01*
X77967788Y-68047345D01*
X77949582Y-68072404D01*
X77358196Y-68663790D01*
X77292309Y-68777909D01*
X77292308Y-68777914D01*
X77258200Y-68905208D01*
X77258200Y-69036992D01*
X77273625Y-69094559D01*
X77292309Y-69164290D01*
X77358196Y-69278409D01*
X77358198Y-69278411D01*
X77358200Y-69278414D01*
X77451386Y-69371600D01*
X77451388Y-69371601D01*
X77451390Y-69371603D01*
X77565510Y-69437490D01*
X77565508Y-69437490D01*
X77565512Y-69437491D01*
X77565514Y-69437492D01*
X77692808Y-69471600D01*
X77692810Y-69471600D01*
X77824590Y-69471600D01*
X77824592Y-69471600D01*
X77951886Y-69437492D01*
X77951888Y-69437490D01*
X77951890Y-69437490D01*
X78066009Y-69371603D01*
X78066009Y-69371602D01*
X78066014Y-69371600D01*
X78657399Y-68780214D01*
X78711912Y-68752440D01*
X78772344Y-68762011D01*
X78797403Y-68780217D01*
X80447182Y-70429996D01*
X80474959Y-70484513D01*
X80465388Y-70544945D01*
X80447182Y-70570004D01*
X77192686Y-73824500D01*
X77192685Y-73824499D01*
X77099500Y-73917685D01*
X77099496Y-73917690D01*
X77033609Y-74031809D01*
X77033608Y-74031814D01*
X76999500Y-74159108D01*
X76999500Y-77341740D01*
X76999500Y-78658260D01*
X77002012Y-78675500D01*
X77009427Y-78726395D01*
X77037339Y-78783489D01*
X77060802Y-78831483D01*
X77143517Y-78914198D01*
X77197285Y-78940483D01*
X77248604Y-78965572D01*
X77248605Y-78965572D01*
X77248607Y-78965573D01*
X77316740Y-78975500D01*
X77316743Y-78975500D01*
X77683257Y-78975500D01*
X77683260Y-78975500D01*
X77751393Y-78965573D01*
X77856483Y-78914198D01*
X77930351Y-78840329D01*
X77984866Y-78812554D01*
X78045298Y-78822125D01*
X78070357Y-78840331D01*
X78143812Y-78913786D01*
X78248751Y-78965087D01*
X78316783Y-78974999D01*
X78374999Y-78974998D01*
X78375000Y-78974998D01*
X78375000Y-78125001D01*
X78625000Y-78125001D01*
X78625000Y-78974998D01*
X78625001Y-78974999D01*
X78683213Y-78974999D01*
X78683216Y-78974998D01*
X78751250Y-78965087D01*
X78856188Y-78913785D01*
X78938786Y-78831187D01*
X78990087Y-78726248D01*
X79000000Y-78658215D01*
X79000000Y-78125001D01*
X78999999Y-78125000D01*
X78625001Y-78125000D01*
X78625000Y-78125001D01*
X78375000Y-78125001D01*
X78375000Y-77025001D01*
X78625000Y-77025001D01*
X78625000Y-77874999D01*
X78625001Y-77875000D01*
X78999998Y-77875000D01*
X78999999Y-77874999D01*
X78999999Y-77341786D01*
X78999998Y-77341783D01*
X78990087Y-77273749D01*
X78938785Y-77168811D01*
X78856187Y-77086213D01*
X78751248Y-77034912D01*
X78683216Y-77025000D01*
X78625001Y-77025000D01*
X78625000Y-77025001D01*
X78375000Y-77025001D01*
X78375000Y-77024999D01*
X78316786Y-77025000D01*
X78316782Y-77025001D01*
X78248749Y-77034912D01*
X78142981Y-77086620D01*
X78082398Y-77095191D01*
X78028349Y-77066516D01*
X78001476Y-77011547D01*
X78000500Y-76997679D01*
X78000500Y-74716512D01*
X82074500Y-74716512D01*
X82074500Y-75283488D01*
X82087551Y-75365892D01*
X82090281Y-75383125D01*
X82090283Y-75383132D01*
X82151470Y-75503217D01*
X82151472Y-75503220D01*
X82246780Y-75598528D01*
X82246782Y-75598529D01*
X82366867Y-75659716D01*
X82366869Y-75659716D01*
X82366874Y-75659719D01*
X82442541Y-75671703D01*
X82466510Y-75675500D01*
X82466512Y-75675500D01*
X82899165Y-75675500D01*
X82957356Y-75694407D01*
X82969169Y-75704496D01*
X85324938Y-78060265D01*
X85324940Y-78060266D01*
X85324941Y-78060267D01*
X85324942Y-78060268D01*
X85399157Y-78103116D01*
X85399155Y-78103116D01*
X85399159Y-78103117D01*
X85399161Y-78103118D01*
X85481947Y-78125300D01*
X85984400Y-78125300D01*
X86042591Y-78144207D01*
X86078555Y-78193707D01*
X86083400Y-78224300D01*
X86083400Y-78675500D01*
X86064493Y-78733691D01*
X86014993Y-78769655D01*
X85984400Y-78774500D01*
X84499500Y-78774500D01*
X84441309Y-78755593D01*
X84405345Y-78706093D01*
X84400500Y-78675500D01*
X84400500Y-78580253D01*
X84400498Y-78580241D01*
X84393398Y-78544548D01*
X84388867Y-78521769D01*
X84344552Y-78455448D01*
X84344548Y-78455445D01*
X84278233Y-78411134D01*
X84278231Y-78411133D01*
X84278228Y-78411132D01*
X84278227Y-78411132D01*
X84219758Y-78399501D01*
X84219748Y-78399500D01*
X82480252Y-78399500D01*
X82480251Y-78399500D01*
X82480241Y-78399501D01*
X82421772Y-78411132D01*
X82421766Y-78411134D01*
X82355451Y-78455445D01*
X82355445Y-78455451D01*
X82311134Y-78521766D01*
X82311132Y-78521772D01*
X82299501Y-78580241D01*
X82299500Y-78580253D01*
X82299500Y-79619746D01*
X82299501Y-79619758D01*
X82311132Y-79678227D01*
X82311134Y-79678233D01*
X82355445Y-79744548D01*
X82355448Y-79744552D01*
X82421769Y-79788867D01*
X82466231Y-79797711D01*
X82480241Y-79800498D01*
X82480246Y-79800498D01*
X82480252Y-79800500D01*
X82480253Y-79800500D01*
X84219747Y-79800500D01*
X84219748Y-79800500D01*
X84278231Y-79788867D01*
X84344552Y-79744552D01*
X84388867Y-79678231D01*
X84400500Y-79619748D01*
X84400500Y-79524500D01*
X84419407Y-79466309D01*
X84468907Y-79430345D01*
X84499500Y-79425500D01*
X86366047Y-79425500D01*
X86451753Y-79425500D01*
X88500500Y-79425500D01*
X88558691Y-79444407D01*
X88594655Y-79493907D01*
X88599500Y-79524500D01*
X88599500Y-79619746D01*
X88599501Y-79619758D01*
X88611132Y-79678227D01*
X88611134Y-79678233D01*
X88655445Y-79744548D01*
X88655448Y-79744552D01*
X88721769Y-79788867D01*
X88766231Y-79797711D01*
X88780241Y-79800498D01*
X88780246Y-79800498D01*
X88780252Y-79800500D01*
X88780253Y-79800500D01*
X90519747Y-79800500D01*
X90519748Y-79800500D01*
X90578231Y-79788867D01*
X90644552Y-79744552D01*
X90688867Y-79678231D01*
X90700500Y-79619748D01*
X90700500Y-78580252D01*
X90688867Y-78521769D01*
X90644552Y-78455448D01*
X90644548Y-78455445D01*
X90578233Y-78411134D01*
X90578231Y-78411133D01*
X90578228Y-78411132D01*
X90578227Y-78411132D01*
X90519758Y-78399501D01*
X90519748Y-78399500D01*
X88780252Y-78399500D01*
X88780251Y-78399500D01*
X88780241Y-78399501D01*
X88721772Y-78411132D01*
X88721766Y-78411134D01*
X88655451Y-78455445D01*
X88655445Y-78455451D01*
X88611134Y-78521766D01*
X88611132Y-78521772D01*
X88599501Y-78580241D01*
X88599500Y-78580253D01*
X88599500Y-78675500D01*
X88580593Y-78733691D01*
X88531093Y-78769655D01*
X88500500Y-78774500D01*
X86833400Y-78774500D01*
X86775209Y-78755593D01*
X86739245Y-78706093D01*
X86734400Y-78675500D01*
X86734400Y-78223121D01*
X86753307Y-78164930D01*
X86763390Y-78153123D01*
X86809400Y-78107114D01*
X86836447Y-78060267D01*
X86875290Y-77992990D01*
X86875290Y-77992988D01*
X86875292Y-77992986D01*
X86909400Y-77865692D01*
X86909400Y-77733908D01*
X86875292Y-77606614D01*
X86875290Y-77606611D01*
X86875290Y-77606609D01*
X86809403Y-77492490D01*
X86809401Y-77492488D01*
X86809400Y-77492486D01*
X86716214Y-77399300D01*
X86716211Y-77399298D01*
X86716209Y-77399296D01*
X86602089Y-77333409D01*
X86602091Y-77333409D01*
X86552699Y-77320175D01*
X86474792Y-77299300D01*
X86343008Y-77299300D01*
X86265100Y-77320175D01*
X86215709Y-77333409D01*
X86101590Y-77399296D01*
X86101584Y-77399300D01*
X86055581Y-77445304D01*
X86001064Y-77473081D01*
X85985578Y-77474300D01*
X85700635Y-77474300D01*
X85642444Y-77455393D01*
X85630631Y-77445304D01*
X84029330Y-75844003D01*
X84001553Y-75789486D01*
X84011124Y-75729054D01*
X84054389Y-75685789D01*
X84099334Y-75674999D01*
X84150000Y-75674999D01*
X84150000Y-75125001D01*
X84400000Y-75125001D01*
X84400000Y-75674998D01*
X84400001Y-75674999D01*
X84533453Y-75674999D01*
X84632965Y-75659239D01*
X84632969Y-75659237D01*
X84752921Y-75598118D01*
X84757562Y-75593477D01*
X85824500Y-75593477D01*
X85824500Y-76056520D01*
X85824501Y-76056523D01*
X85839352Y-76150299D01*
X85839354Y-76150304D01*
X85896950Y-76263342D01*
X85986658Y-76353050D01*
X86099696Y-76410646D01*
X86193481Y-76425500D01*
X86806518Y-76425499D01*
X86806520Y-76425499D01*
X86806521Y-76425498D01*
X86853411Y-76418072D01*
X86900299Y-76410647D01*
X86900299Y-76410646D01*
X86900304Y-76410646D01*
X87013342Y-76353050D01*
X87103050Y-76263342D01*
X87103051Y-76263339D01*
X87108559Y-76257832D01*
X87110242Y-76259515D01*
X87150399Y-76230344D01*
X87180987Y-76225500D01*
X90934400Y-76225500D01*
X90992591Y-76244407D01*
X91028555Y-76293907D01*
X91033400Y-76324500D01*
X91033400Y-80606173D01*
X91033400Y-80711627D01*
X91050381Y-80775001D01*
X91060694Y-80813492D01*
X91113416Y-80904808D01*
X91113418Y-80904810D01*
X91113420Y-80904813D01*
X91795505Y-81586898D01*
X91823281Y-81641413D01*
X91824500Y-81656900D01*
X91824500Y-81983489D01*
X91840281Y-82083125D01*
X91840283Y-82083132D01*
X91901470Y-82203217D01*
X91901472Y-82203220D01*
X91996780Y-82298528D01*
X91996782Y-82298529D01*
X92116867Y-82359716D01*
X92116869Y-82359716D01*
X92116874Y-82359719D01*
X92192541Y-82371703D01*
X92216510Y-82375500D01*
X92216512Y-82375500D01*
X92783490Y-82375500D01*
X92804885Y-82372111D01*
X92883126Y-82359719D01*
X93003220Y-82298528D01*
X93098528Y-82203220D01*
X93159719Y-82083126D01*
X93167519Y-82033879D01*
X93195297Y-81979362D01*
X93249813Y-81951585D01*
X93310245Y-81961157D01*
X93353510Y-82004421D01*
X93364300Y-82049366D01*
X93364300Y-82561747D01*
X93364300Y-82647453D01*
X93378884Y-82701881D01*
X93386483Y-82730243D01*
X93429331Y-82804457D01*
X93429333Y-82804459D01*
X93429335Y-82804462D01*
X94324733Y-83699859D01*
X94324735Y-83699862D01*
X94385338Y-83760465D01*
X94385340Y-83760466D01*
X94385378Y-83760504D01*
X94413155Y-83815021D01*
X94405372Y-83871756D01*
X94399889Y-83883718D01*
X94396950Y-83886658D01*
X94339354Y-83999696D01*
X94335456Y-84024303D01*
X94329799Y-84036648D01*
X94317829Y-84049654D01*
X94309806Y-84065402D01*
X94297625Y-84071608D01*
X94288366Y-84081670D01*
X94271037Y-84085156D01*
X94255290Y-84093181D01*
X94239801Y-84094400D01*
X92931933Y-84094400D01*
X92873742Y-84075493D01*
X92837778Y-84025993D01*
X92837778Y-83964807D01*
X92873742Y-83915307D01*
X92886987Y-83907191D01*
X93002921Y-83848118D01*
X93098118Y-83752921D01*
X93159237Y-83632969D01*
X93175000Y-83533453D01*
X93175000Y-83400001D01*
X93174999Y-83400000D01*
X91825002Y-83400000D01*
X91825001Y-83400001D01*
X91825001Y-83533453D01*
X91825000Y-83533453D01*
X91840760Y-83632965D01*
X91840762Y-83632969D01*
X91901881Y-83752921D01*
X91997078Y-83848118D01*
X92113013Y-83907191D01*
X92156277Y-83950456D01*
X92165848Y-84010888D01*
X92138070Y-84065404D01*
X92083553Y-84093181D01*
X92068067Y-84094400D01*
X91824022Y-84094400D01*
X91765831Y-84075493D01*
X91754019Y-84065404D01*
X91708015Y-84019400D01*
X91708009Y-84019396D01*
X91593889Y-83953509D01*
X91593891Y-83953509D01*
X91544499Y-83940275D01*
X91466592Y-83919400D01*
X91334808Y-83919400D01*
X91256900Y-83940275D01*
X91207509Y-83953509D01*
X91093390Y-84019396D01*
X91000196Y-84112590D01*
X90934309Y-84226709D01*
X90917136Y-84290800D01*
X90900200Y-84354008D01*
X90900200Y-84485792D01*
X90919152Y-84556521D01*
X90934309Y-84613090D01*
X91000196Y-84727209D01*
X91000198Y-84727211D01*
X91000200Y-84727214D01*
X91093386Y-84820400D01*
X91093388Y-84820401D01*
X91093390Y-84820403D01*
X91207510Y-84886290D01*
X91207508Y-84886290D01*
X91207512Y-84886291D01*
X91207514Y-84886292D01*
X91334808Y-84920400D01*
X91334810Y-84920400D01*
X91466590Y-84920400D01*
X91466592Y-84920400D01*
X91593886Y-84886292D01*
X91593888Y-84886290D01*
X91593890Y-84886290D01*
X91708009Y-84820403D01*
X91708010Y-84820402D01*
X91708014Y-84820400D01*
X91724063Y-84804351D01*
X91754019Y-84774396D01*
X91808536Y-84746619D01*
X91824022Y-84745400D01*
X94338001Y-84745400D01*
X94396192Y-84764307D01*
X94407998Y-84774390D01*
X94486658Y-84853050D01*
X94599696Y-84910646D01*
X94693481Y-84925500D01*
X95099164Y-84925499D01*
X95157355Y-84944406D01*
X95169167Y-84954495D01*
X95545837Y-85331164D01*
X95545842Y-85331168D01*
X95620057Y-85374016D01*
X95620055Y-85374016D01*
X95620059Y-85374017D01*
X95620061Y-85374018D01*
X95702847Y-85396200D01*
X95702849Y-85396200D01*
X97588151Y-85396200D01*
X97588153Y-85396200D01*
X97670939Y-85374018D01*
X97670941Y-85374016D01*
X97670943Y-85374016D01*
X97745157Y-85331168D01*
X97745157Y-85331167D01*
X97745162Y-85331165D01*
X98054360Y-85021966D01*
X98054362Y-85021965D01*
X98114965Y-84961362D01*
X98144781Y-84909719D01*
X98157818Y-84887139D01*
X98180000Y-84804353D01*
X98180000Y-84718647D01*
X98180000Y-83824408D01*
X99469800Y-83824408D01*
X99469800Y-83956192D01*
X99488503Y-84025993D01*
X99503909Y-84083490D01*
X99569796Y-84197609D01*
X99569798Y-84197611D01*
X99569800Y-84197614D01*
X99662986Y-84290800D01*
X99662988Y-84290801D01*
X99662990Y-84290803D01*
X99777110Y-84356690D01*
X99777108Y-84356690D01*
X99777112Y-84356691D01*
X99777114Y-84356692D01*
X99904408Y-84390800D01*
X99904410Y-84390800D01*
X100036190Y-84390800D01*
X100036192Y-84390800D01*
X100163486Y-84356692D01*
X100175999Y-84349467D01*
X100235845Y-84336745D01*
X100291741Y-84361629D01*
X100322336Y-84414616D01*
X100324500Y-84435202D01*
X100324500Y-84556520D01*
X100324501Y-84556523D01*
X100339352Y-84650299D01*
X100339354Y-84650304D01*
X100396950Y-84763342D01*
X100486658Y-84853050D01*
X100599696Y-84910646D01*
X100693481Y-84925500D01*
X101306518Y-84925499D01*
X101306520Y-84925499D01*
X101306521Y-84925498D01*
X101353411Y-84918072D01*
X101400299Y-84910647D01*
X101400299Y-84910646D01*
X101400304Y-84910646D01*
X101513342Y-84853050D01*
X101603050Y-84763342D01*
X101621461Y-84727209D01*
X101633004Y-84704555D01*
X101676268Y-84661290D01*
X101721213Y-84650500D01*
X102778787Y-84650500D01*
X102836978Y-84669407D01*
X102866996Y-84704555D01*
X102891792Y-84753220D01*
X102896950Y-84763342D01*
X102986658Y-84853050D01*
X103099696Y-84910646D01*
X103193481Y-84925500D01*
X103806518Y-84925499D01*
X103806520Y-84925499D01*
X103806521Y-84925498D01*
X103853411Y-84918072D01*
X103900299Y-84910647D01*
X103900299Y-84910646D01*
X103900304Y-84910646D01*
X104013342Y-84853050D01*
X104103050Y-84763342D01*
X104121461Y-84727209D01*
X104133004Y-84704555D01*
X104176268Y-84661290D01*
X104221213Y-84650500D01*
X104788466Y-84650500D01*
X104846657Y-84669407D01*
X104876676Y-84704555D01*
X104898108Y-84746619D01*
X104901472Y-84753220D01*
X104996780Y-84848528D01*
X104996782Y-84848529D01*
X105116867Y-84909716D01*
X105116869Y-84909716D01*
X105116874Y-84909719D01*
X105184312Y-84920400D01*
X105216510Y-84925500D01*
X105216512Y-84925500D01*
X105783490Y-84925500D01*
X105804885Y-84922111D01*
X105883126Y-84909719D01*
X106003220Y-84848528D01*
X106098528Y-84753220D01*
X106159719Y-84633126D01*
X106175500Y-84533488D01*
X106175500Y-84016512D01*
X106159719Y-83916874D01*
X106159716Y-83916869D01*
X106159716Y-83916867D01*
X106098529Y-83796782D01*
X106098528Y-83796780D01*
X106003220Y-83701472D01*
X106003217Y-83701470D01*
X105883132Y-83640283D01*
X105883127Y-83640281D01*
X105883126Y-83640281D01*
X105836960Y-83632969D01*
X105783490Y-83624500D01*
X105783488Y-83624500D01*
X105216512Y-83624500D01*
X105216510Y-83624500D01*
X105116874Y-83640281D01*
X105116867Y-83640283D01*
X104996782Y-83701470D01*
X104901470Y-83796782D01*
X104840282Y-83916870D01*
X104837874Y-83924282D01*
X104836432Y-83923813D01*
X104812649Y-83970499D01*
X104758134Y-83998280D01*
X104742641Y-83999500D01*
X104221213Y-83999500D01*
X104163022Y-83980593D01*
X104133004Y-83945445D01*
X104103051Y-83886660D01*
X104103050Y-83886658D01*
X104013342Y-83796950D01*
X103900304Y-83739354D01*
X103900305Y-83739354D01*
X103806522Y-83724500D01*
X103193479Y-83724500D01*
X103193476Y-83724501D01*
X103099700Y-83739352D01*
X103099695Y-83739354D01*
X102986659Y-83796949D01*
X102896948Y-83886660D01*
X102866996Y-83945445D01*
X102823732Y-83988710D01*
X102778787Y-83999500D01*
X101721213Y-83999500D01*
X101663022Y-83980593D01*
X101633004Y-83945445D01*
X101603051Y-83886660D01*
X101603050Y-83886658D01*
X101513342Y-83796950D01*
X101400304Y-83739354D01*
X101400305Y-83739354D01*
X101306522Y-83724500D01*
X101306519Y-83724500D01*
X100900835Y-83724500D01*
X100842644Y-83705593D01*
X100830832Y-83695504D01*
X100765162Y-83629835D01*
X100765157Y-83629831D01*
X100690942Y-83586983D01*
X100690944Y-83586983D01*
X100658821Y-83578376D01*
X100608153Y-83564800D01*
X100608151Y-83564800D01*
X100393622Y-83564800D01*
X100335431Y-83545893D01*
X100323619Y-83535804D01*
X100277615Y-83489800D01*
X100277609Y-83489796D01*
X100163489Y-83423909D01*
X100163491Y-83423909D01*
X100114099Y-83410675D01*
X100036192Y-83389800D01*
X99904408Y-83389800D01*
X99826500Y-83410675D01*
X99777109Y-83423909D01*
X99662990Y-83489796D01*
X99569796Y-83582990D01*
X99503909Y-83697109D01*
X99502741Y-83701470D01*
X99469800Y-83824408D01*
X98180000Y-83824408D01*
X98180000Y-81922247D01*
X98157818Y-81839462D01*
X98114965Y-81765238D01*
X98087071Y-81737344D01*
X98054362Y-81704634D01*
X98054362Y-81704635D01*
X97930296Y-81580569D01*
X97902519Y-81526052D01*
X97901300Y-81510565D01*
X97901300Y-80676734D01*
X97920207Y-80618543D01*
X97930290Y-80606736D01*
X98010465Y-80526562D01*
X98015126Y-80518489D01*
X98053316Y-80452343D01*
X98053316Y-80452341D01*
X98053318Y-80452339D01*
X98075500Y-80369553D01*
X98075500Y-80283847D01*
X98075500Y-80128268D01*
X98081057Y-80111163D01*
X98081919Y-80093200D01*
X98085737Y-80085786D01*
X98088863Y-80078235D01*
X98088867Y-80078231D01*
X98100500Y-80019748D01*
X98100500Y-79530253D01*
X98399500Y-79530253D01*
X98399500Y-80019748D01*
X98411133Y-80078231D01*
X98412812Y-80080743D01*
X98414558Y-80086500D01*
X98414865Y-80087240D01*
X98414792Y-80087270D01*
X98417796Y-80097172D01*
X98426012Y-80109701D01*
X98425409Y-80122265D01*
X98429500Y-80135749D01*
X98429500Y-80279505D01*
X98429500Y-80363895D01*
X98432546Y-80375262D01*
X98451342Y-80445412D01*
X98493534Y-80518489D01*
X98493536Y-80518492D01*
X98553208Y-80578164D01*
X98553210Y-80578165D01*
X98626287Y-80620357D01*
X98626288Y-80620357D01*
X98626291Y-80620359D01*
X98707805Y-80642200D01*
X99122945Y-80642200D01*
X99181136Y-80661107D01*
X99192945Y-80671193D01*
X100378090Y-81856260D01*
X100413654Y-81891821D01*
X100436307Y-81926953D01*
X100438021Y-81931509D01*
X100459693Y-82012388D01*
X100484888Y-82056027D01*
X100487750Y-82063630D01*
X100488797Y-82086476D01*
X100493554Y-82108853D01*
X100490172Y-82116448D01*
X100490553Y-82124752D01*
X100477970Y-82143853D01*
X100468667Y-82164748D01*
X100465100Y-82168507D01*
X100396951Y-82236656D01*
X100396950Y-82236658D01*
X100339354Y-82349695D01*
X100324500Y-82443477D01*
X100324500Y-82906520D01*
X100324501Y-82906523D01*
X100339352Y-83000299D01*
X100339354Y-83000304D01*
X100396950Y-83113342D01*
X100486658Y-83203050D01*
X100599696Y-83260646D01*
X100693481Y-83275500D01*
X101306518Y-83275499D01*
X101306520Y-83275499D01*
X101306521Y-83275498D01*
X101353411Y-83268072D01*
X101400299Y-83260647D01*
X101400299Y-83260646D01*
X101400304Y-83260646D01*
X101513342Y-83203050D01*
X101603050Y-83113342D01*
X101660646Y-83000304D01*
X101673835Y-82917030D01*
X101675500Y-82906521D01*
X101675500Y-82800001D01*
X102825001Y-82800001D01*
X102825001Y-82906485D01*
X102839833Y-83000141D01*
X102839836Y-83000151D01*
X102897358Y-83113043D01*
X102986956Y-83202641D01*
X103099848Y-83260163D01*
X103099852Y-83260164D01*
X103193515Y-83274999D01*
X103375000Y-83274999D01*
X103375000Y-82800001D01*
X103625000Y-82800001D01*
X103625000Y-83274998D01*
X103625001Y-83274999D01*
X103806483Y-83274999D01*
X103806485Y-83274998D01*
X103900141Y-83260166D01*
X103900151Y-83260163D01*
X104013043Y-83202641D01*
X104102641Y-83113043D01*
X104160163Y-83000151D01*
X104160164Y-83000147D01*
X104162808Y-82983453D01*
X104825000Y-82983453D01*
X104840760Y-83082965D01*
X104840762Y-83082969D01*
X104901881Y-83202921D01*
X104997078Y-83298118D01*
X105117030Y-83359237D01*
X105117029Y-83359237D01*
X105216545Y-83374999D01*
X105375000Y-83374999D01*
X105375000Y-82850001D01*
X105625000Y-82850001D01*
X105625000Y-83374998D01*
X105625001Y-83374999D01*
X105783453Y-83374999D01*
X105882965Y-83359239D01*
X105882969Y-83359237D01*
X106002921Y-83298118D01*
X106098118Y-83202921D01*
X106159237Y-83082969D01*
X106168419Y-83025001D01*
X107300000Y-83025001D01*
X107300000Y-83419700D01*
X107311603Y-83478036D01*
X107355806Y-83544189D01*
X107355810Y-83544193D01*
X107421963Y-83588396D01*
X107480299Y-83599999D01*
X107480303Y-83600000D01*
X108224999Y-83600000D01*
X108225000Y-83599999D01*
X108225000Y-83025001D01*
X108475000Y-83025001D01*
X108475000Y-83599999D01*
X108475001Y-83600000D01*
X109219697Y-83600000D01*
X109219700Y-83599999D01*
X109278036Y-83588396D01*
X109344189Y-83544193D01*
X109344193Y-83544189D01*
X109388396Y-83478036D01*
X109399999Y-83419700D01*
X109400000Y-83419697D01*
X109400000Y-83025001D01*
X113600000Y-83025001D01*
X113600000Y-83419700D01*
X113611603Y-83478036D01*
X113655806Y-83544189D01*
X113655810Y-83544193D01*
X113721963Y-83588396D01*
X113780299Y-83599999D01*
X113780303Y-83600000D01*
X114524999Y-83600000D01*
X114525000Y-83599999D01*
X114525000Y-83025001D01*
X114775000Y-83025001D01*
X114775000Y-83599999D01*
X114775001Y-83600000D01*
X115519697Y-83600000D01*
X115519700Y-83599999D01*
X115578036Y-83588396D01*
X115644189Y-83544193D01*
X115644193Y-83544189D01*
X115688396Y-83478036D01*
X115699999Y-83419700D01*
X115700000Y-83419697D01*
X115700000Y-83025001D01*
X115699999Y-83025000D01*
X114775001Y-83025000D01*
X114775000Y-83025001D01*
X114525000Y-83025001D01*
X114524999Y-83025000D01*
X113600001Y-83025000D01*
X113600000Y-83025001D01*
X109400000Y-83025001D01*
X109399999Y-83025000D01*
X108475001Y-83025000D01*
X108475000Y-83025001D01*
X108225000Y-83025001D01*
X108224999Y-83025000D01*
X107300001Y-83025000D01*
X107300000Y-83025001D01*
X106168419Y-83025001D01*
X106175000Y-82983453D01*
X106175000Y-82850001D01*
X106174999Y-82850000D01*
X105625001Y-82850000D01*
X105625000Y-82850001D01*
X105375000Y-82850001D01*
X105374999Y-82850000D01*
X104825002Y-82850000D01*
X104825001Y-82850001D01*
X104825001Y-82983453D01*
X104825000Y-82983453D01*
X104162808Y-82983453D01*
X104175000Y-82906484D01*
X104175000Y-82800001D01*
X104174999Y-82800000D01*
X103625001Y-82800000D01*
X103625000Y-82800001D01*
X103375000Y-82800001D01*
X103374999Y-82800000D01*
X102825002Y-82800000D01*
X102825001Y-82800001D01*
X101675500Y-82800001D01*
X101675500Y-82758993D01*
X101675499Y-82443515D01*
X102825000Y-82443515D01*
X102825000Y-82549999D01*
X102825001Y-82550000D01*
X103374999Y-82550000D01*
X103375000Y-82549999D01*
X103375000Y-82075001D01*
X103625000Y-82075001D01*
X103625000Y-82549999D01*
X103625001Y-82550000D01*
X104174998Y-82550000D01*
X104174999Y-82549999D01*
X104174999Y-82466546D01*
X104825000Y-82466546D01*
X104825000Y-82599999D01*
X104825001Y-82600000D01*
X105374999Y-82600000D01*
X105375000Y-82599999D01*
X105375000Y-82075001D01*
X105625000Y-82075001D01*
X105625000Y-82599999D01*
X105625001Y-82600000D01*
X106174998Y-82600000D01*
X106174999Y-82599999D01*
X106174999Y-82466546D01*
X106174998Y-82466544D01*
X106163023Y-82390924D01*
X106161340Y-82380299D01*
X107300000Y-82380299D01*
X107300000Y-82774999D01*
X107300001Y-82775000D01*
X108224999Y-82775000D01*
X108225000Y-82774999D01*
X108225000Y-82200001D01*
X108475000Y-82200001D01*
X108475000Y-82774999D01*
X108475001Y-82775000D01*
X109399999Y-82775000D01*
X109400000Y-82774999D01*
X109400000Y-82380302D01*
X109399999Y-82380299D01*
X113600000Y-82380299D01*
X113600000Y-82774999D01*
X113600001Y-82775000D01*
X114524999Y-82775000D01*
X114525000Y-82774999D01*
X114525000Y-82200001D01*
X114775000Y-82200001D01*
X114775000Y-82774999D01*
X114775001Y-82775000D01*
X115699999Y-82775000D01*
X115700000Y-82774999D01*
X115700000Y-82380302D01*
X115699999Y-82380299D01*
X115688396Y-82321963D01*
X115644193Y-82255810D01*
X115644189Y-82255806D01*
X115578036Y-82211603D01*
X115519700Y-82200000D01*
X114775001Y-82200000D01*
X114775000Y-82200001D01*
X114525000Y-82200001D01*
X114524999Y-82200000D01*
X113780299Y-82200000D01*
X113721963Y-82211603D01*
X113655810Y-82255806D01*
X113655806Y-82255810D01*
X113611603Y-82321963D01*
X113600000Y-82380299D01*
X109399999Y-82380299D01*
X109388396Y-82321963D01*
X109344193Y-82255810D01*
X109344189Y-82255806D01*
X109278036Y-82211603D01*
X109219700Y-82200000D01*
X108475001Y-82200000D01*
X108475000Y-82200001D01*
X108225000Y-82200001D01*
X108224999Y-82200000D01*
X107480299Y-82200000D01*
X107421963Y-82211603D01*
X107355810Y-82255806D01*
X107355806Y-82255810D01*
X107311603Y-82321963D01*
X107300000Y-82380299D01*
X106161340Y-82380299D01*
X106159239Y-82367034D01*
X106159237Y-82367030D01*
X106098118Y-82247078D01*
X106002921Y-82151881D01*
X105882969Y-82090762D01*
X105882970Y-82090762D01*
X105783454Y-82075000D01*
X105625001Y-82075000D01*
X105625000Y-82075001D01*
X105375000Y-82075001D01*
X105374999Y-82075000D01*
X105216547Y-82075000D01*
X105216546Y-82075001D01*
X105117034Y-82090760D01*
X105117030Y-82090762D01*
X104997078Y-82151881D01*
X104901881Y-82247078D01*
X104840762Y-82367030D01*
X104825000Y-82466546D01*
X104174999Y-82466546D01*
X104174999Y-82443516D01*
X104174998Y-82443514D01*
X104160166Y-82349858D01*
X104160163Y-82349848D01*
X104102641Y-82236956D01*
X104013043Y-82147358D01*
X103900151Y-82089836D01*
X103900147Y-82089835D01*
X103806484Y-82075000D01*
X103625001Y-82075000D01*
X103625000Y-82075001D01*
X103375000Y-82075001D01*
X103374999Y-82075000D01*
X103193517Y-82075000D01*
X103193514Y-82075001D01*
X103099858Y-82089833D01*
X103099848Y-82089836D01*
X102986956Y-82147358D01*
X102897358Y-82236956D01*
X102839836Y-82349848D01*
X102839835Y-82349852D01*
X102825000Y-82443515D01*
X101675499Y-82443515D01*
X101675499Y-82443479D01*
X101675498Y-82443476D01*
X101660647Y-82349700D01*
X101660646Y-82349698D01*
X101660646Y-82349696D01*
X101603050Y-82236658D01*
X101513342Y-82146950D01*
X101513339Y-82146948D01*
X101454554Y-82116995D01*
X101441860Y-82104300D01*
X101426266Y-82095403D01*
X101422042Y-82084482D01*
X101411290Y-82073730D01*
X101401096Y-82039634D01*
X101400500Y-82034227D01*
X101400500Y-81972273D01*
X101388895Y-81928965D01*
X101388070Y-81921473D01*
X101392823Y-81898535D01*
X101394050Y-81875146D01*
X101399369Y-81866955D01*
X101400487Y-81861561D01*
X101406313Y-81856260D01*
X101416468Y-81840623D01*
X101885736Y-81371355D01*
X101930113Y-81345734D01*
X102031786Y-81318492D01*
X102122941Y-81265863D01*
X102172440Y-81252600D01*
X116925625Y-81252600D01*
X116925627Y-81252600D01*
X117027488Y-81225307D01*
X117027490Y-81225305D01*
X117027492Y-81225305D01*
X117118808Y-81172583D01*
X117118808Y-81172582D01*
X117118813Y-81172580D01*
X119086896Y-79204495D01*
X119141413Y-79176719D01*
X119156900Y-79175500D01*
X119483490Y-79175500D01*
X119504885Y-79172111D01*
X119583126Y-79159719D01*
X119703220Y-79098528D01*
X119798528Y-79003220D01*
X119859719Y-78883126D01*
X119875500Y-78783488D01*
X119875500Y-78783453D01*
X120125000Y-78783453D01*
X120140760Y-78882965D01*
X120140762Y-78882969D01*
X120201881Y-79002921D01*
X120297078Y-79098118D01*
X120417030Y-79159237D01*
X120417029Y-79159237D01*
X120516545Y-79174999D01*
X120650000Y-79174999D01*
X120650000Y-78625001D01*
X120900000Y-78625001D01*
X120900000Y-79174998D01*
X120900001Y-79174999D01*
X121033453Y-79174999D01*
X121132965Y-79159239D01*
X121132969Y-79159237D01*
X121252921Y-79098118D01*
X121348118Y-79002921D01*
X121409237Y-78882969D01*
X121425000Y-78783453D01*
X121425000Y-78625001D01*
X121424999Y-78625000D01*
X120900001Y-78625000D01*
X120900000Y-78625001D01*
X120650000Y-78625001D01*
X120649999Y-78625000D01*
X120125002Y-78625000D01*
X120125001Y-78625001D01*
X120125001Y-78783453D01*
X120125000Y-78783453D01*
X119875500Y-78783453D01*
X119875500Y-78216546D01*
X120125000Y-78216546D01*
X120125000Y-78374999D01*
X120125001Y-78375000D01*
X120649999Y-78375000D01*
X120650000Y-78374999D01*
X120650000Y-77825001D01*
X120900000Y-77825001D01*
X120900000Y-78374999D01*
X120900001Y-78375000D01*
X121424998Y-78375000D01*
X121424999Y-78374999D01*
X121424999Y-78216546D01*
X121409239Y-78117034D01*
X121409237Y-78117030D01*
X121348118Y-77997078D01*
X121252921Y-77901881D01*
X121132969Y-77840762D01*
X121132970Y-77840762D01*
X121033454Y-77825000D01*
X120900001Y-77825000D01*
X120900000Y-77825001D01*
X120650000Y-77825001D01*
X120649999Y-77825000D01*
X120516547Y-77825000D01*
X120516546Y-77825001D01*
X120417034Y-77840760D01*
X120417030Y-77840762D01*
X120297078Y-77901881D01*
X120201881Y-77997078D01*
X120140762Y-78117030D01*
X120125000Y-78216546D01*
X119875500Y-78216546D01*
X119875500Y-78216512D01*
X119859719Y-78116874D01*
X119859716Y-78116869D01*
X119859716Y-78116867D01*
X119798529Y-77996782D01*
X119798528Y-77996780D01*
X119703220Y-77901472D01*
X119703217Y-77901470D01*
X119679554Y-77889413D01*
X119636290Y-77846148D01*
X119625500Y-77801204D01*
X119625500Y-75873974D01*
X119625500Y-75873973D01*
X119598207Y-75772113D01*
X119598207Y-75772112D01*
X119566659Y-75717469D01*
X119545483Y-75680791D01*
X119545479Y-75680786D01*
X119234197Y-75369503D01*
X119206420Y-75314987D01*
X119215991Y-75254555D01*
X119259256Y-75211290D01*
X119304201Y-75200500D01*
X119469747Y-75200500D01*
X119469748Y-75200500D01*
X119528231Y-75188867D01*
X119594552Y-75144552D01*
X119594553Y-75144549D01*
X119594997Y-75144253D01*
X119653885Y-75127644D01*
X119705003Y-75144253D01*
X119705446Y-75144549D01*
X119705448Y-75144552D01*
X119771769Y-75188867D01*
X119816231Y-75197711D01*
X119830241Y-75200498D01*
X119830246Y-75200498D01*
X119830252Y-75200500D01*
X119830253Y-75200500D01*
X121369747Y-75200500D01*
X121369748Y-75200500D01*
X121428231Y-75188867D01*
X121494552Y-75144552D01*
X121494553Y-75144549D01*
X121494997Y-75144253D01*
X121553885Y-75127644D01*
X121605003Y-75144253D01*
X121605446Y-75144549D01*
X121605448Y-75144552D01*
X121671769Y-75188867D01*
X121716231Y-75197711D01*
X121730241Y-75200498D01*
X121730246Y-75200498D01*
X121730252Y-75200500D01*
X121730253Y-75200500D01*
X123269747Y-75200500D01*
X123269748Y-75200500D01*
X123328231Y-75188867D01*
X123394552Y-75144552D01*
X123394553Y-75144549D01*
X123395446Y-75143953D01*
X123454334Y-75127344D01*
X123505451Y-75143953D01*
X123571963Y-75188396D01*
X123630299Y-75199999D01*
X123630303Y-75200000D01*
X124274999Y-75200000D01*
X124275000Y-75199999D01*
X124275000Y-74225001D01*
X124525000Y-74225001D01*
X124525000Y-75199999D01*
X124525001Y-75200000D01*
X125169697Y-75200000D01*
X125169700Y-75199999D01*
X125228036Y-75188396D01*
X125294998Y-75143653D01*
X125353886Y-75127044D01*
X125405002Y-75143653D01*
X125471963Y-75188396D01*
X125530299Y-75199999D01*
X125530303Y-75200000D01*
X126174999Y-75200000D01*
X126175000Y-75199999D01*
X126175000Y-74225001D01*
X126425000Y-74225001D01*
X126425000Y-75199999D01*
X126425001Y-75200000D01*
X127069697Y-75200000D01*
X127069700Y-75199999D01*
X127128036Y-75188396D01*
X127194189Y-75144193D01*
X127194193Y-75144189D01*
X127238396Y-75078036D01*
X127249999Y-75019700D01*
X127250000Y-75019697D01*
X127250000Y-74225001D01*
X127249999Y-74225000D01*
X126425001Y-74225000D01*
X126425000Y-74225001D01*
X126175000Y-74225001D01*
X126174999Y-74225000D01*
X124525001Y-74225000D01*
X124525000Y-74225001D01*
X124275000Y-74225001D01*
X124275000Y-73000001D01*
X124525000Y-73000001D01*
X124525000Y-73974999D01*
X124525001Y-73975000D01*
X126174999Y-73975000D01*
X126175000Y-73974999D01*
X126175000Y-73000001D01*
X126425000Y-73000001D01*
X126425000Y-73974999D01*
X126425001Y-73975000D01*
X127249999Y-73975000D01*
X127250000Y-73974999D01*
X127250000Y-73180302D01*
X127249999Y-73180299D01*
X127238396Y-73121963D01*
X127194193Y-73055810D01*
X127194189Y-73055806D01*
X127128036Y-73011603D01*
X127069700Y-73000000D01*
X126425001Y-73000000D01*
X126425000Y-73000001D01*
X126175000Y-73000001D01*
X126174999Y-73000000D01*
X125530299Y-73000000D01*
X125471964Y-73011603D01*
X125405001Y-73056347D01*
X125346113Y-73072955D01*
X125294999Y-73056347D01*
X125228035Y-73011603D01*
X125228036Y-73011603D01*
X125169700Y-73000000D01*
X124525001Y-73000000D01*
X124525000Y-73000001D01*
X124275000Y-73000001D01*
X124274999Y-73000000D01*
X123630299Y-73000000D01*
X123571964Y-73011603D01*
X123505450Y-73056047D01*
X123446562Y-73072655D01*
X123395447Y-73056046D01*
X123328233Y-73011134D01*
X123328231Y-73011133D01*
X123328228Y-73011132D01*
X123328227Y-73011132D01*
X123269758Y-72999501D01*
X123269748Y-72999500D01*
X121730252Y-72999500D01*
X121730251Y-72999500D01*
X121730241Y-72999501D01*
X121671772Y-73011132D01*
X121671766Y-73011134D01*
X121605002Y-73055746D01*
X121546114Y-73072355D01*
X121494998Y-73055746D01*
X121428233Y-73011134D01*
X121428231Y-73011133D01*
X121428228Y-73011132D01*
X121428227Y-73011132D01*
X121369758Y-72999501D01*
X121369748Y-72999500D01*
X119830252Y-72999500D01*
X119830251Y-72999500D01*
X119830241Y-72999501D01*
X119771772Y-73011132D01*
X119771766Y-73011134D01*
X119705002Y-73055746D01*
X119646114Y-73072355D01*
X119594998Y-73055746D01*
X119528233Y-73011134D01*
X119528231Y-73011133D01*
X119528228Y-73011132D01*
X119528227Y-73011132D01*
X119469758Y-72999501D01*
X119469748Y-72999500D01*
X117930252Y-72999500D01*
X117930251Y-72999500D01*
X117930241Y-72999501D01*
X117871772Y-73011132D01*
X117871766Y-73011134D01*
X117805451Y-73055445D01*
X117805445Y-73055451D01*
X117761134Y-73121766D01*
X117761132Y-73121772D01*
X117749501Y-73180241D01*
X117749500Y-73180253D01*
X117749500Y-73600500D01*
X117730593Y-73658691D01*
X117681093Y-73694655D01*
X117650500Y-73699500D01*
X117601027Y-73699500D01*
X117495573Y-73699500D01*
X117393712Y-73726793D01*
X117393711Y-73726793D01*
X117393709Y-73726794D01*
X117334056Y-73761236D01*
X117284555Y-73774500D01*
X109180987Y-73774500D01*
X109122796Y-73755593D01*
X109108964Y-73741762D01*
X109108559Y-73742168D01*
X109103051Y-73736660D01*
X109103050Y-73736658D01*
X109013342Y-73646950D01*
X108900304Y-73589354D01*
X108900305Y-73589354D01*
X108806522Y-73574500D01*
X108193479Y-73574500D01*
X108193476Y-73574501D01*
X108099700Y-73589352D01*
X108099695Y-73589354D01*
X107986659Y-73646949D01*
X107896949Y-73736659D01*
X107839354Y-73849695D01*
X107824500Y-73943477D01*
X107824500Y-74406520D01*
X107824501Y-74406521D01*
X107830029Y-74441427D01*
X107820457Y-74501859D01*
X107777192Y-74545123D01*
X107716760Y-74554694D01*
X107662244Y-74526917D01*
X106947196Y-73811869D01*
X106919419Y-73757352D01*
X106918200Y-73741865D01*
X106918200Y-73141021D01*
X106937107Y-73082830D01*
X106947190Y-73071023D01*
X106993200Y-73025014D01*
X107059092Y-72910886D01*
X107093200Y-72783592D01*
X107093200Y-72651808D01*
X107059092Y-72524514D01*
X107059090Y-72524511D01*
X107059090Y-72524509D01*
X106993203Y-72410390D01*
X106993201Y-72410388D01*
X106993200Y-72410386D01*
X106902315Y-72319501D01*
X106874540Y-72264987D01*
X106884111Y-72204555D01*
X106927376Y-72161290D01*
X106972321Y-72150500D01*
X107519747Y-72150500D01*
X107519748Y-72150500D01*
X107578231Y-72138867D01*
X107644552Y-72094552D01*
X107688867Y-72028231D01*
X107700500Y-71969748D01*
X107700500Y-71030252D01*
X107688867Y-70971769D01*
X107644552Y-70905448D01*
X107644548Y-70905445D01*
X107578233Y-70861134D01*
X107578231Y-70861133D01*
X107578228Y-70861132D01*
X107578227Y-70861132D01*
X107519758Y-70849501D01*
X107519748Y-70849500D01*
X105980252Y-70849500D01*
X105980251Y-70849500D01*
X105980241Y-70849501D01*
X105921772Y-70861132D01*
X105921766Y-70861134D01*
X105855451Y-70905445D01*
X105855445Y-70905451D01*
X105811134Y-70971766D01*
X105811132Y-70971772D01*
X105799501Y-71030241D01*
X105799500Y-71030253D01*
X105799500Y-71969746D01*
X105799501Y-71969758D01*
X105811132Y-72028227D01*
X105811134Y-72028233D01*
X105855445Y-72094548D01*
X105855448Y-72094552D01*
X105921769Y-72138867D01*
X105966231Y-72147711D01*
X105980241Y-72150498D01*
X105980246Y-72150498D01*
X105980252Y-72150500D01*
X105980253Y-72150500D01*
X106213079Y-72150500D01*
X106271270Y-72169407D01*
X106307234Y-72218907D01*
X106307234Y-72280093D01*
X106283084Y-72319501D01*
X106202445Y-72400141D01*
X106192197Y-72410389D01*
X106192196Y-72410390D01*
X106126309Y-72524509D01*
X106126308Y-72524514D01*
X106092200Y-72651808D01*
X106092200Y-72783592D01*
X106122279Y-72895851D01*
X106126309Y-72910890D01*
X106192196Y-73025009D01*
X106192198Y-73025011D01*
X106192200Y-73025014D01*
X106238205Y-73071019D01*
X106265981Y-73125534D01*
X106267200Y-73141021D01*
X106267200Y-73874847D01*
X106267200Y-73960553D01*
X106271071Y-73974999D01*
X106289383Y-74043343D01*
X106332231Y-74117557D01*
X106332233Y-74117559D01*
X106332235Y-74117562D01*
X107089673Y-74874999D01*
X107795504Y-75580830D01*
X107823281Y-75635347D01*
X107824500Y-75650834D01*
X107824500Y-76056520D01*
X107824501Y-76056523D01*
X107839352Y-76150299D01*
X107839354Y-76150304D01*
X107896950Y-76263342D01*
X107986658Y-76353050D01*
X108099696Y-76410646D01*
X108099700Y-76410646D01*
X108106085Y-76412721D01*
X108155588Y-76448681D01*
X108174500Y-76506870D01*
X108174500Y-78300500D01*
X108155593Y-78358691D01*
X108106093Y-78394655D01*
X108075500Y-78399500D01*
X107480252Y-78399500D01*
X107480251Y-78399500D01*
X107480241Y-78399501D01*
X107421772Y-78411132D01*
X107421766Y-78411134D01*
X107355451Y-78455445D01*
X107355445Y-78455451D01*
X107311134Y-78521766D01*
X107311132Y-78521772D01*
X107299501Y-78580241D01*
X107299500Y-78580253D01*
X107299500Y-79619746D01*
X107299501Y-79619758D01*
X107311132Y-79678227D01*
X107311134Y-79678233D01*
X107355445Y-79744548D01*
X107355448Y-79744552D01*
X107421769Y-79788867D01*
X107466231Y-79797711D01*
X107480241Y-79800498D01*
X107480246Y-79800498D01*
X107480252Y-79800500D01*
X107480253Y-79800500D01*
X109219747Y-79800500D01*
X109219748Y-79800500D01*
X109278231Y-79788867D01*
X109344552Y-79744552D01*
X109388867Y-79678231D01*
X109400500Y-79619748D01*
X109400500Y-79524500D01*
X109419407Y-79466309D01*
X109468907Y-79430345D01*
X109499500Y-79425500D01*
X113500500Y-79425500D01*
X113558691Y-79444407D01*
X113594655Y-79493907D01*
X113599500Y-79524500D01*
X113599500Y-79619746D01*
X113599501Y-79619758D01*
X113611132Y-79678227D01*
X113611134Y-79678233D01*
X113655445Y-79744548D01*
X113655448Y-79744552D01*
X113721769Y-79788867D01*
X113766231Y-79797711D01*
X113780241Y-79800498D01*
X113780246Y-79800498D01*
X113780252Y-79800500D01*
X113780253Y-79800500D01*
X115519747Y-79800500D01*
X115519748Y-79800500D01*
X115578231Y-79788867D01*
X115644552Y-79744552D01*
X115688867Y-79678231D01*
X115700500Y-79619748D01*
X115700500Y-78580252D01*
X115688867Y-78521769D01*
X115644552Y-78455448D01*
X115644548Y-78455445D01*
X115578233Y-78411134D01*
X115578231Y-78411133D01*
X115578228Y-78411132D01*
X115578227Y-78411132D01*
X115519758Y-78399501D01*
X115519748Y-78399500D01*
X113780252Y-78399500D01*
X113780251Y-78399500D01*
X113780241Y-78399501D01*
X113721772Y-78411132D01*
X113721766Y-78411134D01*
X113655451Y-78455445D01*
X113655445Y-78455451D01*
X113611134Y-78521766D01*
X113611132Y-78521772D01*
X113599501Y-78580241D01*
X113599500Y-78580253D01*
X113599500Y-78675500D01*
X113580593Y-78733691D01*
X113531093Y-78769655D01*
X113500500Y-78774500D01*
X109499500Y-78774500D01*
X109441309Y-78755593D01*
X109405345Y-78706093D01*
X109400500Y-78675500D01*
X109400500Y-78580253D01*
X109400498Y-78580241D01*
X109393398Y-78544548D01*
X109388867Y-78521769D01*
X109344552Y-78455448D01*
X109344548Y-78455445D01*
X109278233Y-78411134D01*
X109278231Y-78411133D01*
X109278228Y-78411132D01*
X109278227Y-78411132D01*
X109219758Y-78399501D01*
X109219748Y-78399500D01*
X109219747Y-78399500D01*
X108924500Y-78399500D01*
X108866309Y-78380593D01*
X108830345Y-78331093D01*
X108825500Y-78300500D01*
X108825500Y-76506879D01*
X108844407Y-76448688D01*
X108893906Y-76412725D01*
X108900299Y-76410647D01*
X108900299Y-76410646D01*
X108900304Y-76410646D01*
X109013342Y-76353050D01*
X109103050Y-76263342D01*
X109160646Y-76150304D01*
X109175500Y-76056519D01*
X109175499Y-75593482D01*
X109160646Y-75499696D01*
X109103050Y-75386658D01*
X109013342Y-75296950D01*
X108900304Y-75239354D01*
X108900305Y-75239354D01*
X108806522Y-75224500D01*
X108806519Y-75224500D01*
X108400834Y-75224500D01*
X108342643Y-75205593D01*
X108330830Y-75195504D01*
X108073082Y-74937756D01*
X108045305Y-74883239D01*
X108054876Y-74822807D01*
X108098141Y-74779542D01*
X108158572Y-74769971D01*
X108193481Y-74775500D01*
X108806518Y-74775499D01*
X108806520Y-74775499D01*
X108806521Y-74775498D01*
X108853411Y-74768072D01*
X108900299Y-74760647D01*
X108900299Y-74760646D01*
X108900304Y-74760646D01*
X109013342Y-74703050D01*
X109103050Y-74613342D01*
X109103051Y-74613339D01*
X109108559Y-74607832D01*
X109110242Y-74609515D01*
X109150399Y-74580344D01*
X109180987Y-74575500D01*
X117526025Y-74575500D01*
X117526027Y-74575500D01*
X117624879Y-74549013D01*
X117685979Y-74552216D01*
X117733529Y-74590721D01*
X117749500Y-74644640D01*
X117749500Y-75019746D01*
X117749501Y-75019758D01*
X117761132Y-75078227D01*
X117761134Y-75078233D01*
X117805205Y-75144189D01*
X117805448Y-75144552D01*
X117871769Y-75188867D01*
X117916231Y-75197711D01*
X117930241Y-75200498D01*
X117930246Y-75200498D01*
X117930252Y-75200500D01*
X118200500Y-75200500D01*
X118258691Y-75219407D01*
X118294655Y-75268907D01*
X118299500Y-75299500D01*
X118299500Y-75348973D01*
X118299500Y-75454427D01*
X118311630Y-75499696D01*
X118326794Y-75556292D01*
X118379516Y-75647608D01*
X118379518Y-75647610D01*
X118379520Y-75647613D01*
X118795505Y-76063598D01*
X118823281Y-76118113D01*
X118824500Y-76133600D01*
X118824500Y-77801204D01*
X118805593Y-77859395D01*
X118770446Y-77889413D01*
X118746782Y-77901470D01*
X118651470Y-77996782D01*
X118590283Y-78116867D01*
X118590281Y-78116874D01*
X118574500Y-78216510D01*
X118574500Y-78543099D01*
X118555593Y-78601290D01*
X118545504Y-78613103D01*
X116736003Y-80422604D01*
X116681486Y-80450381D01*
X116665999Y-80451600D01*
X102172440Y-80451600D01*
X102122941Y-80438336D01*
X102031786Y-80385708D01*
X101904492Y-80351600D01*
X101772708Y-80351600D01*
X101705706Y-80369553D01*
X101645409Y-80385709D01*
X101531290Y-80451596D01*
X101438096Y-80544790D01*
X101372210Y-80658908D01*
X101372208Y-80658912D01*
X101372208Y-80658914D01*
X101368918Y-80671194D01*
X101344966Y-80760583D01*
X101319342Y-80804963D01*
X100846322Y-81277982D01*
X100791806Y-81305759D01*
X100731374Y-81296188D01*
X100706318Y-81277984D01*
X99539081Y-80110825D01*
X99533974Y-80105718D01*
X99493492Y-80065236D01*
X99493484Y-80065231D01*
X99493483Y-80065230D01*
X99470690Y-80052071D01*
X99420409Y-80023041D01*
X99420408Y-80023040D01*
X99420402Y-80023037D01*
X99372934Y-80010320D01*
X99339633Y-80001397D01*
X99338923Y-80001201D01*
X99338899Y-80001198D01*
X99338884Y-80001198D01*
X99286141Y-80001199D01*
X99282624Y-80001200D01*
X99199500Y-80001200D01*
X99141309Y-79982293D01*
X99105345Y-79932793D01*
X99100500Y-79902200D01*
X99100500Y-79699500D01*
X99119407Y-79641309D01*
X99168907Y-79605345D01*
X99199500Y-79600500D01*
X99519747Y-79600500D01*
X99519748Y-79600500D01*
X99578231Y-79588867D01*
X99644552Y-79544552D01*
X99688867Y-79478231D01*
X99700500Y-79419748D01*
X99700500Y-79080252D01*
X99688867Y-79021769D01*
X99644552Y-78955448D01*
X99644548Y-78955445D01*
X99578233Y-78911134D01*
X99578231Y-78911133D01*
X99578228Y-78911132D01*
X99578227Y-78911132D01*
X99519758Y-78899501D01*
X99519748Y-78899500D01*
X99030252Y-78899500D01*
X99030251Y-78899500D01*
X99030241Y-78899501D01*
X98971772Y-78911132D01*
X98971766Y-78911134D01*
X98905451Y-78955445D01*
X98905445Y-78955451D01*
X98861134Y-79021766D01*
X98861132Y-79021772D01*
X98849501Y-79080241D01*
X98849500Y-79080253D01*
X98849500Y-79250500D01*
X98830593Y-79308691D01*
X98781093Y-79344655D01*
X98750500Y-79349500D01*
X98580252Y-79349500D01*
X98580251Y-79349500D01*
X98580241Y-79349501D01*
X98521772Y-79361132D01*
X98521766Y-79361134D01*
X98455451Y-79405445D01*
X98455445Y-79405451D01*
X98411134Y-79471766D01*
X98411132Y-79471772D01*
X98399501Y-79530241D01*
X98399500Y-79530253D01*
X98100500Y-79530253D01*
X98100500Y-79530252D01*
X98088867Y-79471769D01*
X98044552Y-79405448D01*
X98044548Y-79405445D01*
X97978233Y-79361134D01*
X97978231Y-79361133D01*
X97978228Y-79361132D01*
X97978227Y-79361132D01*
X97919758Y-79349501D01*
X97919748Y-79349500D01*
X97580252Y-79349500D01*
X97580251Y-79349500D01*
X97580241Y-79349501D01*
X97521772Y-79361132D01*
X97521766Y-79361134D01*
X97455451Y-79405445D01*
X97455445Y-79405451D01*
X97411134Y-79471766D01*
X97411132Y-79471772D01*
X97399501Y-79530241D01*
X97399500Y-79530251D01*
X97399500Y-79530252D01*
X97399500Y-80019748D01*
X97411133Y-80078231D01*
X97411133Y-80078232D01*
X97411134Y-80078233D01*
X97414866Y-80087243D01*
X97412367Y-80088277D01*
X97424500Y-80128268D01*
X97424500Y-80150865D01*
X97405593Y-80209056D01*
X97395504Y-80220868D01*
X97315335Y-80301037D01*
X97315331Y-80301042D01*
X97272482Y-80375260D01*
X97272481Y-80375260D01*
X97272482Y-80375261D01*
X97250300Y-80458047D01*
X97250300Y-81159140D01*
X97231393Y-81217331D01*
X97181893Y-81253295D01*
X97123713Y-81253295D01*
X97123554Y-81253888D01*
X97121341Y-81253295D01*
X97120707Y-81253295D01*
X97119024Y-81252674D01*
X97117287Y-81252208D01*
X97117286Y-81252208D01*
X96989992Y-81218100D01*
X96858208Y-81218100D01*
X96780300Y-81238975D01*
X96730909Y-81252209D01*
X96616790Y-81318096D01*
X96523596Y-81411290D01*
X96457709Y-81525409D01*
X96457708Y-81525414D01*
X96423600Y-81652708D01*
X96423600Y-81784492D01*
X96457708Y-81911786D01*
X96510336Y-82002941D01*
X96523600Y-82052440D01*
X96523600Y-82069667D01*
X96504693Y-82127858D01*
X96491639Y-82140912D01*
X96492168Y-82141441D01*
X96486660Y-82146948D01*
X96486658Y-82146950D01*
X96396950Y-82236658D01*
X96396948Y-82236660D01*
X96391441Y-82242168D01*
X96389757Y-82240484D01*
X96349601Y-82269656D01*
X96319013Y-82274500D01*
X95680987Y-82274500D01*
X95622796Y-82255593D01*
X95608964Y-82241762D01*
X95608559Y-82242168D01*
X95603051Y-82236660D01*
X95603050Y-82236658D01*
X95513342Y-82146950D01*
X95400304Y-82089354D01*
X95400305Y-82089354D01*
X95306522Y-82074500D01*
X94693479Y-82074500D01*
X94693476Y-82074501D01*
X94599700Y-82089352D01*
X94599695Y-82089354D01*
X94486659Y-82146949D01*
X94396949Y-82236659D01*
X94339354Y-82349695D01*
X94324500Y-82443478D01*
X94324500Y-82539966D01*
X94317336Y-82562013D01*
X94313710Y-82584911D01*
X94308061Y-82590559D01*
X94305593Y-82598157D01*
X94286836Y-82611784D01*
X94270445Y-82628176D01*
X94262555Y-82629425D01*
X94256093Y-82634121D01*
X94232908Y-82634121D01*
X94210013Y-82637747D01*
X94202896Y-82634121D01*
X94194907Y-82634121D01*
X94155497Y-82609970D01*
X94044295Y-82498768D01*
X94016519Y-82444253D01*
X94015300Y-82428766D01*
X94015300Y-81795535D01*
X94034207Y-81737344D01*
X94044296Y-81725531D01*
X96165331Y-79604496D01*
X96219848Y-79576719D01*
X96235335Y-79575500D01*
X96371732Y-79575500D01*
X96411723Y-79587630D01*
X96412757Y-79585134D01*
X96421764Y-79588863D01*
X96421769Y-79588867D01*
X96466231Y-79597711D01*
X96480241Y-79600498D01*
X96480246Y-79600498D01*
X96480252Y-79600500D01*
X96480253Y-79600500D01*
X96969747Y-79600500D01*
X96969748Y-79600500D01*
X97028231Y-79588867D01*
X97094552Y-79544552D01*
X97138867Y-79478231D01*
X97150500Y-79419748D01*
X97150500Y-79080252D01*
X97138867Y-79021769D01*
X97138379Y-79019315D01*
X97138379Y-78980685D01*
X97150498Y-78919758D01*
X97150500Y-78919746D01*
X97150500Y-78580253D01*
X97150498Y-78580241D01*
X97138379Y-78519315D01*
X97138379Y-78480685D01*
X97150498Y-78419758D01*
X97150500Y-78419746D01*
X97150500Y-78080253D01*
X97150498Y-78080241D01*
X97138379Y-78019315D01*
X97138379Y-77980685D01*
X97150498Y-77919758D01*
X97150500Y-77919746D01*
X97150500Y-77580253D01*
X97150498Y-77580241D01*
X97147711Y-77566231D01*
X97138867Y-77521769D01*
X97094552Y-77455448D01*
X97079371Y-77445304D01*
X97028233Y-77411134D01*
X97028231Y-77411133D01*
X97028228Y-77411132D01*
X97028227Y-77411132D01*
X96969758Y-77399501D01*
X96969748Y-77399500D01*
X96969747Y-77399500D01*
X96597800Y-77399500D01*
X96582888Y-77394655D01*
X96567207Y-77394655D01*
X96554521Y-77385438D01*
X96539609Y-77380593D01*
X96530392Y-77367907D01*
X96517707Y-77358691D01*
X96512861Y-77343778D01*
X96503645Y-77331093D01*
X96498800Y-77300500D01*
X96498800Y-77253482D01*
X96498801Y-77253469D01*
X96498801Y-77161106D01*
X96476960Y-77079595D01*
X96476958Y-77079589D01*
X96434767Y-77006512D01*
X96434765Y-77006510D01*
X96434764Y-77006508D01*
X96375092Y-76946836D01*
X96375089Y-76946834D01*
X95488596Y-76060341D01*
X95460819Y-76005824D01*
X95459600Y-75990337D01*
X95459600Y-75234108D01*
X97499500Y-75234108D01*
X97499500Y-75365892D01*
X97506432Y-75391762D01*
X97533609Y-75493190D01*
X97599496Y-75607309D01*
X97599498Y-75607311D01*
X97599500Y-75607314D01*
X97692686Y-75700500D01*
X97722080Y-75717470D01*
X97763020Y-75762939D01*
X97770755Y-75790456D01*
X97913000Y-76885737D01*
X97911922Y-76917801D01*
X97899500Y-76980249D01*
X97899500Y-77469746D01*
X97899501Y-77469758D01*
X97911132Y-77528227D01*
X97911134Y-77528233D01*
X97955445Y-77594548D01*
X97955448Y-77594552D01*
X98021769Y-77638867D01*
X98066231Y-77647711D01*
X98080241Y-77650498D01*
X98080246Y-77650498D01*
X98080252Y-77650500D01*
X98080253Y-77650500D01*
X98419747Y-77650500D01*
X98419748Y-77650500D01*
X98478231Y-77638867D01*
X98544552Y-77594552D01*
X98588867Y-77528231D01*
X98600500Y-77469748D01*
X98600500Y-76980252D01*
X98588867Y-76921769D01*
X98544552Y-76855448D01*
X98527612Y-76844128D01*
X98489735Y-76796079D01*
X98484441Y-76774570D01*
X98346899Y-75715492D01*
X98358155Y-75655353D01*
X98375069Y-75632744D01*
X98400500Y-75607314D01*
X98400501Y-75607310D01*
X98400503Y-75607310D01*
X98466390Y-75493190D01*
X98466390Y-75493188D01*
X98466392Y-75493186D01*
X98500500Y-75365892D01*
X98500500Y-75234108D01*
X98466392Y-75106814D01*
X98466390Y-75106811D01*
X98466390Y-75106809D01*
X98400503Y-74992690D01*
X98400501Y-74992688D01*
X98400500Y-74992686D01*
X98307314Y-74899500D01*
X98307311Y-74899498D01*
X98307309Y-74899496D01*
X98193189Y-74833609D01*
X98193191Y-74833609D01*
X98143799Y-74820375D01*
X98065892Y-74799500D01*
X97934108Y-74799500D01*
X97856200Y-74820375D01*
X97806809Y-74833609D01*
X97692690Y-74899496D01*
X97599496Y-74992690D01*
X97533609Y-75106809D01*
X97514539Y-75177978D01*
X97499500Y-75234108D01*
X95459600Y-75234108D01*
X95459600Y-75190740D01*
X95472863Y-75141241D01*
X95525492Y-75050086D01*
X95559600Y-74922792D01*
X95559600Y-74791008D01*
X95525492Y-74663714D01*
X95525490Y-74663711D01*
X95525490Y-74663709D01*
X95459603Y-74549590D01*
X95459601Y-74549588D01*
X95459600Y-74549586D01*
X95366414Y-74456400D01*
X95366411Y-74456398D01*
X95366409Y-74456396D01*
X95252289Y-74390509D01*
X95252291Y-74390509D01*
X95202899Y-74377275D01*
X95124992Y-74356400D01*
X94993208Y-74356400D01*
X94915300Y-74377275D01*
X94865909Y-74390509D01*
X94751790Y-74456396D01*
X94658596Y-74549590D01*
X94592709Y-74663709D01*
X94592708Y-74663714D01*
X94558600Y-74791008D01*
X94558600Y-74922792D01*
X94592708Y-75050086D01*
X94645336Y-75141241D01*
X94658600Y-75190740D01*
X94658600Y-75325500D01*
X94639693Y-75383691D01*
X94590193Y-75419655D01*
X94559600Y-75424500D01*
X87180987Y-75424500D01*
X87122796Y-75405593D01*
X87108964Y-75391762D01*
X87108559Y-75392168D01*
X87103051Y-75386660D01*
X87103050Y-75386658D01*
X87013342Y-75296950D01*
X86900304Y-75239354D01*
X86900305Y-75239354D01*
X86806522Y-75224500D01*
X86193479Y-75224500D01*
X86193476Y-75224501D01*
X86099700Y-75239352D01*
X86099695Y-75239354D01*
X85986659Y-75296949D01*
X85896949Y-75386659D01*
X85839354Y-75499695D01*
X85824500Y-75593477D01*
X84757562Y-75593477D01*
X84831453Y-75519587D01*
X84848118Y-75502921D01*
X84909237Y-75382969D01*
X84925000Y-75283453D01*
X84925000Y-75125001D01*
X84924999Y-75125000D01*
X84400001Y-75125000D01*
X84400000Y-75125001D01*
X84150000Y-75125001D01*
X84149999Y-75125000D01*
X83625002Y-75125000D01*
X83625001Y-75125001D01*
X83625001Y-75200666D01*
X83617837Y-75222713D01*
X83614211Y-75245611D01*
X83608562Y-75251259D01*
X83606094Y-75258857D01*
X83587337Y-75272484D01*
X83570946Y-75288876D01*
X83563056Y-75290125D01*
X83556594Y-75294821D01*
X83533409Y-75294821D01*
X83510514Y-75298447D01*
X83503397Y-75294821D01*
X83495408Y-75294821D01*
X83455997Y-75270670D01*
X83404496Y-75219169D01*
X83376719Y-75164652D01*
X83375500Y-75149165D01*
X83375500Y-74850835D01*
X83394407Y-74792644D01*
X83404496Y-74780831D01*
X83455996Y-74729331D01*
X83510513Y-74701554D01*
X83570945Y-74711125D01*
X83614210Y-74754390D01*
X83625000Y-74799335D01*
X83625000Y-74874999D01*
X83625001Y-74875000D01*
X84924998Y-74875000D01*
X84924999Y-74874999D01*
X84924999Y-74716546D01*
X84908915Y-74614986D01*
X84918487Y-74554554D01*
X84961752Y-74511290D01*
X85006696Y-74500500D01*
X85778787Y-74500500D01*
X85836978Y-74519407D01*
X85866996Y-74554555D01*
X85894142Y-74607832D01*
X85896950Y-74613342D01*
X85986658Y-74703050D01*
X86099696Y-74760646D01*
X86193481Y-74775500D01*
X86806518Y-74775499D01*
X86806520Y-74775499D01*
X86806521Y-74775498D01*
X86853411Y-74768072D01*
X86900299Y-74760647D01*
X86900299Y-74760646D01*
X86900304Y-74760646D01*
X87013342Y-74703050D01*
X87103050Y-74613342D01*
X87160646Y-74500304D01*
X87175500Y-74406519D01*
X87175499Y-73943482D01*
X87171414Y-73917686D01*
X87160647Y-73849700D01*
X87160646Y-73849698D01*
X87160646Y-73849696D01*
X87103050Y-73736658D01*
X87013342Y-73646950D01*
X86900304Y-73589354D01*
X86900305Y-73589354D01*
X86806522Y-73574500D01*
X86193479Y-73574500D01*
X86193476Y-73574501D01*
X86099700Y-73589352D01*
X86099695Y-73589354D01*
X85986659Y-73646949D01*
X85896948Y-73736660D01*
X85866996Y-73795445D01*
X85823732Y-73838710D01*
X85778787Y-73849500D01*
X83592853Y-73849500D01*
X83507147Y-73849500D01*
X83456478Y-73863076D01*
X83424356Y-73871683D01*
X83350142Y-73914531D01*
X83350137Y-73914535D01*
X82969168Y-74295504D01*
X82914652Y-74323281D01*
X82899165Y-74324500D01*
X82466510Y-74324500D01*
X82366874Y-74340281D01*
X82366867Y-74340283D01*
X82246782Y-74401470D01*
X82151470Y-74496782D01*
X82090283Y-74616867D01*
X82090281Y-74616874D01*
X82074500Y-74716512D01*
X78000500Y-74716512D01*
X78000500Y-74473322D01*
X78019407Y-74415131D01*
X78029496Y-74403318D01*
X81228318Y-71204496D01*
X81282835Y-71176719D01*
X81298322Y-71175500D01*
X81483490Y-71175500D01*
X81504885Y-71172111D01*
X81583126Y-71159719D01*
X81703220Y-71098528D01*
X81798528Y-71003220D01*
X81859719Y-70883126D01*
X81875500Y-70783488D01*
X81875500Y-70783453D01*
X82125000Y-70783453D01*
X82140760Y-70882965D01*
X82140762Y-70882969D01*
X82201881Y-71002921D01*
X82297078Y-71098118D01*
X82417030Y-71159237D01*
X82417029Y-71159237D01*
X82516545Y-71174999D01*
X82650000Y-71174999D01*
X82650000Y-70625001D01*
X82900000Y-70625001D01*
X82900000Y-71174998D01*
X82900001Y-71174999D01*
X83033453Y-71174999D01*
X83132965Y-71159239D01*
X83132969Y-71159237D01*
X83252921Y-71098118D01*
X83348118Y-71002921D01*
X83409237Y-70882969D01*
X83425000Y-70783453D01*
X83425000Y-70625001D01*
X83424999Y-70625000D01*
X82900001Y-70625000D01*
X82900000Y-70625001D01*
X82650000Y-70625001D01*
X82649999Y-70625000D01*
X82125002Y-70625000D01*
X82125001Y-70625001D01*
X82125001Y-70783453D01*
X82125000Y-70783453D01*
X81875500Y-70783453D01*
X81875500Y-70216546D01*
X82125000Y-70216546D01*
X82125000Y-70374999D01*
X82125001Y-70375000D01*
X82649999Y-70375000D01*
X82650000Y-70374999D01*
X82650000Y-69825001D01*
X82900000Y-69825001D01*
X82900000Y-70374999D01*
X82900001Y-70375000D01*
X83424998Y-70375000D01*
X83424999Y-70374999D01*
X83424999Y-70216546D01*
X83409239Y-70117034D01*
X83409237Y-70117030D01*
X83348118Y-69997078D01*
X83252921Y-69901881D01*
X83132969Y-69840762D01*
X83132970Y-69840762D01*
X83033454Y-69825000D01*
X82900001Y-69825000D01*
X82900000Y-69825001D01*
X82650000Y-69825001D01*
X82649999Y-69825000D01*
X82516547Y-69825000D01*
X82516546Y-69825001D01*
X82417034Y-69840760D01*
X82417030Y-69840762D01*
X82297078Y-69901881D01*
X82201881Y-69997078D01*
X82140762Y-70117030D01*
X82125000Y-70216546D01*
X81875500Y-70216546D01*
X81875500Y-70216512D01*
X81859719Y-70116874D01*
X81859716Y-70116869D01*
X81859716Y-70116867D01*
X81798529Y-69996782D01*
X81798528Y-69996780D01*
X81703220Y-69901472D01*
X81703217Y-69901470D01*
X81583132Y-69840283D01*
X81583127Y-69840281D01*
X81583126Y-69840281D01*
X81549913Y-69835020D01*
X81483490Y-69824500D01*
X81483488Y-69824500D01*
X81298322Y-69824500D01*
X81240131Y-69805593D01*
X81228318Y-69795504D01*
X80963067Y-69530253D01*
X88299500Y-69530253D01*
X88299500Y-70469746D01*
X88299501Y-70469758D01*
X88311132Y-70528227D01*
X88311134Y-70528233D01*
X88322301Y-70544945D01*
X88355448Y-70594552D01*
X88421769Y-70638867D01*
X88466231Y-70647711D01*
X88480241Y-70650498D01*
X88480246Y-70650498D01*
X88480252Y-70650500D01*
X88480253Y-70650500D01*
X90019747Y-70650500D01*
X90019748Y-70650500D01*
X90078231Y-70638867D01*
X90144552Y-70594552D01*
X90188867Y-70528231D01*
X90200500Y-70469748D01*
X90200500Y-70393200D01*
X90219407Y-70335009D01*
X90268907Y-70299045D01*
X90299500Y-70294200D01*
X90334130Y-70294200D01*
X90334132Y-70294200D01*
X90408957Y-70274151D01*
X90476043Y-70235419D01*
X90530819Y-70180643D01*
X90530819Y-70180641D01*
X90538969Y-70172492D01*
X90538971Y-70172489D01*
X91113066Y-69598396D01*
X91167582Y-69570619D01*
X91183069Y-69569400D01*
X91760456Y-69569400D01*
X91798338Y-69576934D01*
X91802157Y-69578515D01*
X91802161Y-69578518D01*
X91884947Y-69600700D01*
X91884949Y-69600700D01*
X91970651Y-69600700D01*
X91970653Y-69600700D01*
X92053439Y-69578518D01*
X92053441Y-69578516D01*
X92053443Y-69578516D01*
X92127657Y-69535668D01*
X92127657Y-69535667D01*
X92127662Y-69535665D01*
X92431762Y-69231565D01*
X92533232Y-69130096D01*
X92587748Y-69102319D01*
X92603235Y-69101100D01*
X94196278Y-69101100D01*
X94254469Y-69120007D01*
X94266281Y-69130096D01*
X94312284Y-69176099D01*
X94312290Y-69176103D01*
X94426410Y-69241990D01*
X94426408Y-69241990D01*
X94426412Y-69241991D01*
X94426414Y-69241992D01*
X94553708Y-69276100D01*
X94553710Y-69276100D01*
X94685490Y-69276100D01*
X94685492Y-69276100D01*
X94812786Y-69241992D01*
X94812788Y-69241990D01*
X94812790Y-69241990D01*
X94926909Y-69176103D01*
X94926909Y-69176102D01*
X94926914Y-69176100D01*
X95020100Y-69082914D01*
X95028996Y-69067506D01*
X95085990Y-68968790D01*
X95085990Y-68968788D01*
X95085992Y-68968786D01*
X95120100Y-68841492D01*
X95120100Y-68709708D01*
X95085992Y-68582414D01*
X95085990Y-68582411D01*
X95085990Y-68582409D01*
X95020103Y-68468290D01*
X95020101Y-68468288D01*
X95020100Y-68468286D01*
X94926914Y-68375100D01*
X94926911Y-68375098D01*
X94926909Y-68375096D01*
X94812789Y-68309209D01*
X94812791Y-68309209D01*
X94763399Y-68295975D01*
X94685492Y-68275100D01*
X94553708Y-68275100D01*
X94475800Y-68295975D01*
X94426409Y-68309209D01*
X94312290Y-68375096D01*
X94312284Y-68375100D01*
X94266281Y-68421104D01*
X94211764Y-68448881D01*
X94196278Y-68450100D01*
X92470253Y-68450100D01*
X92384547Y-68450100D01*
X92333878Y-68463676D01*
X92301756Y-68472283D01*
X92227542Y-68515131D01*
X92227537Y-68515135D01*
X91790668Y-68952004D01*
X91736152Y-68979781D01*
X91720665Y-68981000D01*
X90981468Y-68981000D01*
X90925061Y-68996114D01*
X90906639Y-69001050D01*
X90839557Y-69039780D01*
X90784780Y-69094556D01*
X90784781Y-69094557D01*
X90356119Y-69523219D01*
X90301602Y-69550996D01*
X90241170Y-69541425D01*
X90197905Y-69498160D01*
X90189018Y-69472529D01*
X90188867Y-69471769D01*
X90144552Y-69405448D01*
X90137653Y-69400838D01*
X90078233Y-69361134D01*
X90078231Y-69361133D01*
X90078228Y-69361132D01*
X90078227Y-69361132D01*
X90019758Y-69349501D01*
X90019748Y-69349500D01*
X88480252Y-69349500D01*
X88480251Y-69349500D01*
X88480241Y-69349501D01*
X88421772Y-69361132D01*
X88421766Y-69361134D01*
X88355451Y-69405445D01*
X88355445Y-69405451D01*
X88311134Y-69471766D01*
X88311132Y-69471772D01*
X88299501Y-69530241D01*
X88299500Y-69530253D01*
X80963067Y-69530253D01*
X80338022Y-68905208D01*
X85908400Y-68905208D01*
X85908400Y-69036992D01*
X85923825Y-69094559D01*
X85942509Y-69164290D01*
X86008396Y-69278409D01*
X86008398Y-69278411D01*
X86008400Y-69278414D01*
X86101586Y-69371600D01*
X86101588Y-69371601D01*
X86101590Y-69371603D01*
X86215710Y-69437490D01*
X86215708Y-69437490D01*
X86215712Y-69437491D01*
X86215714Y-69437492D01*
X86343008Y-69471600D01*
X86343010Y-69471600D01*
X86474790Y-69471600D01*
X86474792Y-69471600D01*
X86602086Y-69437492D01*
X86716214Y-69371600D01*
X86738314Y-69349500D01*
X86762219Y-69325596D01*
X86816736Y-69297819D01*
X86832222Y-69296600D01*
X87745051Y-69296600D01*
X87745053Y-69296600D01*
X87827839Y-69274418D01*
X87827841Y-69274416D01*
X87827843Y-69274416D01*
X87902057Y-69231568D01*
X87902057Y-69231567D01*
X87902062Y-69231565D01*
X88146108Y-68987518D01*
X88200623Y-68959743D01*
X88261055Y-68969314D01*
X88304320Y-69012579D01*
X88307574Y-69019638D01*
X88311133Y-69028232D01*
X88354961Y-69093823D01*
X88355448Y-69094552D01*
X88421769Y-69138867D01*
X88466231Y-69147711D01*
X88480241Y-69150498D01*
X88480246Y-69150498D01*
X88480252Y-69150500D01*
X88480253Y-69150500D01*
X90019747Y-69150500D01*
X90019748Y-69150500D01*
X90078231Y-69138867D01*
X90144552Y-69094552D01*
X90188867Y-69028231D01*
X90200500Y-68969748D01*
X90200500Y-68030252D01*
X90188867Y-67971769D01*
X90144552Y-67905448D01*
X90127280Y-67893907D01*
X90078233Y-67861134D01*
X90078231Y-67861133D01*
X90078228Y-67861132D01*
X90078227Y-67861132D01*
X90019758Y-67849501D01*
X90019748Y-67849500D01*
X88480252Y-67849500D01*
X88480251Y-67849500D01*
X88480241Y-67849501D01*
X88421772Y-67861132D01*
X88421766Y-67861134D01*
X88355451Y-67905445D01*
X88355445Y-67905451D01*
X88311134Y-67971766D01*
X88311132Y-67971772D01*
X88299501Y-68030241D01*
X88299500Y-68030253D01*
X88299500Y-68075500D01*
X88280593Y-68133691D01*
X88231093Y-68169655D01*
X88200500Y-68174500D01*
X88130447Y-68174500D01*
X88079778Y-68188076D01*
X88047656Y-68196683D01*
X87973442Y-68239531D01*
X87973437Y-68239535D01*
X87596368Y-68616604D01*
X87541852Y-68644381D01*
X87526365Y-68645600D01*
X86832222Y-68645600D01*
X86774031Y-68626693D01*
X86762219Y-68616604D01*
X86716215Y-68570600D01*
X86716209Y-68570596D01*
X86602089Y-68504709D01*
X86602091Y-68504709D01*
X86552699Y-68491475D01*
X86474792Y-68470600D01*
X86343008Y-68470600D01*
X86265100Y-68491475D01*
X86215709Y-68504709D01*
X86101590Y-68570596D01*
X86008396Y-68663790D01*
X85942509Y-68777909D01*
X85942508Y-68777914D01*
X85908400Y-68905208D01*
X80338022Y-68905208D01*
X77903118Y-66470304D01*
X77875341Y-66415787D01*
X77884912Y-66355355D01*
X77928177Y-66312090D01*
X77973122Y-66301300D01*
X78029490Y-66301300D01*
X78029492Y-66301300D01*
X78156786Y-66267192D01*
X78189560Y-66248269D01*
X78249407Y-66235548D01*
X78305303Y-66260434D01*
X78328000Y-66290523D01*
X78335802Y-66306483D01*
X78418517Y-66389198D01*
X78460267Y-66409608D01*
X78523604Y-66440572D01*
X78523605Y-66440572D01*
X78523607Y-66440573D01*
X78591740Y-66450500D01*
X78591743Y-66450500D01*
X79683257Y-66450500D01*
X79683260Y-66450500D01*
X79751393Y-66440573D01*
X79856483Y-66389198D01*
X79939198Y-66306483D01*
X79990573Y-66201393D01*
X80000500Y-66133260D01*
X80000500Y-65766740D01*
X79990573Y-65698607D01*
X79984165Y-65685500D01*
X79941648Y-65598529D01*
X79939198Y-65593517D01*
X79901803Y-65556122D01*
X79874028Y-65501608D01*
X79883599Y-65441176D01*
X79926864Y-65397911D01*
X79987296Y-65388340D01*
X79997419Y-65390491D01*
X80034773Y-65400500D01*
X80538466Y-65400500D01*
X80596657Y-65419407D01*
X80626676Y-65454555D01*
X80651319Y-65502921D01*
X80651472Y-65503220D01*
X80746780Y-65598528D01*
X80746782Y-65598529D01*
X80866867Y-65659716D01*
X80866869Y-65659716D01*
X80866874Y-65659719D01*
X80942541Y-65671703D01*
X80966510Y-65675500D01*
X80966512Y-65675500D01*
X81483490Y-65675500D01*
X81504885Y-65672111D01*
X81583126Y-65659719D01*
X81703220Y-65598528D01*
X81798528Y-65503220D01*
X81859719Y-65383126D01*
X81875500Y-65283488D01*
X81875500Y-65283453D01*
X82125000Y-65283453D01*
X82140760Y-65382965D01*
X82140762Y-65382969D01*
X82201881Y-65502921D01*
X82297078Y-65598118D01*
X82417030Y-65659237D01*
X82417029Y-65659237D01*
X82516545Y-65674999D01*
X82650000Y-65674999D01*
X82650000Y-65125001D01*
X82900000Y-65125001D01*
X82900000Y-65674998D01*
X82900001Y-65674999D01*
X83033453Y-65674999D01*
X83132965Y-65659239D01*
X83132969Y-65659237D01*
X83252921Y-65598118D01*
X83348118Y-65502921D01*
X83409237Y-65382969D01*
X83425000Y-65283453D01*
X83425000Y-65125001D01*
X83424999Y-65125000D01*
X82900001Y-65125000D01*
X82900000Y-65125001D01*
X82650000Y-65125001D01*
X82649999Y-65125000D01*
X82125002Y-65125000D01*
X82125001Y-65125001D01*
X82125001Y-65283453D01*
X82125000Y-65283453D01*
X81875500Y-65283453D01*
X81875500Y-64716546D01*
X82125000Y-64716546D01*
X82125000Y-64874999D01*
X82125001Y-64875000D01*
X82649999Y-64875000D01*
X82650000Y-64874999D01*
X82650000Y-64325001D01*
X82900000Y-64325001D01*
X82900000Y-64874999D01*
X82900001Y-64875000D01*
X83424998Y-64875000D01*
X83424999Y-64874999D01*
X83424999Y-64716546D01*
X83409239Y-64617034D01*
X83409237Y-64617030D01*
X83348118Y-64497078D01*
X83252921Y-64401881D01*
X83132969Y-64340762D01*
X83132970Y-64340762D01*
X83033454Y-64325000D01*
X82900001Y-64325000D01*
X82900000Y-64325001D01*
X82650000Y-64325001D01*
X82649999Y-64325000D01*
X82516547Y-64325000D01*
X82516546Y-64325001D01*
X82417034Y-64340760D01*
X82417030Y-64340762D01*
X82297078Y-64401881D01*
X82201881Y-64497078D01*
X82140762Y-64617030D01*
X82125000Y-64716546D01*
X81875500Y-64716546D01*
X81875500Y-64716512D01*
X81859719Y-64616874D01*
X81859716Y-64616869D01*
X81859716Y-64616867D01*
X81798529Y-64496782D01*
X81798528Y-64496780D01*
X81703220Y-64401472D01*
X81703217Y-64401470D01*
X81583132Y-64340283D01*
X81583127Y-64340281D01*
X81583126Y-64340281D01*
X81549840Y-64335009D01*
X81483490Y-64324500D01*
X81483488Y-64324500D01*
X80966512Y-64324500D01*
X80966510Y-64324500D01*
X80866874Y-64340281D01*
X80866867Y-64340283D01*
X80746782Y-64401470D01*
X80651470Y-64496782D01*
X80626676Y-64545445D01*
X80583411Y-64588710D01*
X80538466Y-64599500D01*
X80294401Y-64599500D01*
X80236210Y-64580593D01*
X80224397Y-64570504D01*
X80021208Y-64367315D01*
X79993431Y-64312798D01*
X79993247Y-64283040D01*
X80000500Y-64233260D01*
X80000500Y-63866740D01*
X79993247Y-63816960D01*
X80003566Y-63756653D01*
X80021205Y-63732686D01*
X81045480Y-62708413D01*
X81098207Y-62617088D01*
X81098208Y-62617081D01*
X81100639Y-62611216D01*
X81140375Y-62564690D01*
X81192104Y-62550100D01*
X85945660Y-62550100D01*
X85995158Y-62563362D01*
X86027886Y-62582259D01*
X86068826Y-62627729D01*
X86075220Y-62688579D01*
X86048388Y-62737997D01*
X86007300Y-62779084D01*
X86007296Y-62779090D01*
X85941409Y-62893209D01*
X85931471Y-62930299D01*
X85907300Y-63020508D01*
X85907300Y-63152292D01*
X85937379Y-63264551D01*
X85941409Y-63279590D01*
X86007296Y-63393709D01*
X86007298Y-63393711D01*
X86007300Y-63393714D01*
X86100486Y-63486900D01*
X86100488Y-63486901D01*
X86100490Y-63486903D01*
X86214610Y-63552790D01*
X86214608Y-63552790D01*
X86214612Y-63552791D01*
X86214614Y-63552792D01*
X86341908Y-63586900D01*
X86341910Y-63586900D01*
X86473690Y-63586900D01*
X86473692Y-63586900D01*
X86600986Y-63552792D01*
X86600988Y-63552790D01*
X86600990Y-63552790D01*
X86640025Y-63530253D01*
X88299500Y-63530253D01*
X88299500Y-64469746D01*
X88299501Y-64469758D01*
X88311132Y-64528227D01*
X88311134Y-64528233D01*
X88355445Y-64594548D01*
X88355448Y-64594552D01*
X88421769Y-64638867D01*
X88455940Y-64645664D01*
X88480241Y-64650498D01*
X88480246Y-64650498D01*
X88480252Y-64650500D01*
X88480253Y-64650500D01*
X90019747Y-64650500D01*
X90019748Y-64650500D01*
X90078231Y-64638867D01*
X90144552Y-64594552D01*
X90188867Y-64528231D01*
X90200500Y-64469748D01*
X90200500Y-64424500D01*
X90219407Y-64366309D01*
X90268907Y-64330345D01*
X90299500Y-64325500D01*
X90529765Y-64325500D01*
X90587956Y-64344407D01*
X90599769Y-64354496D01*
X91250769Y-65005496D01*
X91278546Y-65060013D01*
X91268975Y-65120445D01*
X91225710Y-65163710D01*
X91180765Y-65174500D01*
X90299500Y-65174500D01*
X90241309Y-65155593D01*
X90205345Y-65106093D01*
X90200500Y-65075500D01*
X90200500Y-65030253D01*
X90200498Y-65030241D01*
X90195576Y-65005496D01*
X90188867Y-64971769D01*
X90144552Y-64905448D01*
X90118238Y-64887865D01*
X90078233Y-64861134D01*
X90078231Y-64861133D01*
X90078228Y-64861132D01*
X90078227Y-64861132D01*
X90019758Y-64849501D01*
X90019748Y-64849500D01*
X88480252Y-64849500D01*
X88480251Y-64849500D01*
X88480241Y-64849501D01*
X88421772Y-64861132D01*
X88421766Y-64861134D01*
X88355451Y-64905445D01*
X88355445Y-64905451D01*
X88311134Y-64971766D01*
X88311132Y-64971772D01*
X88299501Y-65030241D01*
X88299500Y-65030253D01*
X88299500Y-65969746D01*
X88299501Y-65969758D01*
X88311132Y-66028227D01*
X88311134Y-66028233D01*
X88355445Y-66094548D01*
X88355448Y-66094552D01*
X88421769Y-66138867D01*
X88466231Y-66147711D01*
X88480241Y-66150498D01*
X88480246Y-66150498D01*
X88480252Y-66150500D01*
X88480253Y-66150500D01*
X90019747Y-66150500D01*
X90019748Y-66150500D01*
X90078231Y-66138867D01*
X90144552Y-66094552D01*
X90188867Y-66028231D01*
X90200500Y-65969748D01*
X90200500Y-65924500D01*
X90219407Y-65866309D01*
X90268907Y-65830345D01*
X90299500Y-65825500D01*
X91027165Y-65825500D01*
X91085356Y-65844407D01*
X91097169Y-65854496D01*
X91332538Y-66089865D01*
X91360315Y-66144382D01*
X91350744Y-66204814D01*
X91312035Y-66245605D01*
X91204487Y-66307698D01*
X91204484Y-66307700D01*
X91158481Y-66353704D01*
X91103964Y-66381481D01*
X91088478Y-66382700D01*
X90667432Y-66382700D01*
X90667416Y-66382699D01*
X90661353Y-66382699D01*
X90575648Y-66382699D01*
X90512944Y-66399501D01*
X90512943Y-66399500D01*
X90492864Y-66404881D01*
X90492862Y-66404881D01*
X90492862Y-66404882D01*
X90423374Y-66445001D01*
X90418635Y-66447737D01*
X90363678Y-66502692D01*
X90363679Y-66502693D01*
X90363676Y-66502696D01*
X90363672Y-66502699D01*
X90353889Y-66512481D01*
X90299371Y-66540256D01*
X90238939Y-66530681D01*
X90195677Y-66487415D01*
X90192425Y-66480359D01*
X90188867Y-66471771D01*
X90188867Y-66471769D01*
X90144552Y-66405448D01*
X90143705Y-66404882D01*
X90078233Y-66361134D01*
X90078231Y-66361133D01*
X90078228Y-66361132D01*
X90078227Y-66361132D01*
X90019758Y-66349501D01*
X90019748Y-66349500D01*
X88480252Y-66349500D01*
X88480251Y-66349500D01*
X88480241Y-66349501D01*
X88421772Y-66361132D01*
X88421766Y-66361134D01*
X88355451Y-66405445D01*
X88355445Y-66405451D01*
X88311134Y-66471766D01*
X88311132Y-66471772D01*
X88299501Y-66530241D01*
X88299500Y-66530253D01*
X88299500Y-67469746D01*
X88299501Y-67469758D01*
X88311132Y-67528227D01*
X88311134Y-67528233D01*
X88337375Y-67567505D01*
X88355448Y-67594552D01*
X88421769Y-67638867D01*
X88466231Y-67647711D01*
X88480241Y-67650498D01*
X88480246Y-67650498D01*
X88480252Y-67650500D01*
X88480253Y-67650500D01*
X90019747Y-67650500D01*
X90019748Y-67650500D01*
X90078231Y-67638867D01*
X90144552Y-67594552D01*
X90188867Y-67528231D01*
X90200500Y-67469748D01*
X90200500Y-67424500D01*
X90219407Y-67366309D01*
X90268907Y-67330345D01*
X90299500Y-67325500D01*
X90369551Y-67325500D01*
X90369553Y-67325500D01*
X90452339Y-67303318D01*
X90452341Y-67303316D01*
X90452343Y-67303316D01*
X90526557Y-67260468D01*
X90526557Y-67260467D01*
X90526562Y-67260465D01*
X90724329Y-67062696D01*
X90778846Y-67034919D01*
X90794333Y-67033700D01*
X91088478Y-67033700D01*
X91146669Y-67052607D01*
X91158481Y-67062696D01*
X91204484Y-67108699D01*
X91204490Y-67108703D01*
X91318610Y-67174590D01*
X91318608Y-67174590D01*
X91318612Y-67174591D01*
X91318614Y-67174592D01*
X91445908Y-67208700D01*
X91445910Y-67208700D01*
X91577690Y-67208700D01*
X91577692Y-67208700D01*
X91704986Y-67174592D01*
X91704988Y-67174590D01*
X91704990Y-67174590D01*
X91819109Y-67108703D01*
X91819109Y-67108702D01*
X91819114Y-67108700D01*
X91912300Y-67015514D01*
X91974394Y-66907963D01*
X92019863Y-66867024D01*
X92080713Y-66860628D01*
X92130134Y-66887461D01*
X92965635Y-67722962D01*
X92965634Y-67722962D01*
X93003138Y-67760465D01*
X93026238Y-67783565D01*
X93100462Y-67826418D01*
X93183247Y-67848600D01*
X97278765Y-67848600D01*
X97336956Y-67867507D01*
X97348769Y-67877596D01*
X97806751Y-68335578D01*
X97834528Y-68390095D01*
X97824957Y-68450527D01*
X97781692Y-68493792D01*
X97762375Y-68501207D01*
X97749316Y-68504706D01*
X97749310Y-68504709D01*
X97635190Y-68570596D01*
X97635184Y-68570600D01*
X97589181Y-68616604D01*
X97534664Y-68644381D01*
X97519178Y-68645600D01*
X96286932Y-68645600D01*
X96286916Y-68645599D01*
X96280853Y-68645599D01*
X96195147Y-68645599D01*
X96195144Y-68645599D01*
X96112361Y-68667781D01*
X96088834Y-68681365D01*
X96075250Y-68689208D01*
X96051721Y-68702792D01*
X96038137Y-68710635D01*
X95977534Y-68771237D01*
X95977535Y-68771238D01*
X94296769Y-70452004D01*
X94242252Y-70479781D01*
X94226765Y-70481000D01*
X90981468Y-70481000D01*
X90915478Y-70498681D01*
X90906639Y-70501050D01*
X90839557Y-70539780D01*
X90784780Y-70594556D01*
X90784781Y-70594557D01*
X90356119Y-71023219D01*
X90301602Y-71050996D01*
X90241170Y-71041425D01*
X90197905Y-70998160D01*
X90189018Y-70972529D01*
X90188867Y-70971769D01*
X90144552Y-70905448D01*
X90144548Y-70905445D01*
X90078233Y-70861134D01*
X90078231Y-70861133D01*
X90078228Y-70861132D01*
X90078227Y-70861132D01*
X90019758Y-70849501D01*
X90019748Y-70849500D01*
X88480252Y-70849500D01*
X88480251Y-70849500D01*
X88480241Y-70849501D01*
X88421772Y-70861132D01*
X88421766Y-70861134D01*
X88355451Y-70905445D01*
X88355445Y-70905451D01*
X88311134Y-70971766D01*
X88311132Y-70971772D01*
X88299501Y-71030241D01*
X88299500Y-71030253D01*
X88299500Y-71969746D01*
X88299501Y-71969758D01*
X88311132Y-72028227D01*
X88311134Y-72028233D01*
X88355445Y-72094548D01*
X88355448Y-72094552D01*
X88421769Y-72138867D01*
X88466231Y-72147711D01*
X88480241Y-72150498D01*
X88480246Y-72150498D01*
X88480252Y-72150500D01*
X88480253Y-72150500D01*
X90019747Y-72150500D01*
X90019748Y-72150500D01*
X90078231Y-72138867D01*
X90144552Y-72094552D01*
X90188867Y-72028231D01*
X90200500Y-71969748D01*
X90200500Y-71893200D01*
X90219407Y-71835009D01*
X90268907Y-71799045D01*
X90299500Y-71794200D01*
X90334130Y-71794200D01*
X90334132Y-71794200D01*
X90408957Y-71774151D01*
X90476043Y-71735419D01*
X90530819Y-71680643D01*
X90530819Y-71680641D01*
X90538969Y-71672492D01*
X90538971Y-71672489D01*
X91113066Y-71098396D01*
X91167582Y-71070619D01*
X91183069Y-71069400D01*
X94266556Y-71069400D01*
X94304438Y-71076934D01*
X94308257Y-71078515D01*
X94308261Y-71078518D01*
X94391047Y-71100700D01*
X94391049Y-71100700D01*
X94476751Y-71100700D01*
X94476753Y-71100700D01*
X94559539Y-71078518D01*
X94559541Y-71078516D01*
X94559543Y-71078516D01*
X94633757Y-71035668D01*
X94633757Y-71035667D01*
X94633762Y-71035665D01*
X96343830Y-69325595D01*
X96398347Y-69297819D01*
X96413834Y-69296600D01*
X97519178Y-69296600D01*
X97577369Y-69315507D01*
X97589181Y-69325596D01*
X97635184Y-69371599D01*
X97635190Y-69371603D01*
X97749310Y-69437490D01*
X97749308Y-69437490D01*
X97749312Y-69437491D01*
X97749314Y-69437492D01*
X97876608Y-69471600D01*
X97876610Y-69471600D01*
X98008390Y-69471600D01*
X98008392Y-69471600D01*
X98135686Y-69437492D01*
X98135688Y-69437490D01*
X98135690Y-69437490D01*
X98249809Y-69371603D01*
X98249809Y-69371602D01*
X98249814Y-69371600D01*
X98343000Y-69278414D01*
X98364028Y-69241992D01*
X98408890Y-69164290D01*
X98408890Y-69164288D01*
X98408892Y-69164286D01*
X98412390Y-69151227D01*
X98445714Y-69099915D01*
X98502835Y-69077988D01*
X98561936Y-69093823D01*
X98578021Y-69106848D01*
X99472204Y-70001031D01*
X99499981Y-70055548D01*
X99501200Y-70071035D01*
X99501200Y-77800500D01*
X99482293Y-77858691D01*
X99432793Y-77894655D01*
X99402200Y-77899500D01*
X99030252Y-77899500D01*
X99030251Y-77899500D01*
X99030241Y-77899501D01*
X98971772Y-77911132D01*
X98971766Y-77911134D01*
X98905451Y-77955445D01*
X98905445Y-77955451D01*
X98861134Y-78021766D01*
X98861132Y-78021772D01*
X98849501Y-78080241D01*
X98849500Y-78080253D01*
X98849500Y-78419746D01*
X98849501Y-78419758D01*
X98861132Y-78478227D01*
X98861134Y-78478233D01*
X98904477Y-78543099D01*
X98905448Y-78544552D01*
X98971769Y-78588867D01*
X99016231Y-78597711D01*
X99030241Y-78600498D01*
X99030246Y-78600498D01*
X99030252Y-78600500D01*
X99030253Y-78600500D01*
X99519747Y-78600500D01*
X99519748Y-78600500D01*
X99578231Y-78588867D01*
X99578237Y-78588862D01*
X99587243Y-78585134D01*
X99588276Y-78587630D01*
X99628268Y-78575500D01*
X99869551Y-78575500D01*
X99869553Y-78575500D01*
X99952338Y-78553318D01*
X100026562Y-78510465D01*
X100087165Y-78449862D01*
X100130018Y-78375638D01*
X100152200Y-78292853D01*
X100152200Y-69852347D01*
X100152142Y-69852132D01*
X100148967Y-69840280D01*
X100148967Y-69840281D01*
X100130018Y-69769561D01*
X100130016Y-69769558D01*
X100130016Y-69769556D01*
X100087168Y-69695342D01*
X100087166Y-69695340D01*
X100087165Y-69695338D01*
X99922080Y-69530253D01*
X105799500Y-69530253D01*
X105799500Y-70469746D01*
X105799501Y-70469758D01*
X105811132Y-70528227D01*
X105811134Y-70528233D01*
X105822301Y-70544945D01*
X105855448Y-70594552D01*
X105921769Y-70638867D01*
X105966231Y-70647711D01*
X105980241Y-70650498D01*
X105980246Y-70650498D01*
X105980252Y-70650500D01*
X105980253Y-70650500D01*
X107519747Y-70650500D01*
X107519748Y-70650500D01*
X107578231Y-70638867D01*
X107644552Y-70594552D01*
X107688867Y-70528231D01*
X107700500Y-70469748D01*
X107700500Y-70393200D01*
X107719407Y-70335009D01*
X107768907Y-70299045D01*
X107799500Y-70294200D01*
X107834130Y-70294200D01*
X107834132Y-70294200D01*
X107908957Y-70274151D01*
X107976043Y-70235419D01*
X108030819Y-70180643D01*
X108030819Y-70180641D01*
X108038969Y-70172492D01*
X108038971Y-70172489D01*
X108613066Y-69598396D01*
X108667582Y-69570619D01*
X108683069Y-69569400D01*
X109308757Y-69569400D01*
X109346642Y-69576936D01*
X109350456Y-69578516D01*
X109350460Y-69578517D01*
X109350462Y-69578518D01*
X109433247Y-69600700D01*
X109433249Y-69600700D01*
X109518951Y-69600700D01*
X109518953Y-69600700D01*
X109601738Y-69578518D01*
X109675962Y-69535665D01*
X109736565Y-69475062D01*
X109779418Y-69400838D01*
X109781790Y-69391981D01*
X109807414Y-69347598D01*
X109876600Y-69278414D01*
X109897628Y-69241992D01*
X109942490Y-69164290D01*
X109942490Y-69164288D01*
X109942492Y-69164286D01*
X109976600Y-69036992D01*
X109976600Y-68905208D01*
X109942492Y-68777914D01*
X109942490Y-68777911D01*
X109942490Y-68777909D01*
X109876603Y-68663790D01*
X109876601Y-68663788D01*
X109876600Y-68663786D01*
X109783414Y-68570600D01*
X109783411Y-68570598D01*
X109783409Y-68570596D01*
X109669289Y-68504709D01*
X109669291Y-68504709D01*
X109619899Y-68491475D01*
X109541992Y-68470600D01*
X109410208Y-68470600D01*
X109332300Y-68491475D01*
X109282909Y-68504709D01*
X109168790Y-68570596D01*
X109075596Y-68663790D01*
X109009709Y-68777909D01*
X108974953Y-68907623D01*
X108941629Y-68958937D01*
X108884507Y-68980864D01*
X108879326Y-68981000D01*
X108481468Y-68981000D01*
X108425061Y-68996114D01*
X108406639Y-69001050D01*
X108339557Y-69039780D01*
X108284780Y-69094556D01*
X108284781Y-69094557D01*
X107856119Y-69523219D01*
X107801602Y-69550996D01*
X107741170Y-69541425D01*
X107697905Y-69498160D01*
X107689018Y-69472529D01*
X107688867Y-69471769D01*
X107644552Y-69405448D01*
X107637653Y-69400838D01*
X107578233Y-69361134D01*
X107578231Y-69361133D01*
X107578228Y-69361132D01*
X107578227Y-69361132D01*
X107519758Y-69349501D01*
X107519748Y-69349500D01*
X105980252Y-69349500D01*
X105980251Y-69349500D01*
X105980241Y-69349501D01*
X105921772Y-69361132D01*
X105921766Y-69361134D01*
X105855451Y-69405445D01*
X105855445Y-69405451D01*
X105811134Y-69471766D01*
X105811132Y-69471772D01*
X105799501Y-69530241D01*
X105799500Y-69530253D01*
X99922080Y-69530253D01*
X98422080Y-68030253D01*
X105799500Y-68030253D01*
X105799500Y-68969746D01*
X105799501Y-68969758D01*
X105811132Y-69028227D01*
X105811134Y-69028233D01*
X105854961Y-69093823D01*
X105855448Y-69094552D01*
X105921769Y-69138867D01*
X105966231Y-69147711D01*
X105980241Y-69150498D01*
X105980246Y-69150498D01*
X105980252Y-69150500D01*
X105980253Y-69150500D01*
X107519747Y-69150500D01*
X107519748Y-69150500D01*
X107578231Y-69138867D01*
X107644552Y-69094552D01*
X107688867Y-69028231D01*
X107700500Y-68969748D01*
X107700500Y-68030252D01*
X107688867Y-67971769D01*
X107644552Y-67905448D01*
X107627280Y-67893907D01*
X107578233Y-67861134D01*
X107578231Y-67861133D01*
X107578228Y-67861132D01*
X107578227Y-67861132D01*
X107519758Y-67849501D01*
X107519748Y-67849500D01*
X105980252Y-67849500D01*
X105980251Y-67849500D01*
X105980241Y-67849501D01*
X105921772Y-67861132D01*
X105921766Y-67861134D01*
X105855451Y-67905445D01*
X105855445Y-67905451D01*
X105811134Y-67971766D01*
X105811132Y-67971772D01*
X105799501Y-68030241D01*
X105799500Y-68030253D01*
X98422080Y-68030253D01*
X97654462Y-67262635D01*
X97654459Y-67262633D01*
X97654457Y-67262631D01*
X97580242Y-67219783D01*
X97580244Y-67219783D01*
X97548121Y-67211176D01*
X97497453Y-67197600D01*
X97497451Y-67197600D01*
X93401935Y-67197600D01*
X93343744Y-67178693D01*
X93331931Y-67168604D01*
X92693580Y-66530253D01*
X105799500Y-66530253D01*
X105799500Y-67469746D01*
X105799501Y-67469758D01*
X105811132Y-67528227D01*
X105811134Y-67528233D01*
X105837375Y-67567505D01*
X105855448Y-67594552D01*
X105921769Y-67638867D01*
X105966231Y-67647711D01*
X105980241Y-67650498D01*
X105980246Y-67650498D01*
X105980252Y-67650500D01*
X105980253Y-67650500D01*
X107519747Y-67650500D01*
X107519748Y-67650500D01*
X107578231Y-67638867D01*
X107644552Y-67594552D01*
X107688867Y-67528231D01*
X107700500Y-67469748D01*
X107700500Y-66810108D01*
X111026100Y-66810108D01*
X111026100Y-66941892D01*
X111037666Y-66985056D01*
X111060209Y-67069190D01*
X111126096Y-67183309D01*
X111126098Y-67183311D01*
X111126100Y-67183314D01*
X111219286Y-67276500D01*
X111219288Y-67276501D01*
X111219290Y-67276503D01*
X111333410Y-67342390D01*
X111333408Y-67342390D01*
X111333412Y-67342391D01*
X111333414Y-67342392D01*
X111460708Y-67376500D01*
X111460710Y-67376500D01*
X111592490Y-67376500D01*
X111592492Y-67376500D01*
X111719786Y-67342392D01*
X111719788Y-67342390D01*
X111719790Y-67342390D01*
X111833909Y-67276503D01*
X111833910Y-67276502D01*
X111833914Y-67276500D01*
X111849950Y-67260464D01*
X111879919Y-67230496D01*
X111934436Y-67202719D01*
X111949922Y-67201500D01*
X113873465Y-67201500D01*
X113931656Y-67220407D01*
X113943469Y-67230496D01*
X114473438Y-67760465D01*
X114473440Y-67760466D01*
X114473441Y-67760467D01*
X114473442Y-67760468D01*
X114547657Y-67803316D01*
X114547655Y-67803316D01*
X114547659Y-67803317D01*
X114547661Y-67803318D01*
X114630447Y-67825500D01*
X114700500Y-67825500D01*
X114758691Y-67844407D01*
X114794655Y-67893907D01*
X114799500Y-67924500D01*
X114799500Y-68269746D01*
X114799501Y-68269758D01*
X114811132Y-68328227D01*
X114811134Y-68328233D01*
X114855746Y-68394998D01*
X114872355Y-68453886D01*
X114855746Y-68505002D01*
X114811134Y-68571766D01*
X114811132Y-68571772D01*
X114799501Y-68630241D01*
X114799500Y-68630253D01*
X114799500Y-70169746D01*
X114799501Y-70169758D01*
X114811132Y-70228227D01*
X114811134Y-70228233D01*
X114855746Y-70294998D01*
X114872355Y-70353886D01*
X114855746Y-70405002D01*
X114811134Y-70471766D01*
X114811132Y-70471772D01*
X114799501Y-70530241D01*
X114799500Y-70530253D01*
X114799500Y-72069746D01*
X114799501Y-72069758D01*
X114811132Y-72128227D01*
X114811134Y-72128233D01*
X114838646Y-72169407D01*
X114855448Y-72194552D01*
X114921769Y-72238867D01*
X114966231Y-72247711D01*
X114980241Y-72250498D01*
X114980246Y-72250498D01*
X114980252Y-72250500D01*
X114980253Y-72250500D01*
X116819747Y-72250500D01*
X116819748Y-72250500D01*
X116878231Y-72238867D01*
X116944552Y-72194552D01*
X116988867Y-72128231D01*
X117000500Y-72069748D01*
X117000500Y-71425001D01*
X128000000Y-71425001D01*
X128000000Y-72069700D01*
X128011603Y-72128036D01*
X128055806Y-72194189D01*
X128055810Y-72194193D01*
X128121963Y-72238396D01*
X128180299Y-72249999D01*
X128180303Y-72250000D01*
X128974999Y-72250000D01*
X128975000Y-72249999D01*
X128975000Y-71425001D01*
X128974999Y-71425000D01*
X128000001Y-71425000D01*
X128000000Y-71425001D01*
X117000500Y-71425001D01*
X117000500Y-70530252D01*
X117000098Y-70528233D01*
X116990703Y-70481000D01*
X116988867Y-70471769D01*
X116944552Y-70405448D01*
X116944549Y-70405446D01*
X116944253Y-70405003D01*
X116927644Y-70346115D01*
X116944253Y-70294997D01*
X116944549Y-70294553D01*
X116944552Y-70294552D01*
X116988867Y-70228231D01*
X117000500Y-70169748D01*
X117000500Y-69525001D01*
X128000000Y-69525001D01*
X128000000Y-70169700D01*
X128011603Y-70228035D01*
X128056347Y-70294999D01*
X128072955Y-70353887D01*
X128056347Y-70405001D01*
X128011603Y-70471964D01*
X128000000Y-70530299D01*
X128000000Y-71174999D01*
X128000001Y-71175000D01*
X128974999Y-71175000D01*
X128975000Y-71174999D01*
X128975000Y-69525001D01*
X128974999Y-69525000D01*
X128000001Y-69525000D01*
X128000000Y-69525001D01*
X117000500Y-69525001D01*
X117000500Y-68630252D01*
X116988867Y-68571769D01*
X116944552Y-68505448D01*
X116944549Y-68505446D01*
X116944253Y-68505003D01*
X116927644Y-68446115D01*
X116944253Y-68394997D01*
X116944549Y-68394553D01*
X116944552Y-68394552D01*
X116988867Y-68328231D01*
X117000500Y-68269748D01*
X117000500Y-67625001D01*
X128000000Y-67625001D01*
X128000000Y-68269700D01*
X128011603Y-68328035D01*
X128056347Y-68394999D01*
X128072955Y-68453887D01*
X128056347Y-68505001D01*
X128011603Y-68571964D01*
X128000000Y-68630299D01*
X128000000Y-69274999D01*
X128000001Y-69275000D01*
X128974999Y-69275000D01*
X128975000Y-69274999D01*
X128975000Y-67625000D01*
X128000001Y-67625000D01*
X128000000Y-67625001D01*
X117000500Y-67625001D01*
X117000500Y-66730252D01*
X116988867Y-66671769D01*
X116944552Y-66605448D01*
X116944549Y-66605446D01*
X116944253Y-66605003D01*
X116927644Y-66546115D01*
X116944253Y-66494997D01*
X116944549Y-66494553D01*
X116944552Y-66494552D01*
X116988867Y-66428231D01*
X117000500Y-66369748D01*
X117000500Y-64830252D01*
X116988867Y-64771769D01*
X116944552Y-64705448D01*
X116944551Y-64705447D01*
X116943953Y-64704552D01*
X116927344Y-64645664D01*
X116943953Y-64594547D01*
X116988396Y-64528034D01*
X116999999Y-64469700D01*
X117000000Y-64469697D01*
X117000000Y-63825001D01*
X116999999Y-63825000D01*
X114800001Y-63825000D01*
X114800000Y-63825001D01*
X114800000Y-64469700D01*
X114811603Y-64528036D01*
X114856046Y-64594548D01*
X114872655Y-64653436D01*
X114856046Y-64704552D01*
X114811134Y-64771766D01*
X114811132Y-64771772D01*
X114799501Y-64830241D01*
X114799500Y-64830253D01*
X114799500Y-65175500D01*
X114780593Y-65233691D01*
X114731093Y-65269655D01*
X114700500Y-65274500D01*
X114630447Y-65274500D01*
X114581870Y-65287516D01*
X114547656Y-65296683D01*
X114473442Y-65339531D01*
X114473437Y-65339535D01*
X114139268Y-65673704D01*
X114084752Y-65701481D01*
X114069265Y-65702700D01*
X112782822Y-65702700D01*
X112724631Y-65683793D01*
X112712819Y-65673704D01*
X112666815Y-65627700D01*
X112666809Y-65627696D01*
X112552689Y-65561809D01*
X112552691Y-65561809D01*
X112503299Y-65548575D01*
X112425392Y-65527700D01*
X112293608Y-65527700D01*
X112215700Y-65548575D01*
X112166309Y-65561809D01*
X112052190Y-65627696D01*
X111958996Y-65720890D01*
X111893109Y-65835009D01*
X111875614Y-65900302D01*
X111859000Y-65962308D01*
X111859000Y-66094092D01*
X111880179Y-66173134D01*
X111893108Y-66221387D01*
X111958037Y-66333847D01*
X111970758Y-66393696D01*
X111945871Y-66449591D01*
X111892883Y-66480184D01*
X111832033Y-66473788D01*
X111822800Y-66469083D01*
X111719789Y-66409609D01*
X111719791Y-66409609D01*
X111660401Y-66393696D01*
X111592492Y-66375500D01*
X111460708Y-66375500D01*
X111392799Y-66393696D01*
X111333409Y-66409609D01*
X111219290Y-66475496D01*
X111126096Y-66568690D01*
X111060209Y-66682809D01*
X111041139Y-66753978D01*
X111026100Y-66810108D01*
X107700500Y-66810108D01*
X107700500Y-66530252D01*
X107688867Y-66471769D01*
X107644552Y-66405448D01*
X107643705Y-66404882D01*
X107578233Y-66361134D01*
X107578231Y-66361133D01*
X107578228Y-66361132D01*
X107578227Y-66361132D01*
X107519758Y-66349501D01*
X107519748Y-66349500D01*
X105980252Y-66349500D01*
X105980251Y-66349500D01*
X105980241Y-66349501D01*
X105921772Y-66361132D01*
X105921766Y-66361134D01*
X105855451Y-66405445D01*
X105855445Y-66405451D01*
X105811134Y-66471766D01*
X105811132Y-66471772D01*
X105799501Y-66530241D01*
X105799500Y-66530253D01*
X92693580Y-66530253D01*
X92063629Y-65900302D01*
X92035852Y-65845785D01*
X92045423Y-65785353D01*
X92088688Y-65742088D01*
X92108005Y-65734673D01*
X92154586Y-65722192D01*
X92252102Y-65665891D01*
X92268709Y-65656303D01*
X92268709Y-65656302D01*
X92268714Y-65656300D01*
X92361900Y-65563114D01*
X92361903Y-65563109D01*
X92427790Y-65448990D01*
X92427790Y-65448988D01*
X92427792Y-65448986D01*
X92461900Y-65321692D01*
X92461900Y-65189908D01*
X92427792Y-65062614D01*
X92427789Y-65062610D01*
X92427788Y-65062606D01*
X92409109Y-65030253D01*
X105799500Y-65030253D01*
X105799500Y-65969746D01*
X105799501Y-65969758D01*
X105811132Y-66028227D01*
X105811134Y-66028233D01*
X105855445Y-66094548D01*
X105855448Y-66094552D01*
X105921769Y-66138867D01*
X105966231Y-66147711D01*
X105980241Y-66150498D01*
X105980246Y-66150498D01*
X105980252Y-66150500D01*
X105980253Y-66150500D01*
X107519747Y-66150500D01*
X107519748Y-66150500D01*
X107578231Y-66138867D01*
X107644552Y-66094552D01*
X107688867Y-66028231D01*
X107700500Y-65969748D01*
X107700500Y-65030252D01*
X107688867Y-64971769D01*
X107644552Y-64905448D01*
X107618238Y-64887865D01*
X107578233Y-64861134D01*
X107578231Y-64861133D01*
X107578228Y-64861132D01*
X107578227Y-64861132D01*
X107519758Y-64849501D01*
X107519748Y-64849500D01*
X105980252Y-64849500D01*
X105980251Y-64849500D01*
X105980241Y-64849501D01*
X105921772Y-64861132D01*
X105921766Y-64861134D01*
X105855451Y-64905445D01*
X105855445Y-64905451D01*
X105811134Y-64971766D01*
X105811132Y-64971772D01*
X105799501Y-65030241D01*
X105799500Y-65030253D01*
X92409109Y-65030253D01*
X92361903Y-64948490D01*
X92361901Y-64948488D01*
X92361900Y-64948486D01*
X92268714Y-64855300D01*
X92268711Y-64855298D01*
X92268709Y-64855296D01*
X92154589Y-64789409D01*
X92154591Y-64789409D01*
X92088767Y-64771772D01*
X92027292Y-64755300D01*
X92027290Y-64755300D01*
X91962235Y-64755300D01*
X91904044Y-64736393D01*
X91892231Y-64726304D01*
X91399183Y-64233256D01*
X90905462Y-63739535D01*
X90905459Y-63739533D01*
X90905458Y-63739532D01*
X90905457Y-63739531D01*
X90831242Y-63696683D01*
X90831244Y-63696683D01*
X90799121Y-63688076D01*
X90748453Y-63674500D01*
X90748451Y-63674500D01*
X90299500Y-63674500D01*
X90284588Y-63669655D01*
X90268907Y-63669655D01*
X90256221Y-63660438D01*
X90241309Y-63655593D01*
X90232092Y-63642907D01*
X90219407Y-63633691D01*
X90214561Y-63618778D01*
X90205345Y-63606093D01*
X90200500Y-63575500D01*
X90200500Y-63530253D01*
X105799500Y-63530253D01*
X105799500Y-64469746D01*
X105799501Y-64469758D01*
X105811132Y-64528227D01*
X105811134Y-64528233D01*
X105855445Y-64594548D01*
X105855448Y-64594552D01*
X105921769Y-64638867D01*
X105955940Y-64645664D01*
X105980241Y-64650498D01*
X105980246Y-64650498D01*
X105980252Y-64650500D01*
X105980253Y-64650500D01*
X107519747Y-64650500D01*
X107519748Y-64650500D01*
X107578231Y-64638867D01*
X107644552Y-64594552D01*
X107688867Y-64528231D01*
X107700500Y-64469748D01*
X107700500Y-64393200D01*
X107719407Y-64335009D01*
X107768907Y-64299045D01*
X107775931Y-64297046D01*
X107787542Y-64294200D01*
X107834132Y-64294200D01*
X107908957Y-64274151D01*
X107925962Y-64264333D01*
X107976043Y-64235419D01*
X108030819Y-64180643D01*
X108030819Y-64180641D01*
X108038969Y-64172492D01*
X108038971Y-64172489D01*
X108613066Y-63598396D01*
X108667582Y-63570619D01*
X108683069Y-63569400D01*
X109308757Y-63569400D01*
X109346642Y-63576936D01*
X109350456Y-63578516D01*
X109350460Y-63578517D01*
X109350462Y-63578518D01*
X109433247Y-63600700D01*
X109433249Y-63600700D01*
X109518951Y-63600700D01*
X109518953Y-63600700D01*
X109601738Y-63578518D01*
X109618655Y-63568750D01*
X109642529Y-63558860D01*
X109669286Y-63551692D01*
X109783414Y-63485800D01*
X109876600Y-63392614D01*
X109894776Y-63361132D01*
X109942490Y-63278490D01*
X109942490Y-63278488D01*
X109942492Y-63278486D01*
X109976600Y-63151192D01*
X109976600Y-63019408D01*
X109952724Y-62930299D01*
X114800000Y-62930299D01*
X114800000Y-63574999D01*
X114800001Y-63575000D01*
X115774999Y-63575000D01*
X115775000Y-63574999D01*
X115775000Y-62750001D01*
X116025000Y-62750001D01*
X116025000Y-63574999D01*
X116025001Y-63575000D01*
X116999999Y-63575000D01*
X117000000Y-63574999D01*
X117000000Y-63019408D01*
X120509200Y-63019408D01*
X120509200Y-63151192D01*
X120509495Y-63152292D01*
X120543309Y-63278490D01*
X120609196Y-63392609D01*
X120609198Y-63392611D01*
X120609200Y-63392614D01*
X120702386Y-63485800D01*
X120702388Y-63485801D01*
X120702390Y-63485803D01*
X120816510Y-63551690D01*
X120816508Y-63551690D01*
X120816512Y-63551691D01*
X120816514Y-63551692D01*
X120943808Y-63585800D01*
X120943810Y-63585800D01*
X121075590Y-63585800D01*
X121075592Y-63585800D01*
X121202886Y-63551692D01*
X121202888Y-63551690D01*
X121202890Y-63551690D01*
X121317009Y-63485803D01*
X121317009Y-63485802D01*
X121317014Y-63485800D01*
X121410200Y-63392614D01*
X121428376Y-63361132D01*
X121476090Y-63278490D01*
X121476090Y-63278488D01*
X121476092Y-63278486D01*
X121510200Y-63151192D01*
X121510200Y-63086134D01*
X121529107Y-63027944D01*
X121539196Y-63016131D01*
X122074131Y-62481196D01*
X122128648Y-62453419D01*
X122144135Y-62452200D01*
X123619187Y-62452200D01*
X123677378Y-62471107D01*
X123713342Y-62520607D01*
X123713342Y-62581793D01*
X123677378Y-62631293D01*
X123668687Y-62636936D01*
X123585790Y-62684796D01*
X123492596Y-62777990D01*
X123426709Y-62892109D01*
X123410913Y-62951061D01*
X123392600Y-63019408D01*
X123392600Y-63151192D01*
X123392895Y-63152292D01*
X123426709Y-63278490D01*
X123492596Y-63392609D01*
X123492598Y-63392611D01*
X123492600Y-63392614D01*
X123585786Y-63485800D01*
X123585788Y-63485801D01*
X123585790Y-63485803D01*
X123699910Y-63551690D01*
X123699908Y-63551690D01*
X123699912Y-63551691D01*
X123699914Y-63551692D01*
X123827208Y-63585800D01*
X123827210Y-63585800D01*
X123958990Y-63585800D01*
X123958992Y-63585800D01*
X124086286Y-63551692D01*
X124086288Y-63551690D01*
X124086290Y-63551690D01*
X124200409Y-63485803D01*
X124200410Y-63485802D01*
X124200414Y-63485800D01*
X124214448Y-63471766D01*
X124246419Y-63439796D01*
X124300936Y-63412019D01*
X124316422Y-63410800D01*
X125384251Y-63410800D01*
X125384253Y-63410800D01*
X125467039Y-63388618D01*
X125467041Y-63388616D01*
X125467043Y-63388616D01*
X125541257Y-63345768D01*
X125541257Y-63345767D01*
X125541262Y-63345765D01*
X126560465Y-62326562D01*
X126603318Y-62252339D01*
X126625500Y-62169553D01*
X126625500Y-62099500D01*
X126644407Y-62041309D01*
X126693907Y-62005345D01*
X126724500Y-62000500D01*
X127069747Y-62000500D01*
X127069748Y-62000500D01*
X127128231Y-61988867D01*
X127194552Y-61944552D01*
X127238867Y-61878231D01*
X127250500Y-61819748D01*
X127250500Y-59980252D01*
X127248400Y-59969697D01*
X127240045Y-59927693D01*
X127238867Y-59921769D01*
X127194552Y-59855448D01*
X127189624Y-59852155D01*
X127128233Y-59811134D01*
X127128231Y-59811133D01*
X127128228Y-59811132D01*
X127128227Y-59811132D01*
X127069758Y-59799501D01*
X127069748Y-59799500D01*
X125530252Y-59799500D01*
X125530251Y-59799500D01*
X125530241Y-59799501D01*
X125471772Y-59811132D01*
X125471766Y-59811134D01*
X125405002Y-59855746D01*
X125346114Y-59872355D01*
X125294998Y-59855746D01*
X125228233Y-59811134D01*
X125228231Y-59811133D01*
X125228228Y-59811132D01*
X125228227Y-59811132D01*
X125169758Y-59799501D01*
X125169748Y-59799500D01*
X123630252Y-59799500D01*
X123630251Y-59799500D01*
X123630241Y-59799501D01*
X123571772Y-59811132D01*
X123571766Y-59811134D01*
X123505002Y-59855746D01*
X123446114Y-59872355D01*
X123394998Y-59855746D01*
X123328233Y-59811134D01*
X123328231Y-59811133D01*
X123328228Y-59811132D01*
X123328227Y-59811132D01*
X123269758Y-59799501D01*
X123269748Y-59799500D01*
X121730252Y-59799500D01*
X121730251Y-59799500D01*
X121730241Y-59799501D01*
X121671772Y-59811132D01*
X121671766Y-59811134D01*
X121604552Y-59856046D01*
X121545663Y-59872655D01*
X121494548Y-59856046D01*
X121428036Y-59811603D01*
X121369700Y-59800000D01*
X120725001Y-59800000D01*
X120725000Y-59800001D01*
X120725000Y-61999999D01*
X120725001Y-62000000D01*
X121369697Y-62000000D01*
X121369697Y-61999999D01*
X121380375Y-61997876D01*
X121441136Y-62005067D01*
X121486066Y-62046599D01*
X121498004Y-62106609D01*
X121472389Y-62162174D01*
X121469694Y-62164977D01*
X121078869Y-62555803D01*
X121024352Y-62583581D01*
X121008865Y-62584800D01*
X120943808Y-62584800D01*
X120865900Y-62605675D01*
X120816509Y-62618909D01*
X120702390Y-62684796D01*
X120609196Y-62777990D01*
X120543309Y-62892109D01*
X120527513Y-62951061D01*
X120509200Y-63019408D01*
X117000000Y-63019408D01*
X117000000Y-62930302D01*
X116999999Y-62930299D01*
X116988396Y-62871963D01*
X116944193Y-62805810D01*
X116944189Y-62805806D01*
X116878036Y-62761603D01*
X116819700Y-62750000D01*
X116025001Y-62750000D01*
X116025000Y-62750001D01*
X115775000Y-62750001D01*
X115774999Y-62750000D01*
X114980299Y-62750000D01*
X114921963Y-62761603D01*
X114855810Y-62805806D01*
X114855806Y-62805810D01*
X114811603Y-62871963D01*
X114800000Y-62930299D01*
X109952724Y-62930299D01*
X109942492Y-62892114D01*
X109909013Y-62834126D01*
X109876603Y-62777990D01*
X109876601Y-62777988D01*
X109876600Y-62777986D01*
X109783414Y-62684800D01*
X109783411Y-62684798D01*
X109783409Y-62684796D01*
X109669289Y-62618909D01*
X109669291Y-62618909D01*
X109619899Y-62605675D01*
X109541992Y-62584800D01*
X109410208Y-62584800D01*
X109332300Y-62605675D01*
X109282909Y-62618909D01*
X109168790Y-62684796D01*
X109075596Y-62777990D01*
X109009709Y-62892109D01*
X109009413Y-62893214D01*
X109005551Y-62907624D01*
X108972229Y-62958937D01*
X108915108Y-62980864D01*
X108909926Y-62981000D01*
X108481468Y-62981000D01*
X108415478Y-62998681D01*
X108406639Y-63001050D01*
X108339557Y-63039780D01*
X108284780Y-63094556D01*
X108284781Y-63094557D01*
X107856119Y-63523219D01*
X107801602Y-63550996D01*
X107741170Y-63541425D01*
X107697905Y-63498160D01*
X107689018Y-63472529D01*
X107688867Y-63471769D01*
X107644552Y-63405448D01*
X107644548Y-63405445D01*
X107578233Y-63361134D01*
X107578231Y-63361133D01*
X107578228Y-63361132D01*
X107578227Y-63361132D01*
X107519758Y-63349501D01*
X107519748Y-63349500D01*
X105980252Y-63349500D01*
X105980251Y-63349500D01*
X105980241Y-63349501D01*
X105921772Y-63361132D01*
X105921766Y-63361134D01*
X105855451Y-63405445D01*
X105855445Y-63405451D01*
X105811134Y-63471766D01*
X105811132Y-63471772D01*
X105799501Y-63530241D01*
X105799500Y-63530253D01*
X90200500Y-63530253D01*
X90200498Y-63530241D01*
X90191877Y-63486902D01*
X90188867Y-63471769D01*
X90144552Y-63405448D01*
X90144548Y-63405445D01*
X90078233Y-63361134D01*
X90078231Y-63361133D01*
X90078228Y-63361132D01*
X90078227Y-63361132D01*
X90019758Y-63349501D01*
X90019748Y-63349500D01*
X88480252Y-63349500D01*
X88480251Y-63349500D01*
X88480241Y-63349501D01*
X88421772Y-63361132D01*
X88421766Y-63361134D01*
X88355451Y-63405445D01*
X88355445Y-63405451D01*
X88311134Y-63471766D01*
X88311132Y-63471772D01*
X88299501Y-63530241D01*
X88299500Y-63530253D01*
X86640025Y-63530253D01*
X86715109Y-63486903D01*
X86715109Y-63486902D01*
X86715114Y-63486900D01*
X86761118Y-63440896D01*
X86815635Y-63413119D01*
X86831122Y-63411900D01*
X87629751Y-63411900D01*
X87629753Y-63411900D01*
X87712539Y-63389718D01*
X87712541Y-63389716D01*
X87712543Y-63389716D01*
X87786757Y-63346868D01*
X87786757Y-63346867D01*
X87786762Y-63346865D01*
X88146106Y-62987519D01*
X88200623Y-62959742D01*
X88261055Y-62969313D01*
X88304320Y-63012578D01*
X88307575Y-63019639D01*
X88311134Y-63028233D01*
X88349823Y-63086134D01*
X88355448Y-63094552D01*
X88421769Y-63138867D01*
X88466231Y-63147711D01*
X88480241Y-63150498D01*
X88480246Y-63150498D01*
X88480252Y-63150500D01*
X88480253Y-63150500D01*
X90019747Y-63150500D01*
X90019748Y-63150500D01*
X90078231Y-63138867D01*
X90144552Y-63094552D01*
X90188867Y-63028231D01*
X90200500Y-62969748D01*
X90200500Y-62030253D01*
X105799500Y-62030253D01*
X105799500Y-62969746D01*
X105799501Y-62969758D01*
X105811132Y-63028227D01*
X105811134Y-63028233D01*
X105849823Y-63086134D01*
X105855448Y-63094552D01*
X105921769Y-63138867D01*
X105966231Y-63147711D01*
X105980241Y-63150498D01*
X105980246Y-63150498D01*
X105980252Y-63150500D01*
X105980253Y-63150500D01*
X107519747Y-63150500D01*
X107519748Y-63150500D01*
X107578231Y-63138867D01*
X107644552Y-63094552D01*
X107688867Y-63028231D01*
X107700500Y-62969748D01*
X107700500Y-62030252D01*
X107688867Y-61971769D01*
X107644552Y-61905448D01*
X107603528Y-61878036D01*
X107578233Y-61861134D01*
X107578231Y-61861133D01*
X107578228Y-61861132D01*
X107578227Y-61861132D01*
X107519758Y-61849501D01*
X107519748Y-61849500D01*
X105980252Y-61849500D01*
X105980251Y-61849500D01*
X105980241Y-61849501D01*
X105921772Y-61861132D01*
X105921766Y-61861134D01*
X105855451Y-61905445D01*
X105855445Y-61905451D01*
X105811134Y-61971766D01*
X105811132Y-61971772D01*
X105799501Y-62030241D01*
X105799500Y-62030253D01*
X90200500Y-62030253D01*
X90200500Y-62030252D01*
X90188867Y-61971769D01*
X90144552Y-61905448D01*
X90103528Y-61878036D01*
X90078233Y-61861134D01*
X90078231Y-61861133D01*
X90078228Y-61861132D01*
X90078227Y-61861132D01*
X90019758Y-61849501D01*
X90019748Y-61849500D01*
X88480252Y-61849500D01*
X88480251Y-61849500D01*
X88480241Y-61849501D01*
X88421772Y-61861132D01*
X88421766Y-61861134D01*
X88355451Y-61905445D01*
X88355445Y-61905451D01*
X88311134Y-61971766D01*
X88311132Y-61971772D01*
X88299501Y-62030241D01*
X88299500Y-62030253D01*
X88299500Y-62075500D01*
X88280593Y-62133691D01*
X88231093Y-62169655D01*
X88200500Y-62174500D01*
X88130447Y-62174500D01*
X88047661Y-62196682D01*
X88047660Y-62196682D01*
X88047658Y-62196683D01*
X88015083Y-62215491D01*
X87973436Y-62239535D01*
X87912834Y-62300137D01*
X87912835Y-62300138D01*
X87481069Y-62731904D01*
X87426552Y-62759681D01*
X87411065Y-62760900D01*
X86831122Y-62760900D01*
X86829799Y-62760470D01*
X86828468Y-62760864D01*
X86820604Y-62757482D01*
X86772931Y-62741993D01*
X86770805Y-62740404D01*
X86765681Y-62736467D01*
X86715114Y-62685900D01*
X86653770Y-62650483D01*
X86648598Y-62646509D01*
X86634792Y-62626394D01*
X86618474Y-62608271D01*
X86617772Y-62601597D01*
X86613974Y-62596063D01*
X86614627Y-62571674D01*
X86612079Y-62547421D01*
X86615444Y-62541222D01*
X86615614Y-62534899D01*
X86626741Y-62520416D01*
X86638910Y-62498003D01*
X86680000Y-62456914D01*
X86745892Y-62342786D01*
X86773133Y-62241114D01*
X86798756Y-62196736D01*
X87565998Y-61429496D01*
X87620514Y-61401719D01*
X87636001Y-61400500D01*
X88204478Y-61400500D01*
X88262669Y-61419407D01*
X88298633Y-61468907D01*
X88301575Y-61480184D01*
X88311055Y-61527839D01*
X88311133Y-61528231D01*
X88355448Y-61594552D01*
X88421769Y-61638867D01*
X88466231Y-61647711D01*
X88480241Y-61650498D01*
X88480246Y-61650498D01*
X88480252Y-61650500D01*
X88480253Y-61650500D01*
X90019747Y-61650500D01*
X90019748Y-61650500D01*
X90078231Y-61638867D01*
X90144552Y-61594552D01*
X90188867Y-61528231D01*
X90200500Y-61469748D01*
X90200500Y-60530253D01*
X105799500Y-60530253D01*
X105799500Y-61469746D01*
X105799501Y-61469758D01*
X105811055Y-61527839D01*
X105811133Y-61528231D01*
X105855448Y-61594552D01*
X105921769Y-61638867D01*
X105966231Y-61647711D01*
X105980241Y-61650498D01*
X105980246Y-61650498D01*
X105980252Y-61650500D01*
X105980253Y-61650500D01*
X107519747Y-61650500D01*
X107519748Y-61650500D01*
X107578231Y-61638867D01*
X107644552Y-61594552D01*
X107688867Y-61528231D01*
X107700500Y-61469748D01*
X107700500Y-61025001D01*
X117750000Y-61025001D01*
X117750000Y-61819700D01*
X117761603Y-61878036D01*
X117805806Y-61944189D01*
X117805810Y-61944193D01*
X117871963Y-61988396D01*
X117930299Y-61999999D01*
X117930303Y-62000000D01*
X118574999Y-62000000D01*
X118575000Y-61999999D01*
X118575000Y-61025001D01*
X118825000Y-61025001D01*
X118825000Y-61999999D01*
X118825001Y-62000000D01*
X119469697Y-62000000D01*
X119469700Y-61999999D01*
X119528036Y-61988396D01*
X119594998Y-61943653D01*
X119653886Y-61927044D01*
X119705002Y-61943653D01*
X119771963Y-61988396D01*
X119830299Y-61999999D01*
X119830303Y-62000000D01*
X120474999Y-62000000D01*
X120475000Y-61999999D01*
X120475000Y-61025001D01*
X120474999Y-61025000D01*
X118825001Y-61025000D01*
X118825000Y-61025001D01*
X118575000Y-61025001D01*
X118574999Y-61025000D01*
X117750001Y-61025000D01*
X117750000Y-61025001D01*
X107700500Y-61025001D01*
X107700500Y-60530252D01*
X107688867Y-60471769D01*
X107644552Y-60405448D01*
X107644548Y-60405445D01*
X107578233Y-60361134D01*
X107578231Y-60361133D01*
X107578228Y-60361132D01*
X107578227Y-60361132D01*
X107519758Y-60349501D01*
X107519748Y-60349500D01*
X105980252Y-60349500D01*
X105980251Y-60349500D01*
X105980241Y-60349501D01*
X105921772Y-60361132D01*
X105921766Y-60361134D01*
X105855451Y-60405445D01*
X105855445Y-60405451D01*
X105811134Y-60471766D01*
X105811132Y-60471772D01*
X105799501Y-60530241D01*
X105799500Y-60530253D01*
X90200500Y-60530253D01*
X90200500Y-60530252D01*
X90188867Y-60471769D01*
X90144552Y-60405448D01*
X90144548Y-60405445D01*
X90078233Y-60361134D01*
X90078231Y-60361133D01*
X90078228Y-60361132D01*
X90078227Y-60361132D01*
X90019758Y-60349501D01*
X90019748Y-60349500D01*
X88480252Y-60349500D01*
X88480251Y-60349500D01*
X88480241Y-60349501D01*
X88421772Y-60361132D01*
X88421766Y-60361134D01*
X88355451Y-60405445D01*
X88355445Y-60405451D01*
X88311134Y-60471766D01*
X88311132Y-60471772D01*
X88301575Y-60519816D01*
X88271678Y-60573199D01*
X88216112Y-60598814D01*
X88204478Y-60599500D01*
X87481827Y-60599500D01*
X87376373Y-60599500D01*
X87314029Y-60616204D01*
X87274507Y-60626794D01*
X87183191Y-60679516D01*
X87183186Y-60679520D01*
X86232361Y-61630343D01*
X86187982Y-61655965D01*
X86086314Y-61683207D01*
X86031281Y-61714981D01*
X85995158Y-61735836D01*
X85945660Y-61749100D01*
X81224500Y-61749100D01*
X81166309Y-61730193D01*
X81130345Y-61680693D01*
X81125500Y-61650100D01*
X81125500Y-61198795D01*
X81144407Y-61140604D01*
X81179554Y-61110585D01*
X81203220Y-61098528D01*
X81298528Y-61003220D01*
X81359719Y-60883126D01*
X81375500Y-60783488D01*
X81375500Y-60783453D01*
X81625000Y-60783453D01*
X81640760Y-60882965D01*
X81640762Y-60882969D01*
X81701881Y-61002921D01*
X81797078Y-61098118D01*
X81917030Y-61159237D01*
X81917029Y-61159237D01*
X82016545Y-61174999D01*
X82150000Y-61174999D01*
X82150000Y-60625001D01*
X82400000Y-60625001D01*
X82400000Y-61174998D01*
X82400001Y-61174999D01*
X82533453Y-61174999D01*
X82632965Y-61159239D01*
X82632969Y-61159237D01*
X82752921Y-61098118D01*
X82848118Y-61002921D01*
X82909237Y-60882969D01*
X82925000Y-60783453D01*
X82925000Y-60625001D01*
X82924999Y-60625000D01*
X82400001Y-60625000D01*
X82400000Y-60625001D01*
X82150000Y-60625001D01*
X82149999Y-60625000D01*
X81625002Y-60625000D01*
X81625001Y-60625001D01*
X81625001Y-60783453D01*
X81625000Y-60783453D01*
X81375500Y-60783453D01*
X81375500Y-60216546D01*
X81625000Y-60216546D01*
X81625000Y-60374999D01*
X81625001Y-60375000D01*
X82149999Y-60375000D01*
X82150000Y-60374999D01*
X82150000Y-59825001D01*
X82400000Y-59825001D01*
X82400000Y-60374999D01*
X82400001Y-60375000D01*
X82924998Y-60375000D01*
X82924999Y-60374999D01*
X82924999Y-60216546D01*
X82909239Y-60117034D01*
X82909237Y-60117030D01*
X82848118Y-59997078D01*
X82752921Y-59901881D01*
X82632969Y-59840762D01*
X82632970Y-59840762D01*
X82533454Y-59825000D01*
X82400001Y-59825000D01*
X82400000Y-59825001D01*
X82150000Y-59825001D01*
X82149999Y-59825000D01*
X82016547Y-59825000D01*
X82016546Y-59825001D01*
X81917034Y-59840760D01*
X81917030Y-59840762D01*
X81797078Y-59901881D01*
X81701881Y-59997078D01*
X81640762Y-60117030D01*
X81625000Y-60216546D01*
X81375500Y-60216546D01*
X81375500Y-60216512D01*
X81371857Y-60193514D01*
X81371703Y-60192541D01*
X81359719Y-60116874D01*
X81359716Y-60116869D01*
X81359716Y-60116867D01*
X81298529Y-59996782D01*
X81298528Y-59996780D01*
X81203220Y-59901472D01*
X81203217Y-59901470D01*
X81083132Y-59840283D01*
X81083127Y-59840281D01*
X81083126Y-59840281D01*
X81049913Y-59835020D01*
X80983490Y-59824500D01*
X80983488Y-59824500D01*
X80466512Y-59824500D01*
X80466510Y-59824500D01*
X80366874Y-59840281D01*
X80366867Y-59840283D01*
X80246782Y-59901470D01*
X80151470Y-59996782D01*
X80090283Y-60116867D01*
X80090281Y-60116874D01*
X80074500Y-60216510D01*
X80074500Y-60783489D01*
X80090281Y-60883125D01*
X80090283Y-60883132D01*
X80151470Y-61003217D01*
X80151472Y-61003220D01*
X80246780Y-61098528D01*
X80270444Y-61110585D01*
X80313708Y-61153848D01*
X80324500Y-61198795D01*
X80324500Y-62255599D01*
X80305593Y-62313790D01*
X80295504Y-62325603D01*
X79100603Y-63520504D01*
X79046086Y-63548281D01*
X79030599Y-63549500D01*
X78591740Y-63549500D01*
X78557673Y-63554463D01*
X78523604Y-63559427D01*
X78418518Y-63610801D01*
X78335799Y-63693520D01*
X78307299Y-63751819D01*
X78264756Y-63795793D01*
X78204490Y-63806362D01*
X78149522Y-63779489D01*
X78148355Y-63778342D01*
X78144919Y-63774906D01*
X78019514Y-63649500D01*
X78019511Y-63649498D01*
X78019509Y-63649496D01*
X77905389Y-63583609D01*
X77905391Y-63583609D01*
X77855999Y-63570375D01*
X77778092Y-63549500D01*
X77408260Y-63549500D01*
X76316740Y-63549500D01*
X76282673Y-63554463D01*
X76248604Y-63559427D01*
X76143518Y-63610801D01*
X76060801Y-63693518D01*
X76009427Y-63798604D01*
X76005581Y-63825001D01*
X75999500Y-63866740D01*
X63000500Y-63866740D01*
X63000500Y-55934108D01*
X70899500Y-55934108D01*
X70899500Y-56065892D01*
X70901434Y-56073108D01*
X70933609Y-56193190D01*
X70999496Y-56307309D01*
X70999498Y-56307311D01*
X70999500Y-56307314D01*
X71092686Y-56400500D01*
X71092688Y-56400501D01*
X71092690Y-56400503D01*
X71206810Y-56466390D01*
X71206808Y-56466390D01*
X71206812Y-56466391D01*
X71206814Y-56466392D01*
X71334108Y-56500500D01*
X71465892Y-56500500D01*
X71607744Y-56500500D01*
X71615341Y-56502968D01*
X71623231Y-56501719D01*
X71643886Y-56512243D01*
X71665935Y-56519407D01*
X71677748Y-56529496D01*
X71695504Y-56547252D01*
X71723281Y-56601769D01*
X71724500Y-56617255D01*
X71724500Y-57239708D01*
X71724500Y-57371492D01*
X71745670Y-57450500D01*
X71758609Y-57498790D01*
X71824496Y-57612909D01*
X71824497Y-57612910D01*
X71824498Y-57612911D01*
X71824500Y-57612914D01*
X72979690Y-58768104D01*
X73816500Y-59604914D01*
X73867082Y-59655496D01*
X73894859Y-59710013D01*
X73885288Y-59770445D01*
X73842023Y-59813710D01*
X73797078Y-59824500D01*
X73443479Y-59824500D01*
X73443476Y-59824501D01*
X73349700Y-59839352D01*
X73349695Y-59839354D01*
X73236659Y-59896949D01*
X73146949Y-59986659D01*
X73089354Y-60099695D01*
X73074500Y-60193477D01*
X73074500Y-60806520D01*
X73074501Y-60806523D01*
X73089352Y-60900299D01*
X73089354Y-60900304D01*
X73146950Y-61013342D01*
X73236658Y-61103050D01*
X73236660Y-61103051D01*
X73295445Y-61133004D01*
X73311834Y-61149393D01*
X73330593Y-61163022D01*
X73333061Y-61170619D01*
X73338710Y-61176268D01*
X73349500Y-61221213D01*
X73349500Y-61226365D01*
X73330593Y-61284556D01*
X73320504Y-61296369D01*
X72061069Y-62555804D01*
X72006552Y-62583581D01*
X71991065Y-62584800D01*
X71926008Y-62584800D01*
X71848100Y-62605675D01*
X71798709Y-62618909D01*
X71684590Y-62684796D01*
X71591396Y-62777990D01*
X71525509Y-62892109D01*
X71509713Y-62951061D01*
X71491400Y-63019408D01*
X71491400Y-63151192D01*
X71491695Y-63152292D01*
X71525509Y-63278490D01*
X71591396Y-63392609D01*
X71591398Y-63392611D01*
X71591400Y-63392614D01*
X71684586Y-63485800D01*
X71684588Y-63485801D01*
X71684590Y-63485803D01*
X71798710Y-63551690D01*
X71798708Y-63551690D01*
X71798712Y-63551691D01*
X71798714Y-63551692D01*
X71926008Y-63585800D01*
X71926010Y-63585800D01*
X72057790Y-63585800D01*
X72057792Y-63585800D01*
X72185086Y-63551692D01*
X72185088Y-63551690D01*
X72185090Y-63551690D01*
X72299209Y-63485803D01*
X72299209Y-63485802D01*
X72299214Y-63485800D01*
X72392400Y-63392614D01*
X72410576Y-63361132D01*
X72458290Y-63278490D01*
X72458290Y-63278488D01*
X72458292Y-63278486D01*
X72492400Y-63151192D01*
X72492400Y-63086134D01*
X72511307Y-63027943D01*
X72521390Y-63016136D01*
X73935465Y-61602062D01*
X73978318Y-61527839D01*
X74000500Y-61445053D01*
X74000500Y-61359347D01*
X74000500Y-61221213D01*
X74019407Y-61163022D01*
X74054555Y-61133004D01*
X74081910Y-61119065D01*
X74113342Y-61103050D01*
X74203050Y-61013342D01*
X74260646Y-60900304D01*
X74271926Y-60829081D01*
X74275500Y-60806521D01*
X74275500Y-60625001D01*
X74725001Y-60625001D01*
X74725001Y-60806485D01*
X74739833Y-60900141D01*
X74739836Y-60900151D01*
X74797358Y-61013043D01*
X74886956Y-61102641D01*
X74999848Y-61160163D01*
X74999852Y-61160164D01*
X75093515Y-61174999D01*
X75200000Y-61174999D01*
X75200000Y-60625001D01*
X75450000Y-60625001D01*
X75450000Y-61174998D01*
X75450001Y-61174999D01*
X75556483Y-61174999D01*
X75556485Y-61174998D01*
X75650141Y-61160166D01*
X75650151Y-61160163D01*
X75763043Y-61102641D01*
X75852641Y-61013043D01*
X75910163Y-60900151D01*
X75910164Y-60900147D01*
X75925000Y-60806484D01*
X75925000Y-60625001D01*
X75924999Y-60625000D01*
X75450001Y-60625000D01*
X75450000Y-60625001D01*
X75200000Y-60625001D01*
X75199999Y-60625000D01*
X74725002Y-60625000D01*
X74725001Y-60625001D01*
X74275500Y-60625001D01*
X74275500Y-60583993D01*
X74275499Y-60193479D01*
X74275498Y-60193476D01*
X74260647Y-60099700D01*
X74260646Y-60099698D01*
X74260646Y-60099696D01*
X74203050Y-59986658D01*
X74183493Y-59967101D01*
X74155718Y-59912587D01*
X74165289Y-59852155D01*
X74208554Y-59808890D01*
X74253499Y-59798100D01*
X74747207Y-59798100D01*
X74805398Y-59817007D01*
X74841362Y-59866507D01*
X74841362Y-59927693D01*
X74817211Y-59967104D01*
X74797358Y-59986956D01*
X74739836Y-60099848D01*
X74739835Y-60099852D01*
X74725000Y-60193515D01*
X74725000Y-60374999D01*
X74725001Y-60375000D01*
X75924998Y-60375000D01*
X75924999Y-60374999D01*
X75924999Y-60193516D01*
X75924998Y-60193514D01*
X75910166Y-60099858D01*
X75910163Y-60099848D01*
X75852641Y-59986956D01*
X75832789Y-59967104D01*
X75805012Y-59912587D01*
X75814583Y-59852155D01*
X75857848Y-59808890D01*
X75902793Y-59798100D01*
X76855790Y-59798100D01*
X76855792Y-59798100D01*
X76983086Y-59763992D01*
X76983088Y-59763990D01*
X76983090Y-59763990D01*
X77097209Y-59698103D01*
X77097209Y-59698102D01*
X77097214Y-59698100D01*
X77170313Y-59625001D01*
X88300000Y-59625001D01*
X88300000Y-59969700D01*
X88311603Y-60028036D01*
X88355806Y-60094189D01*
X88355810Y-60094193D01*
X88421963Y-60138396D01*
X88480299Y-60149999D01*
X88480303Y-60150000D01*
X89124999Y-60150000D01*
X89125000Y-60149999D01*
X89125000Y-59625001D01*
X89375000Y-59625001D01*
X89375000Y-60149999D01*
X89375001Y-60150000D01*
X90019697Y-60150000D01*
X90019700Y-60149999D01*
X90078036Y-60138396D01*
X90144189Y-60094193D01*
X90144193Y-60094189D01*
X90188396Y-60028036D01*
X90199999Y-59969700D01*
X90200000Y-59969697D01*
X90200000Y-59625001D01*
X105800000Y-59625001D01*
X105800000Y-59969700D01*
X105811603Y-60028036D01*
X105855806Y-60094189D01*
X105855810Y-60094193D01*
X105921963Y-60138396D01*
X105980299Y-60149999D01*
X105980303Y-60150000D01*
X106624999Y-60150000D01*
X106625000Y-60149999D01*
X106625000Y-59625001D01*
X106875000Y-59625001D01*
X106875000Y-60149999D01*
X106875001Y-60150000D01*
X107519697Y-60150000D01*
X107519700Y-60149999D01*
X107578036Y-60138396D01*
X107644189Y-60094193D01*
X107644193Y-60094189D01*
X107688396Y-60028036D01*
X107699999Y-59969700D01*
X107700000Y-59969697D01*
X107700000Y-59625001D01*
X107699999Y-59625000D01*
X106875001Y-59625000D01*
X106875000Y-59625001D01*
X106625000Y-59625001D01*
X106624999Y-59625000D01*
X105800001Y-59625000D01*
X105800000Y-59625001D01*
X90200000Y-59625001D01*
X90199999Y-59625000D01*
X89375001Y-59625000D01*
X89375000Y-59625001D01*
X89125000Y-59625001D01*
X89124999Y-59625000D01*
X88300001Y-59625000D01*
X88300000Y-59625001D01*
X77170313Y-59625001D01*
X77765015Y-59030299D01*
X88300000Y-59030299D01*
X88300000Y-59374999D01*
X88300001Y-59375000D01*
X89124999Y-59375000D01*
X89125000Y-59374999D01*
X89125000Y-58850001D01*
X89375000Y-58850001D01*
X89375000Y-59374999D01*
X89375001Y-59375000D01*
X90199999Y-59375000D01*
X90200000Y-59374999D01*
X90200000Y-59030302D01*
X90199999Y-59030299D01*
X105800000Y-59030299D01*
X105800000Y-59374999D01*
X105800001Y-59375000D01*
X106624999Y-59375000D01*
X106625000Y-59374999D01*
X106625000Y-58850001D01*
X106875000Y-58850001D01*
X106875000Y-59374999D01*
X106875001Y-59375000D01*
X107699999Y-59375000D01*
X107700000Y-59374999D01*
X107700000Y-59030302D01*
X107699999Y-59030299D01*
X107688396Y-58971963D01*
X107644193Y-58905810D01*
X107644189Y-58905806D01*
X107578036Y-58861603D01*
X107519700Y-58850000D01*
X106875001Y-58850000D01*
X106875000Y-58850001D01*
X106625000Y-58850001D01*
X106624999Y-58850000D01*
X105980299Y-58850000D01*
X105921963Y-58861603D01*
X105855810Y-58905806D01*
X105855806Y-58905810D01*
X105811603Y-58971963D01*
X105800000Y-59030299D01*
X90199999Y-59030299D01*
X90188396Y-58971963D01*
X90144193Y-58905810D01*
X90144189Y-58905806D01*
X90078036Y-58861603D01*
X90019700Y-58850000D01*
X89375001Y-58850000D01*
X89375000Y-58850001D01*
X89125000Y-58850001D01*
X89124999Y-58850000D01*
X88480299Y-58850000D01*
X88421963Y-58861603D01*
X88355810Y-58905806D01*
X88355806Y-58905810D01*
X88311603Y-58971963D01*
X88300000Y-59030299D01*
X77765015Y-59030299D01*
X79315818Y-57479496D01*
X79370335Y-57451719D01*
X79385822Y-57450500D01*
X79683257Y-57450500D01*
X79683260Y-57450500D01*
X79751393Y-57440573D01*
X79856483Y-57389198D01*
X79939198Y-57306483D01*
X79990573Y-57201393D01*
X80000500Y-57133260D01*
X80000500Y-56766740D01*
X79990573Y-56698607D01*
X79979031Y-56674998D01*
X79950803Y-56617256D01*
X79939198Y-56593517D01*
X79856483Y-56510802D01*
X79833763Y-56499695D01*
X79763497Y-56465344D01*
X79719523Y-56422800D01*
X79708954Y-56362534D01*
X79717171Y-56338790D01*
X79715708Y-56338184D01*
X79718190Y-56332191D01*
X79718190Y-56332188D01*
X79718192Y-56332186D01*
X79752300Y-56204892D01*
X79752300Y-56073108D01*
X79718192Y-55945814D01*
X79718190Y-55945811D01*
X79718190Y-55945809D01*
X79652303Y-55831690D01*
X79652301Y-55831688D01*
X79652300Y-55831686D01*
X79559114Y-55738500D01*
X79553461Y-55735236D01*
X79512521Y-55689766D01*
X79506126Y-55628916D01*
X79536719Y-55575928D01*
X79592614Y-55551042D01*
X79602962Y-55550500D01*
X79683257Y-55550500D01*
X79683260Y-55550500D01*
X79751393Y-55540573D01*
X79856483Y-55489198D01*
X79939198Y-55406483D01*
X79990573Y-55301393D01*
X80000500Y-55233260D01*
X80000500Y-54866740D01*
X79990573Y-54798607D01*
X79939198Y-54693517D01*
X79856483Y-54610802D01*
X79856481Y-54610801D01*
X79751395Y-54559427D01*
X79724139Y-54555456D01*
X79683260Y-54549500D01*
X79683257Y-54549500D01*
X79562000Y-54549500D01*
X79503809Y-54530593D01*
X79467845Y-54481093D01*
X79463000Y-54450500D01*
X79463000Y-53713334D01*
X79481907Y-53655143D01*
X79491990Y-53643336D01*
X80930831Y-52204494D01*
X80985348Y-52176718D01*
X81000835Y-52175499D01*
X81406521Y-52175499D01*
X81406522Y-52175498D01*
X81472496Y-52165050D01*
X81500299Y-52160647D01*
X81500299Y-52160646D01*
X81500304Y-52160646D01*
X81613342Y-52103050D01*
X81703050Y-52013342D01*
X81760646Y-51900304D01*
X81775500Y-51806519D01*
X81775499Y-51625001D01*
X82225001Y-51625001D01*
X82225001Y-51806485D01*
X82239833Y-51900141D01*
X82239836Y-51900151D01*
X82297358Y-52013043D01*
X82386956Y-52102641D01*
X82499848Y-52160163D01*
X82499852Y-52160164D01*
X82593515Y-52174999D01*
X82700000Y-52174999D01*
X82700000Y-51625001D01*
X82950000Y-51625001D01*
X82950000Y-52174998D01*
X82950001Y-52174999D01*
X83056483Y-52174999D01*
X83056485Y-52174998D01*
X83150141Y-52160166D01*
X83150151Y-52160163D01*
X83263043Y-52102641D01*
X83352641Y-52013043D01*
X83410163Y-51900151D01*
X83410164Y-51900147D01*
X83425000Y-51806484D01*
X83425000Y-51625001D01*
X83424999Y-51625000D01*
X82950001Y-51625000D01*
X82950000Y-51625001D01*
X82700000Y-51625001D01*
X82699999Y-51625000D01*
X82225002Y-51625000D01*
X82225001Y-51625001D01*
X81775499Y-51625001D01*
X81775499Y-51464209D01*
X81775499Y-51193515D01*
X82225000Y-51193515D01*
X82225000Y-51374999D01*
X82225001Y-51375000D01*
X82699999Y-51375000D01*
X82700000Y-51374999D01*
X82700000Y-50825001D01*
X82950000Y-50825001D01*
X82950000Y-51374999D01*
X82950001Y-51375000D01*
X83424998Y-51375000D01*
X83424999Y-51374999D01*
X83424999Y-51193516D01*
X83424998Y-51193514D01*
X83410166Y-51099858D01*
X83410163Y-51099848D01*
X83352641Y-50986956D01*
X83263043Y-50897358D01*
X83150151Y-50839836D01*
X83150147Y-50839835D01*
X83056484Y-50825000D01*
X82950001Y-50825000D01*
X82950000Y-50825001D01*
X82700000Y-50825001D01*
X82700000Y-50825000D01*
X82593517Y-50825000D01*
X82593514Y-50825001D01*
X82499858Y-50839833D01*
X82499848Y-50839836D01*
X82386956Y-50897358D01*
X82297358Y-50986956D01*
X82239836Y-51099848D01*
X82239835Y-51099852D01*
X82225000Y-51193515D01*
X81775499Y-51193515D01*
X81775499Y-51193479D01*
X81775498Y-51193476D01*
X81760647Y-51099700D01*
X81760646Y-51099698D01*
X81760646Y-51099696D01*
X81703050Y-50986658D01*
X81613342Y-50896950D01*
X81500304Y-50839354D01*
X81500305Y-50839354D01*
X81406522Y-50824500D01*
X80943479Y-50824500D01*
X80943476Y-50824501D01*
X80849700Y-50839352D01*
X80849695Y-50839354D01*
X80736659Y-50896949D01*
X80646949Y-50986659D01*
X80589354Y-51099695D01*
X80574500Y-51193478D01*
X80574500Y-51599164D01*
X80555593Y-51657355D01*
X80545504Y-51669168D01*
X78877032Y-53337641D01*
X78877031Y-53337642D01*
X78834183Y-53411856D01*
X78817454Y-53474292D01*
X78817453Y-53474291D01*
X78812000Y-53494644D01*
X78812000Y-54450500D01*
X78793093Y-54508691D01*
X78743593Y-54544655D01*
X78713000Y-54549500D01*
X78591740Y-54549500D01*
X78557673Y-54554463D01*
X78523604Y-54559427D01*
X78418518Y-54610801D01*
X78335801Y-54693518D01*
X78284427Y-54798604D01*
X78284427Y-54798607D01*
X78274500Y-54866740D01*
X78274500Y-55233260D01*
X78281118Y-55278682D01*
X78284427Y-55301395D01*
X78303672Y-55340760D01*
X78335802Y-55406483D01*
X78418517Y-55489198D01*
X78441225Y-55500299D01*
X78492895Y-55525559D01*
X78536869Y-55568102D01*
X78547439Y-55628368D01*
X78520567Y-55683336D01*
X78466517Y-55712012D01*
X78449415Y-55713500D01*
X78392018Y-55713500D01*
X78279981Y-55713500D01*
X78213748Y-55731246D01*
X78171758Y-55742498D01*
X78074737Y-55798514D01*
X77868167Y-56005083D01*
X77823789Y-56030705D01*
X77770413Y-56045008D01*
X77770410Y-56045009D01*
X77656290Y-56110896D01*
X77563096Y-56204090D01*
X77493963Y-56323833D01*
X77491736Y-56322547D01*
X77459130Y-56360717D01*
X77407412Y-56375300D01*
X77067719Y-56375300D01*
X76955682Y-56375300D01*
X76847463Y-56404297D01*
X76792140Y-56436237D01*
X76742642Y-56449500D01*
X76316740Y-56449500D01*
X76282673Y-56454463D01*
X76248604Y-56459427D01*
X76143518Y-56510801D01*
X76060801Y-56593518D01*
X76009427Y-56698604D01*
X76009427Y-56698607D01*
X75999500Y-56766740D01*
X75999500Y-57133260D01*
X76006118Y-57178682D01*
X76009427Y-57201395D01*
X76048250Y-57280808D01*
X76060802Y-57306483D01*
X76143517Y-57389198D01*
X76187388Y-57410645D01*
X76248604Y-57440572D01*
X76248605Y-57440572D01*
X76248607Y-57440573D01*
X76316740Y-57450500D01*
X76316743Y-57450500D01*
X77408257Y-57450500D01*
X77408260Y-57450500D01*
X77476393Y-57440573D01*
X77581483Y-57389198D01*
X77664198Y-57306483D01*
X77664201Y-57306475D01*
X77664911Y-57305483D01*
X77666008Y-57304671D01*
X77669998Y-57300682D01*
X77670595Y-57301279D01*
X77714109Y-57269108D01*
X77771104Y-57267377D01*
X77874574Y-57295101D01*
X77925887Y-57328424D01*
X77947813Y-57385546D01*
X77931977Y-57444646D01*
X77918953Y-57460731D01*
X76611582Y-58768104D01*
X76557065Y-58795881D01*
X76541578Y-58797100D01*
X74465322Y-58797100D01*
X74407131Y-58778193D01*
X74395318Y-58768104D01*
X72754496Y-57127282D01*
X72726719Y-57072765D01*
X72725500Y-57057278D01*
X72725500Y-56617255D01*
X72744407Y-56559064D01*
X72754490Y-56547257D01*
X72798528Y-56503220D01*
X72859719Y-56383126D01*
X72875500Y-56283488D01*
X72875500Y-56283453D01*
X73125000Y-56283453D01*
X73140760Y-56382965D01*
X73140762Y-56382969D01*
X73201881Y-56502921D01*
X73297078Y-56598118D01*
X73417030Y-56659237D01*
X73417029Y-56659237D01*
X73516545Y-56674999D01*
X73650000Y-56674999D01*
X73650000Y-56125001D01*
X73900000Y-56125001D01*
X73900000Y-56674998D01*
X73900001Y-56674999D01*
X74033453Y-56674999D01*
X74132965Y-56659239D01*
X74132969Y-56659237D01*
X74252921Y-56598118D01*
X74348118Y-56502921D01*
X74409237Y-56382969D01*
X74425000Y-56283453D01*
X74425000Y-56125001D01*
X74424999Y-56125000D01*
X73900001Y-56125000D01*
X73900000Y-56125001D01*
X73650000Y-56125001D01*
X73649999Y-56125000D01*
X73125002Y-56125000D01*
X73125001Y-56125001D01*
X73125001Y-56283453D01*
X73125000Y-56283453D01*
X72875500Y-56283453D01*
X72875500Y-55716546D01*
X73125000Y-55716546D01*
X73125000Y-55874999D01*
X73125001Y-55875000D01*
X73649999Y-55875000D01*
X73650000Y-55874999D01*
X73650000Y-55325001D01*
X73900000Y-55325001D01*
X73900000Y-55874999D01*
X73900001Y-55875000D01*
X74424998Y-55875000D01*
X74424999Y-55874999D01*
X74424999Y-55716546D01*
X74409239Y-55617034D01*
X74409237Y-55617030D01*
X74348118Y-55497078D01*
X74252921Y-55401881D01*
X74132969Y-55340762D01*
X74132970Y-55340762D01*
X74033454Y-55325000D01*
X73900001Y-55325000D01*
X73900000Y-55325001D01*
X73650000Y-55325001D01*
X73649999Y-55325000D01*
X73516547Y-55325000D01*
X73516546Y-55325001D01*
X73417034Y-55340760D01*
X73417030Y-55340762D01*
X73297078Y-55401881D01*
X73201881Y-55497078D01*
X73140762Y-55617030D01*
X73125000Y-55716546D01*
X72875500Y-55716546D01*
X72875500Y-55716512D01*
X72874787Y-55712012D01*
X72868546Y-55672608D01*
X72859719Y-55616874D01*
X72859716Y-55616869D01*
X72859716Y-55616867D01*
X72798529Y-55496782D01*
X72798528Y-55496780D01*
X72703220Y-55401472D01*
X72703217Y-55401470D01*
X72583132Y-55340283D01*
X72583127Y-55340281D01*
X72583126Y-55340281D01*
X72549913Y-55335020D01*
X72483490Y-55324500D01*
X72483488Y-55324500D01*
X71966512Y-55324500D01*
X71966510Y-55324500D01*
X71866874Y-55340281D01*
X71866867Y-55340283D01*
X71746782Y-55401470D01*
X71746778Y-55401473D01*
X71677747Y-55470504D01*
X71623230Y-55498281D01*
X71607744Y-55499500D01*
X71465892Y-55499500D01*
X71334108Y-55499500D01*
X71256200Y-55520375D01*
X71206809Y-55533609D01*
X71092690Y-55599496D01*
X70999496Y-55692690D01*
X70933609Y-55806809D01*
X70915338Y-55874999D01*
X70899500Y-55934108D01*
X63000500Y-55934108D01*
X63000500Y-50003240D01*
X63000712Y-49996765D01*
X63006959Y-49901459D01*
X63017181Y-49745482D01*
X63018871Y-49732651D01*
X63023227Y-49710754D01*
X63023228Y-49710751D01*
X71074500Y-49710751D01*
X71074500Y-50289248D01*
X71090049Y-50387419D01*
X71090050Y-50387423D01*
X71148243Y-50501631D01*
X71150342Y-50505751D01*
X71244249Y-50599658D01*
X71332947Y-50644852D01*
X71376210Y-50688115D01*
X71387000Y-50733060D01*
X71387000Y-51122347D01*
X71387000Y-51208053D01*
X71406562Y-51281063D01*
X71409183Y-51290843D01*
X71452031Y-51365057D01*
X71452033Y-51365059D01*
X71452035Y-51365062D01*
X75397438Y-55310465D01*
X75397440Y-55310466D01*
X75397442Y-55310468D01*
X75471657Y-55353316D01*
X75471655Y-55353316D01*
X75471659Y-55353317D01*
X75471661Y-55353318D01*
X75554447Y-55375500D01*
X75988812Y-55375500D01*
X76047003Y-55394407D01*
X76058816Y-55404496D01*
X76060801Y-55406481D01*
X76060802Y-55406483D01*
X76143517Y-55489198D01*
X76166225Y-55500299D01*
X76248604Y-55540572D01*
X76248605Y-55540572D01*
X76248607Y-55540573D01*
X76316740Y-55550500D01*
X76316743Y-55550500D01*
X77408257Y-55550500D01*
X77408260Y-55550500D01*
X77476393Y-55540573D01*
X77581483Y-55489198D01*
X77664198Y-55406483D01*
X77715573Y-55301393D01*
X77725500Y-55233260D01*
X77725500Y-54866740D01*
X77715573Y-54798607D01*
X77664198Y-54693517D01*
X77581483Y-54610802D01*
X77581481Y-54610801D01*
X77476395Y-54559427D01*
X77449139Y-54555456D01*
X77408260Y-54549500D01*
X76316740Y-54549500D01*
X76282673Y-54554463D01*
X76248604Y-54559427D01*
X76143518Y-54610801D01*
X76143517Y-54610801D01*
X76143517Y-54610802D01*
X76060802Y-54693517D01*
X76060801Y-54693518D01*
X76058816Y-54695504D01*
X76004299Y-54723281D01*
X75988812Y-54724500D01*
X75773135Y-54724500D01*
X75714944Y-54705593D01*
X75703131Y-54695504D01*
X75041684Y-54034057D01*
X75013907Y-53979540D01*
X75023478Y-53919108D01*
X75063482Y-53879103D01*
X75062867Y-53878037D01*
X75182609Y-53808903D01*
X75182609Y-53808902D01*
X75182614Y-53808900D01*
X76075500Y-52916014D01*
X76141392Y-52801886D01*
X76175500Y-52674592D01*
X76175500Y-52542807D01*
X76175500Y-50581899D01*
X76194407Y-50523708D01*
X76201850Y-50514992D01*
X76203043Y-50513348D01*
X76203050Y-50513342D01*
X76260646Y-50400304D01*
X76275500Y-50306519D01*
X76275499Y-49693482D01*
X76273357Y-49679957D01*
X76269971Y-49658573D01*
X76279543Y-49598141D01*
X76322808Y-49554877D01*
X76383240Y-49545306D01*
X76437756Y-49573083D01*
X76695504Y-49830831D01*
X76723281Y-49885348D01*
X76724500Y-49900835D01*
X76724500Y-50306520D01*
X76724501Y-50306523D01*
X76739352Y-50400299D01*
X76739354Y-50400304D01*
X76796950Y-50513342D01*
X76886658Y-50603050D01*
X76999696Y-50660646D01*
X77093481Y-50675500D01*
X77556518Y-50675499D01*
X77556520Y-50675499D01*
X77556521Y-50675498D01*
X77603411Y-50668072D01*
X77650299Y-50660647D01*
X77650299Y-50660646D01*
X77650304Y-50660646D01*
X77763342Y-50603050D01*
X77853050Y-50513342D01*
X77910646Y-50400304D01*
X77925500Y-50306519D01*
X77925499Y-49693482D01*
X77925498Y-49693478D01*
X77925498Y-49693476D01*
X77910647Y-49599700D01*
X77910646Y-49599698D01*
X77910646Y-49599696D01*
X77853050Y-49486658D01*
X77763342Y-49396950D01*
X77650304Y-49339354D01*
X77650305Y-49339354D01*
X77556522Y-49324500D01*
X77556519Y-49324500D01*
X77150835Y-49324500D01*
X77092644Y-49305593D01*
X77080831Y-49295504D01*
X76868432Y-49083105D01*
X76536362Y-48751035D01*
X76536359Y-48751033D01*
X76536358Y-48751032D01*
X76536357Y-48751031D01*
X76462142Y-48708183D01*
X76462144Y-48708183D01*
X76430021Y-48699576D01*
X76379353Y-48686000D01*
X75544047Y-48686000D01*
X75461262Y-48708182D01*
X75387038Y-48751035D01*
X75326434Y-48811639D01*
X75318588Y-48825229D01*
X75273117Y-48866168D01*
X75223542Y-48873355D01*
X75223542Y-48873500D01*
X75222543Y-48873500D01*
X75219929Y-48873879D01*
X75217054Y-48873500D01*
X75217053Y-48873500D01*
X74131353Y-48873500D01*
X74045647Y-48873500D01*
X73994978Y-48887076D01*
X73962856Y-48895683D01*
X73888642Y-48938531D01*
X73888637Y-48938535D01*
X73531668Y-49295504D01*
X73477152Y-49323281D01*
X73461665Y-49324500D01*
X73035751Y-49324500D01*
X72937580Y-49340049D01*
X72937576Y-49340050D01*
X72819250Y-49400341D01*
X72725341Y-49494250D01*
X72665050Y-49612576D01*
X72665049Y-49612580D01*
X72649500Y-49710751D01*
X72649500Y-50289248D01*
X72665049Y-50387419D01*
X72665050Y-50387423D01*
X72723243Y-50501631D01*
X72725342Y-50505751D01*
X72819249Y-50599658D01*
X72937580Y-50659951D01*
X73004130Y-50670491D01*
X73035751Y-50675500D01*
X73035754Y-50675500D01*
X73539249Y-50675500D01*
X73567803Y-50670976D01*
X73637420Y-50659951D01*
X73755751Y-50599658D01*
X73849658Y-50505751D01*
X73909951Y-50387420D01*
X73925500Y-50289246D01*
X73925500Y-49863335D01*
X73944407Y-49805144D01*
X73954496Y-49793331D01*
X74194331Y-49553496D01*
X74248848Y-49525719D01*
X74264335Y-49524500D01*
X74985350Y-49524500D01*
X75043541Y-49543407D01*
X75079505Y-49592907D01*
X75083131Y-49638988D01*
X75074500Y-49693479D01*
X75074500Y-50306520D01*
X75074501Y-50306523D01*
X75089352Y-50400299D01*
X75089354Y-50400304D01*
X75146950Y-50513342D01*
X75146952Y-50513344D01*
X75151531Y-50519647D01*
X75150014Y-50520748D01*
X75173281Y-50566412D01*
X75174500Y-50581899D01*
X75174500Y-52360378D01*
X75155593Y-52418569D01*
X75145504Y-52430382D01*
X74474796Y-53101090D01*
X74405663Y-53220833D01*
X74403058Y-53219329D01*
X74371356Y-53256433D01*
X74311858Y-53270704D01*
X74255335Y-53247278D01*
X74249642Y-53242015D01*
X72066996Y-51059369D01*
X72039219Y-51004852D01*
X72038000Y-50989365D01*
X72038000Y-50733060D01*
X72056907Y-50674869D01*
X72092051Y-50644852D01*
X72180751Y-50599658D01*
X72274658Y-50505751D01*
X72334951Y-50387420D01*
X72350500Y-50289246D01*
X72350500Y-49710754D01*
X72347764Y-49693482D01*
X72342235Y-49658573D01*
X72334951Y-49612580D01*
X72274658Y-49494249D01*
X72180751Y-49400342D01*
X72174092Y-49396949D01*
X72062423Y-49340050D01*
X72062420Y-49340049D01*
X72037876Y-49336161D01*
X71964249Y-49324500D01*
X71964246Y-49324500D01*
X71460754Y-49324500D01*
X71460751Y-49324500D01*
X71362580Y-49340049D01*
X71362576Y-49340050D01*
X71244250Y-49400341D01*
X71150341Y-49494250D01*
X71090050Y-49612576D01*
X71090049Y-49612580D01*
X71074500Y-49710751D01*
X63023228Y-49710751D01*
X63067367Y-49488846D01*
X63070714Y-49476353D01*
X63150621Y-49240957D01*
X63155572Y-49229007D01*
X63265512Y-49006067D01*
X63271981Y-48994862D01*
X63410089Y-48788169D01*
X63417964Y-48777907D01*
X63581870Y-48591008D01*
X63591008Y-48581870D01*
X63777907Y-48417964D01*
X63788169Y-48410089D01*
X63994862Y-48271981D01*
X64006067Y-48265512D01*
X64229007Y-48155572D01*
X64240957Y-48150621D01*
X64476353Y-48070714D01*
X64488846Y-48067367D01*
X64732658Y-48018870D01*
X64745482Y-48017181D01*
X64996766Y-48000712D01*
X65003241Y-48000500D01*
X65092710Y-48000500D01*
X83901000Y-48000500D01*
X83959191Y-48019407D01*
G37*
%TD.AperFunction*%
%TD*%
M02*
