%TF.GenerationSoftware,KiCad,Pcbnew,10.0.1*%
%TF.CreationDate,2026-09-06T11:54:30-05:00*%
%TF.ProjectId,SmartPet,536d6172-7450-4657-942e-6b696361645f,rev?*%
%TF.SameCoordinates,Original*%
%TF.FileFunction,Paste,Top*%
%TF.FilePolarity,Positive*%
%FSLAX46Y46*%
G04 Gerber Fmt 4.6, Leading zero omitted, Abs format (unit mm)*
G04 Created by KiCad (PCBNEW 10.0.1) date 2026-09-06 11:54:30*
%MOMM*%
%LPD*%
G01*
G04 APERTURE LIST*
G04 Aperture macros list*
%AMRoundRect*
0 Rectangle with rounded corners*
0 $1 Rounding radius*
0 $2 $3 $4 $5 $6 $7 $8 $9 X,Y pos of 4 corners*
0 Add a 4 corners polygon primitive as box body*
4,1,4,$2,$3,$4,$5,$6,$7,$8,$9,$2,$3,0*
0 Add four circle primitives for the rounded corners*
1,1,$1+$1,$2,$3*
1,1,$1+$1,$4,$5*
1,1,$1+$1,$6,$7*
1,1,$1+$1,$8,$9*
0 Add four rect primitives between the rounded corners*
20,1,$1+$1,$2,$3,$4,$5,0*
20,1,$1+$1,$4,$5,$6,$7,0*
20,1,$1+$1,$6,$7,$8,$9,0*
20,1,$1+$1,$8,$9,$2,$3,0*%
G04 Aperture macros list end*
%ADD10RoundRect,0.150000X-0.512500X-0.150000X0.512500X-0.150000X0.512500X0.150000X-0.512500X0.150000X0*%
%ADD11RoundRect,0.225000X-0.225000X-0.250000X0.225000X-0.250000X0.225000X0.250000X-0.225000X0.250000X0*%
%ADD12RoundRect,0.200000X-0.275000X0.200000X-0.275000X-0.200000X0.275000X-0.200000X0.275000X0.200000X0*%
%ADD13R,0.450000X0.300000*%
%ADD14R,0.300000X0.450000*%
%ADD15RoundRect,0.150000X-0.150000X-0.625000X0.150000X-0.625000X0.150000X0.625000X-0.150000X0.625000X0*%
%ADD16RoundRect,0.250000X-0.350000X-0.650000X0.350000X-0.650000X0.350000X0.650000X-0.350000X0.650000X0*%
%ADD17RoundRect,0.200000X-0.200000X-0.275000X0.200000X-0.275000X0.200000X0.275000X-0.200000X0.275000X0*%
%ADD18RoundRect,0.225000X0.250000X-0.225000X0.250000X0.225000X-0.250000X0.225000X-0.250000X-0.225000X0*%
%ADD19R,1.700000X1.000000*%
%ADD20RoundRect,0.200000X0.275000X-0.200000X0.275000X0.200000X-0.275000X0.200000X-0.275000X-0.200000X0*%
%ADD21RoundRect,0.225000X-0.250000X0.225000X-0.250000X-0.225000X0.250000X-0.225000X0.250000X0.225000X0*%
%ADD22RoundRect,0.150000X-0.425000X0.150000X-0.425000X-0.150000X0.425000X-0.150000X0.425000X0.150000X0*%
%ADD23RoundRect,0.075000X-0.500000X0.075000X-0.500000X-0.075000X0.500000X-0.075000X0.500000X0.075000X0*%
%ADD24O,2.100000X1.000000*%
%ADD25O,1.800000X1.000000*%
%ADD26R,0.720000X0.580000*%
%ADD27R,0.580000X0.720000*%
%ADD28RoundRect,0.218750X0.218750X0.256250X-0.218750X0.256250X-0.218750X-0.256250X0.218750X-0.256250X0*%
%ADD29RoundRect,0.218750X0.256250X-0.218750X0.256250X0.218750X-0.256250X0.218750X-0.256250X-0.218750X0*%
%ADD30R,0.700000X0.700000*%
%ADD31R,1.500000X0.900000*%
G04 APERTURE END LIST*
D10*
%TO.C,U3*%
X76862500Y-64050000D03*
X76862500Y-65000000D03*
X76862500Y-65950000D03*
X79137500Y-65950000D03*
X79137500Y-64050000D03*
%TD*%
D11*
%TO.C,C5*%
X82725000Y-75000000D03*
X84275000Y-75000000D03*
%TD*%
D12*
%TO.C,R9*%
X101000000Y-82675000D03*
X101000000Y-84325000D03*
%TD*%
D13*
%TO.C,U4*%
X96725000Y-77750000D03*
X96725000Y-78250000D03*
X96725000Y-78750000D03*
X96725000Y-79250000D03*
D14*
X97250000Y-79775000D03*
X97750000Y-79775000D03*
X98250000Y-79775000D03*
X98750000Y-79775000D03*
D13*
X99275000Y-79250000D03*
X99275000Y-78750000D03*
X99275000Y-78250000D03*
X99275000Y-77750000D03*
D14*
X98750000Y-77225000D03*
X98250000Y-77225000D03*
X97750000Y-77225000D03*
X97250000Y-77225000D03*
%TD*%
D15*
%TO.C,J1*%
X77500000Y-78000000D03*
X78500000Y-78000000D03*
D16*
X76200000Y-81875000D03*
X79800000Y-81875000D03*
%TD*%
D17*
%TO.C,R3*%
X73675000Y-60500000D03*
X75325000Y-60500000D03*
%TD*%
%TO.C,R4*%
X74675000Y-72000000D03*
X76325000Y-72000000D03*
%TD*%
D18*
%TO.C,C6*%
X105500000Y-84275000D03*
X105500000Y-82725000D03*
%TD*%
D19*
%TO.C,SW2*%
X108350000Y-79100000D03*
X114650000Y-79100000D03*
X108350000Y-82900000D03*
X114650000Y-82900000D03*
%TD*%
D17*
%TO.C,R1*%
X81175000Y-51500000D03*
X82825000Y-51500000D03*
%TD*%
D12*
%TO.C,R8*%
X97000000Y-82675000D03*
X97000000Y-84325000D03*
%TD*%
%TO.C,R7*%
X95000000Y-82675000D03*
X95000000Y-84325000D03*
%TD*%
D17*
%TO.C,R2*%
X75675000Y-50000000D03*
X77325000Y-50000000D03*
%TD*%
D20*
%TO.C,R5*%
X86500000Y-75825000D03*
X86500000Y-74175000D03*
%TD*%
D21*
%TO.C,C7*%
X92500000Y-81725000D03*
X92500000Y-83275000D03*
%TD*%
D11*
%TO.C,C3*%
X81225000Y-65000000D03*
X82775000Y-65000000D03*
%TD*%
D20*
%TO.C,TH1*%
X103500000Y-84325000D03*
X103500000Y-82675000D03*
%TD*%
D11*
%TO.C,C4*%
X80725000Y-60500000D03*
X82275000Y-60500000D03*
%TD*%
D22*
%TO.C,J2*%
X69380000Y-64800000D03*
X69380000Y-65600000D03*
D23*
X69380000Y-66750000D03*
X69380000Y-67750000D03*
X69380000Y-68250000D03*
X69380000Y-69250000D03*
D22*
X69380000Y-70400000D03*
X69380000Y-71200000D03*
X69380000Y-71200000D03*
X69380000Y-70400000D03*
D23*
X69380000Y-69750000D03*
X69380000Y-68750000D03*
X69380000Y-67250000D03*
X69380000Y-66250000D03*
D22*
X69380000Y-65600000D03*
X69380000Y-64800000D03*
D24*
X68805000Y-63680000D03*
D25*
X64625000Y-63680000D03*
D24*
X68805000Y-72320000D03*
D25*
X64625000Y-72320000D03*
%TD*%
D10*
%TO.C,U2*%
X76862500Y-55050000D03*
X76862500Y-56000000D03*
X76862500Y-56950000D03*
X79137500Y-56950000D03*
X79137500Y-55050000D03*
%TD*%
D26*
%TO.C,U5*%
X115400000Y-63275000D03*
X115400000Y-64125000D03*
X115400000Y-65175000D03*
X115400000Y-66025000D03*
X115400000Y-67075000D03*
X115400000Y-67925000D03*
X115400000Y-68975000D03*
X115400000Y-69825000D03*
X115400000Y-70875000D03*
X115400000Y-71725000D03*
X116400000Y-63275000D03*
X116400000Y-64125000D03*
X116400000Y-65175000D03*
X116400000Y-66025000D03*
X116400000Y-67075000D03*
X116400000Y-67925000D03*
X116400000Y-68975000D03*
X116400000Y-69825000D03*
X116400000Y-70875000D03*
X116400000Y-71725000D03*
D27*
X118275000Y-60400000D03*
X118275000Y-61400000D03*
X118275000Y-73600000D03*
X118275000Y-74600000D03*
X119125000Y-60400000D03*
X119125000Y-61400000D03*
X119125000Y-73600000D03*
X119125000Y-74600000D03*
X120175000Y-60400000D03*
X120175000Y-61400000D03*
X120175000Y-73600000D03*
X120175000Y-74600000D03*
X121025000Y-60400000D03*
X121025000Y-61400000D03*
X121025000Y-73600000D03*
X121025000Y-74600000D03*
X122075000Y-60400000D03*
X122075000Y-61400000D03*
X122075000Y-73600000D03*
X122075000Y-74600000D03*
X122925000Y-60400000D03*
X122925000Y-61400000D03*
X122925000Y-73600000D03*
X122925000Y-74600000D03*
X123975000Y-60400000D03*
X123975000Y-61400000D03*
X123975000Y-73600000D03*
X123975000Y-74600000D03*
X124825000Y-60400000D03*
X124825000Y-61400000D03*
X124825000Y-73600000D03*
X124825000Y-74600000D03*
X125875000Y-60400000D03*
X125875000Y-61400000D03*
X125875000Y-73600000D03*
X125875000Y-74600000D03*
X126725000Y-60400000D03*
X126725000Y-61400000D03*
X126725000Y-73600000D03*
X126725000Y-74600000D03*
D26*
X128600000Y-63275000D03*
X128600000Y-64125000D03*
X128600000Y-65175000D03*
X128600000Y-66025000D03*
X128600000Y-67075000D03*
X128600000Y-67925000D03*
X128600000Y-68975000D03*
X128600000Y-69825000D03*
X128600000Y-70875000D03*
X128600000Y-71725000D03*
X129600000Y-63275000D03*
X129600000Y-64125000D03*
X129600000Y-65175000D03*
X129600000Y-66025000D03*
X129600000Y-67075000D03*
X129600000Y-67925000D03*
X129600000Y-68975000D03*
X129600000Y-69825000D03*
X129600000Y-70875000D03*
X129600000Y-71725000D03*
%TD*%
D19*
%TO.C,SW1*%
X83350000Y-79100000D03*
X89650000Y-79100000D03*
X83350000Y-82900000D03*
X89650000Y-82900000D03*
%TD*%
D11*
%TO.C,C2*%
X81225000Y-70500000D03*
X82775000Y-70500000D03*
%TD*%
%TO.C,C1*%
X72225000Y-56000000D03*
X73775000Y-56000000D03*
%TD*%
D28*
%TO.C,D1*%
X73287500Y-50000000D03*
X71712500Y-50000000D03*
%TD*%
D11*
%TO.C,C8*%
X119225000Y-78500000D03*
X120775000Y-78500000D03*
%TD*%
D12*
%TO.C,R6*%
X108500000Y-74175000D03*
X108500000Y-75825000D03*
%TD*%
D29*
%TO.C,D2*%
X115000000Y-52787500D03*
X115000000Y-51212500D03*
%TD*%
D20*
%TO.C,R11*%
X115000000Y-56825000D03*
X115000000Y-55175000D03*
%TD*%
D30*
%TO.C,U1*%
X97860000Y-64600000D03*
X97860000Y-65700000D03*
X97860000Y-66800000D03*
X98960000Y-64600000D03*
X98960000Y-65700000D03*
X98960000Y-66800000D03*
X100060000Y-64600000D03*
X100060000Y-65700000D03*
X100060000Y-66800000D03*
D31*
X89250000Y-59500000D03*
X89250000Y-61000000D03*
X89250000Y-62500000D03*
X89250000Y-64000000D03*
X89250000Y-65500000D03*
X89250000Y-67000000D03*
X89250000Y-68500000D03*
X89250000Y-70000000D03*
X89250000Y-71500000D03*
X106750000Y-71500000D03*
X106750000Y-70000000D03*
X106750000Y-68500000D03*
X106750000Y-67000000D03*
X106750000Y-65500000D03*
X106750000Y-64000000D03*
X106750000Y-62500000D03*
X106750000Y-61000000D03*
X106750000Y-59500000D03*
%TD*%
M02*
