M48
; DRILL file KiCad 10.0.1 date 2026-09-06T11:54:30
; FORMAT={-:-/ absolute / metric / decimal}
; #@! TF.CreationDate,2026-09-06T11:54:30-05:00
; #@! TF.GenerationSoftware,Kicad,Pcbnew,10.0.1
; #@! TF.FileFunction,MixedPlating,1,2
FMAT,2
METRIC
; #@! TA.AperFunction,Plated,PTH,ComponentDrill
T1C0.200
; #@! TA.AperFunction,Plated,PTH,ViaDrill
T2C0.300
; #@! TA.AperFunction,Plated,PTH,ComponentDrill
T3C0.600
; #@! TA.AperFunction,NonPlated,NPTH,ComponentDrill
T4C0.650
%
G90
G05
T1
X97.86Y-65.15
X97.86Y-66.25
X98.41Y-64.6
X98.41Y-65.7
X98.41Y-66.8
X98.96Y-65.15
X98.96Y-66.25
X99.51Y-64.6
X99.51Y-65.7
X99.51Y-66.8
X100.06Y-65.15
X100.06Y-66.25
T2
X70.0Y-80.0
X70.8Y-65.6
X70.8Y-70.4
X71.4Y-56.0
X71.992Y-63.085
X72.825Y-66.876
X74.217Y-59.298
X74.875Y-53.408
X77.759Y-68.971
X79.252Y-56.139
X86.279Y-62.15
X86.408Y-63.086
X86.409Y-68.971
X86.409Y-77.8
X91.401Y-84.42
X91.512Y-66.708
X91.961Y-65.256
X92.176Y-80.223
X94.62Y-68.776
X95.059Y-74.857
X96.924Y-81.719
X97.5Y-76.4
X97.942Y-68.971
X98.0Y-75.3
X98.25Y-81.2
X98.75Y-76.4
X99.97Y-83.89
X100.5Y-78.75
X101.839Y-80.852
X106.593Y-72.718
X109.476Y-63.085
X109.476Y-68.971
X111.527Y-66.876
X112.359Y-66.028
X115.243Y-60.142
X121.01Y-63.085
X123.893Y-63.085
X125.0Y-80.0
T4
X68.305Y-65.11
X68.305Y-70.89
T3
X65.025Y-63.68G85X64.225Y-63.68
G05
X65.025Y-72.32G85X64.225Y-72.32
G05
X69.355Y-63.68G85X68.255Y-63.68
G05
X69.355Y-72.32G85X68.255Y-72.32
G05
M30
