%TF.GenerationSoftware,KiCad,Pcbnew,10.0.1*%
%TF.CreationDate,2026-09-06T11:54:30-05:00*%
%TF.ProjectId,SmartPet,536d6172-7450-4657-942e-6b696361645f,rev?*%
%TF.SameCoordinates,Original*%
%TF.FileFunction,Other,Comment*%
%FSLAX46Y46*%
G04 Gerber Fmt 4.6, Leading zero omitted, Abs format (unit mm)*
G04 Created by KiCad (PCBNEW 10.0.1) date 2026-09-06 11:54:30*
%MOMM*%
%LPD*%
G01*
G04 APERTURE LIST*
%ADD10C,0.150000*%
%ADD11C,0.100000*%
G04 APERTURE END LIST*
D10*
X91928571Y-49954819D02*
X91928571Y-48954819D01*
X92499999Y-49954819D02*
X92071428Y-49383390D01*
X92499999Y-48954819D02*
X91928571Y-49526247D01*
X92928571Y-49431009D02*
X93261904Y-49431009D01*
X93404761Y-49954819D02*
X92928571Y-49954819D01*
X92928571Y-49954819D02*
X92928571Y-48954819D01*
X92928571Y-48954819D02*
X93404761Y-48954819D01*
X93833333Y-49431009D02*
X94166666Y-49431009D01*
X94309523Y-49954819D02*
X93833333Y-49954819D01*
X93833333Y-49954819D02*
X93833333Y-48954819D01*
X93833333Y-48954819D02*
X94309523Y-48954819D01*
X94738095Y-49954819D02*
X94738095Y-48954819D01*
X94738095Y-48954819D02*
X95119047Y-48954819D01*
X95119047Y-48954819D02*
X95214285Y-49002438D01*
X95214285Y-49002438D02*
X95261904Y-49050057D01*
X95261904Y-49050057D02*
X95309523Y-49145295D01*
X95309523Y-49145295D02*
X95309523Y-49288152D01*
X95309523Y-49288152D02*
X95261904Y-49383390D01*
X95261904Y-49383390D02*
X95214285Y-49431009D01*
X95214285Y-49431009D02*
X95119047Y-49478628D01*
X95119047Y-49478628D02*
X94738095Y-49478628D01*
X95738095Y-49573866D02*
X96500000Y-49573866D01*
X97166666Y-48954819D02*
X97357142Y-48954819D01*
X97357142Y-48954819D02*
X97452380Y-49002438D01*
X97452380Y-49002438D02*
X97547618Y-49097676D01*
X97547618Y-49097676D02*
X97595237Y-49288152D01*
X97595237Y-49288152D02*
X97595237Y-49621485D01*
X97595237Y-49621485D02*
X97547618Y-49811961D01*
X97547618Y-49811961D02*
X97452380Y-49907200D01*
X97452380Y-49907200D02*
X97357142Y-49954819D01*
X97357142Y-49954819D02*
X97166666Y-49954819D01*
X97166666Y-49954819D02*
X97071428Y-49907200D01*
X97071428Y-49907200D02*
X96976190Y-49811961D01*
X96976190Y-49811961D02*
X96928571Y-49621485D01*
X96928571Y-49621485D02*
X96928571Y-49288152D01*
X96928571Y-49288152D02*
X96976190Y-49097676D01*
X96976190Y-49097676D02*
X97071428Y-49002438D01*
X97071428Y-49002438D02*
X97166666Y-48954819D01*
X98023809Y-48954819D02*
X98023809Y-49764342D01*
X98023809Y-49764342D02*
X98071428Y-49859580D01*
X98071428Y-49859580D02*
X98119047Y-49907200D01*
X98119047Y-49907200D02*
X98214285Y-49954819D01*
X98214285Y-49954819D02*
X98404761Y-49954819D01*
X98404761Y-49954819D02*
X98499999Y-49907200D01*
X98499999Y-49907200D02*
X98547618Y-49859580D01*
X98547618Y-49859580D02*
X98595237Y-49764342D01*
X98595237Y-49764342D02*
X98595237Y-48954819D01*
X98928571Y-48954819D02*
X99499999Y-48954819D01*
X99214285Y-49954819D02*
X99214285Y-48954819D01*
X100500000Y-48954819D02*
X101166666Y-48954819D01*
X101166666Y-48954819D02*
X100500000Y-49954819D01*
X100500000Y-49954819D02*
X101166666Y-49954819D01*
X101738095Y-48954819D02*
X101928571Y-48954819D01*
X101928571Y-48954819D02*
X102023809Y-49002438D01*
X102023809Y-49002438D02*
X102119047Y-49097676D01*
X102119047Y-49097676D02*
X102166666Y-49288152D01*
X102166666Y-49288152D02*
X102166666Y-49621485D01*
X102166666Y-49621485D02*
X102119047Y-49811961D01*
X102119047Y-49811961D02*
X102023809Y-49907200D01*
X102023809Y-49907200D02*
X101928571Y-49954819D01*
X101928571Y-49954819D02*
X101738095Y-49954819D01*
X101738095Y-49954819D02*
X101642857Y-49907200D01*
X101642857Y-49907200D02*
X101547619Y-49811961D01*
X101547619Y-49811961D02*
X101500000Y-49621485D01*
X101500000Y-49621485D02*
X101500000Y-49288152D01*
X101500000Y-49288152D02*
X101547619Y-49097676D01*
X101547619Y-49097676D02*
X101642857Y-49002438D01*
X101642857Y-49002438D02*
X101738095Y-48954819D01*
X102595238Y-49954819D02*
X102595238Y-48954819D01*
X102595238Y-48954819D02*
X103166666Y-49954819D01*
X103166666Y-49954819D02*
X103166666Y-48954819D01*
X103642857Y-49431009D02*
X103976190Y-49431009D01*
X104119047Y-49954819D02*
X103642857Y-49954819D01*
X103642857Y-49954819D02*
X103642857Y-48954819D01*
X103642857Y-48954819D02*
X104119047Y-48954819D01*
X95238095Y-55669104D02*
X95714285Y-55669104D01*
X95142857Y-55954819D02*
X95476190Y-54954819D01*
X95476190Y-54954819D02*
X95809523Y-55954819D01*
X96142857Y-55288152D02*
X96142857Y-55954819D01*
X96142857Y-55383390D02*
X96190476Y-55335771D01*
X96190476Y-55335771D02*
X96285714Y-55288152D01*
X96285714Y-55288152D02*
X96428571Y-55288152D01*
X96428571Y-55288152D02*
X96523809Y-55335771D01*
X96523809Y-55335771D02*
X96571428Y-55431009D01*
X96571428Y-55431009D02*
X96571428Y-55954819D01*
X96904762Y-55288152D02*
X97285714Y-55288152D01*
X97047619Y-54954819D02*
X97047619Y-55811961D01*
X97047619Y-55811961D02*
X97095238Y-55907200D01*
X97095238Y-55907200D02*
X97190476Y-55954819D01*
X97190476Y-55954819D02*
X97285714Y-55954819D01*
X98000000Y-55907200D02*
X97904762Y-55954819D01*
X97904762Y-55954819D02*
X97714286Y-55954819D01*
X97714286Y-55954819D02*
X97619048Y-55907200D01*
X97619048Y-55907200D02*
X97571429Y-55811961D01*
X97571429Y-55811961D02*
X97571429Y-55431009D01*
X97571429Y-55431009D02*
X97619048Y-55335771D01*
X97619048Y-55335771D02*
X97714286Y-55288152D01*
X97714286Y-55288152D02*
X97904762Y-55288152D01*
X97904762Y-55288152D02*
X98000000Y-55335771D01*
X98000000Y-55335771D02*
X98047619Y-55431009D01*
X98047619Y-55431009D02*
X98047619Y-55526247D01*
X98047619Y-55526247D02*
X97571429Y-55621485D01*
X98476191Y-55288152D02*
X98476191Y-55954819D01*
X98476191Y-55383390D02*
X98523810Y-55335771D01*
X98523810Y-55335771D02*
X98619048Y-55288152D01*
X98619048Y-55288152D02*
X98761905Y-55288152D01*
X98761905Y-55288152D02*
X98857143Y-55335771D01*
X98857143Y-55335771D02*
X98904762Y-55431009D01*
X98904762Y-55431009D02*
X98904762Y-55954819D01*
X99380953Y-55288152D02*
X99380953Y-55954819D01*
X99380953Y-55383390D02*
X99428572Y-55335771D01*
X99428572Y-55335771D02*
X99523810Y-55288152D01*
X99523810Y-55288152D02*
X99666667Y-55288152D01*
X99666667Y-55288152D02*
X99761905Y-55335771D01*
X99761905Y-55335771D02*
X99809524Y-55431009D01*
X99809524Y-55431009D02*
X99809524Y-55954819D01*
X100714286Y-55954819D02*
X100714286Y-55431009D01*
X100714286Y-55431009D02*
X100666667Y-55335771D01*
X100666667Y-55335771D02*
X100571429Y-55288152D01*
X100571429Y-55288152D02*
X100380953Y-55288152D01*
X100380953Y-55288152D02*
X100285715Y-55335771D01*
X100714286Y-55907200D02*
X100619048Y-55954819D01*
X100619048Y-55954819D02*
X100380953Y-55954819D01*
X100380953Y-55954819D02*
X100285715Y-55907200D01*
X100285715Y-55907200D02*
X100238096Y-55811961D01*
X100238096Y-55811961D02*
X100238096Y-55716723D01*
X100238096Y-55716723D02*
X100285715Y-55621485D01*
X100285715Y-55621485D02*
X100380953Y-55573866D01*
X100380953Y-55573866D02*
X100619048Y-55573866D01*
X100619048Y-55573866D02*
X100714286Y-55526247D01*
D11*
X105526109Y-50338095D02*
X105526109Y-50576190D01*
X105526109Y-50576190D02*
X105764204Y-50599999D01*
X105764204Y-50599999D02*
X105740395Y-50576190D01*
X105740395Y-50576190D02*
X105716585Y-50528571D01*
X105716585Y-50528571D02*
X105716585Y-50409523D01*
X105716585Y-50409523D02*
X105740395Y-50361904D01*
X105740395Y-50361904D02*
X105764204Y-50338095D01*
X105764204Y-50338095D02*
X105811823Y-50314285D01*
X105811823Y-50314285D02*
X105930871Y-50314285D01*
X105930871Y-50314285D02*
X105978490Y-50338095D01*
X105978490Y-50338095D02*
X106002300Y-50361904D01*
X106002300Y-50361904D02*
X106026109Y-50409523D01*
X106026109Y-50409523D02*
X106026109Y-50528571D01*
X106026109Y-50528571D02*
X106002300Y-50576190D01*
X106002300Y-50576190D02*
X105978490Y-50599999D01*
X106026109Y-49719048D02*
X105692776Y-49719048D01*
X105740395Y-49719048D02*
X105716585Y-49695238D01*
X105716585Y-49695238D02*
X105692776Y-49647619D01*
X105692776Y-49647619D02*
X105692776Y-49576191D01*
X105692776Y-49576191D02*
X105716585Y-49528572D01*
X105716585Y-49528572D02*
X105764204Y-49504762D01*
X105764204Y-49504762D02*
X106026109Y-49504762D01*
X105764204Y-49504762D02*
X105716585Y-49480953D01*
X105716585Y-49480953D02*
X105692776Y-49433334D01*
X105692776Y-49433334D02*
X105692776Y-49361905D01*
X105692776Y-49361905D02*
X105716585Y-49314286D01*
X105716585Y-49314286D02*
X105764204Y-49290476D01*
X105764204Y-49290476D02*
X106026109Y-49290476D01*
X106026109Y-49052381D02*
X105692776Y-49052381D01*
X105740395Y-49052381D02*
X105716585Y-49028571D01*
X105716585Y-49028571D02*
X105692776Y-48980952D01*
X105692776Y-48980952D02*
X105692776Y-48909524D01*
X105692776Y-48909524D02*
X105716585Y-48861905D01*
X105716585Y-48861905D02*
X105764204Y-48838095D01*
X105764204Y-48838095D02*
X106026109Y-48838095D01*
X105764204Y-48838095D02*
X105716585Y-48814286D01*
X105716585Y-48814286D02*
X105692776Y-48766667D01*
X105692776Y-48766667D02*
X105692776Y-48695238D01*
X105692776Y-48695238D02*
X105716585Y-48647619D01*
X105716585Y-48647619D02*
X105764204Y-48623809D01*
X105764204Y-48623809D02*
X106026109Y-48623809D01*
X109061904Y-54026109D02*
X108823809Y-54026109D01*
X108823809Y-54026109D02*
X108800000Y-54264204D01*
X108800000Y-54264204D02*
X108823809Y-54240395D01*
X108823809Y-54240395D02*
X108871428Y-54216585D01*
X108871428Y-54216585D02*
X108990476Y-54216585D01*
X108990476Y-54216585D02*
X109038095Y-54240395D01*
X109038095Y-54240395D02*
X109061904Y-54264204D01*
X109061904Y-54264204D02*
X109085714Y-54311823D01*
X109085714Y-54311823D02*
X109085714Y-54430871D01*
X109085714Y-54430871D02*
X109061904Y-54478490D01*
X109061904Y-54478490D02*
X109038095Y-54502300D01*
X109038095Y-54502300D02*
X108990476Y-54526109D01*
X108990476Y-54526109D02*
X108871428Y-54526109D01*
X108871428Y-54526109D02*
X108823809Y-54502300D01*
X108823809Y-54502300D02*
X108800000Y-54478490D01*
X109680951Y-54526109D02*
X109680951Y-54192776D01*
X109680951Y-54240395D02*
X109704761Y-54216585D01*
X109704761Y-54216585D02*
X109752380Y-54192776D01*
X109752380Y-54192776D02*
X109823808Y-54192776D01*
X109823808Y-54192776D02*
X109871427Y-54216585D01*
X109871427Y-54216585D02*
X109895237Y-54264204D01*
X109895237Y-54264204D02*
X109895237Y-54526109D01*
X109895237Y-54264204D02*
X109919046Y-54216585D01*
X109919046Y-54216585D02*
X109966665Y-54192776D01*
X109966665Y-54192776D02*
X110038094Y-54192776D01*
X110038094Y-54192776D02*
X110085713Y-54216585D01*
X110085713Y-54216585D02*
X110109523Y-54264204D01*
X110109523Y-54264204D02*
X110109523Y-54526109D01*
X110347618Y-54526109D02*
X110347618Y-54192776D01*
X110347618Y-54240395D02*
X110371428Y-54216585D01*
X110371428Y-54216585D02*
X110419047Y-54192776D01*
X110419047Y-54192776D02*
X110490475Y-54192776D01*
X110490475Y-54192776D02*
X110538094Y-54216585D01*
X110538094Y-54216585D02*
X110561904Y-54264204D01*
X110561904Y-54264204D02*
X110561904Y-54526109D01*
X110561904Y-54264204D02*
X110585713Y-54216585D01*
X110585713Y-54216585D02*
X110633332Y-54192776D01*
X110633332Y-54192776D02*
X110704761Y-54192776D01*
X110704761Y-54192776D02*
X110752380Y-54216585D01*
X110752380Y-54216585D02*
X110776190Y-54264204D01*
X110776190Y-54264204D02*
X110776190Y-54526109D01*
%TO.C,U1*%
X84200000Y-54800000D02*
X84400000Y-54600000D01*
X84200000Y-54800000D02*
X84400000Y-55000000D01*
X84200000Y-54800000D02*
X88800000Y-54800000D01*
X88800000Y-54800000D02*
X88600000Y-54600000D01*
X88800000Y-54800000D02*
X88600000Y-55000000D01*
X106300000Y-47600000D02*
X106100000Y-47800000D01*
X106300000Y-47600000D02*
X106500000Y-47800000D01*
X106300000Y-52200000D02*
X106100000Y-52000000D01*
X106300000Y-52200000D02*
X106300000Y-47600000D01*
X106300000Y-52200000D02*
X106500000Y-52000000D01*
X107200000Y-54800000D02*
X107400000Y-54600000D01*
X107200000Y-54800000D02*
X107400000Y-55000000D01*
X107200000Y-54800000D02*
X111800000Y-54800000D01*
X111800000Y-54800000D02*
X111600000Y-54600000D01*
X111800000Y-54800000D02*
X111600000Y-55000000D01*
%TD*%
M02*
