%TF.GenerationSoftware,KiCad,Pcbnew,10.0.1*%
%TF.CreationDate,2026-09-06T11:54:30-05:00*%
%TF.ProjectId,SmartPet,536d6172-7450-4657-942e-6b696361645f,rev?*%
%TF.SameCoordinates,Original*%
%TF.FileFunction,Other,User*%
%FSLAX46Y46*%
G04 Gerber Fmt 4.6, Leading zero omitted, Abs format (unit mm)*
G04 Created by KiCad (PCBNEW 10.0.1) date 2026-09-06 11:54:30*
%MOMM*%
%LPD*%
G01*
G04 APERTURE LIST*
%ADD10C,0.050000*%
G04 APERTURE END LIST*
%TO.C,U3*%
D10*
X75950000Y-63500000D02*
X76950000Y-63500000D01*
X75950000Y-66500000D02*
X75950000Y-63500000D01*
X76950000Y-63300000D02*
X79050000Y-63300000D01*
X76950000Y-63500000D02*
X76950000Y-63300000D01*
X76950000Y-66500000D02*
X75950000Y-66500000D01*
X76950000Y-66700000D02*
X76950000Y-66500000D01*
X79050000Y-63300000D02*
X79050000Y-63500000D01*
X79050000Y-63500000D02*
X80050000Y-63500000D01*
X79050000Y-64610000D02*
X79050000Y-65390000D01*
X79050000Y-65390000D02*
X80050000Y-65390000D01*
X79050000Y-66500000D02*
X79050000Y-66700000D01*
X79050000Y-66700000D02*
X76950000Y-66700000D01*
X80050000Y-63500000D02*
X80050000Y-64610000D01*
X80050000Y-64610000D02*
X79050000Y-64610000D01*
X80050000Y-65390000D02*
X80050000Y-66500000D01*
X80050000Y-66500000D02*
X79050000Y-66500000D01*
%TO.C,C5*%
X82020000Y-74270000D02*
X84980000Y-74270000D01*
X84980000Y-75730000D01*
X82020000Y-75730000D01*
X82020000Y-74270000D01*
%TO.C,R9*%
X100270000Y-82020000D02*
X101730000Y-82020000D01*
X101730000Y-84980000D01*
X100270000Y-84980000D01*
X100270000Y-82020000D01*
%TO.C,U4*%
X96250000Y-76750000D02*
X99750000Y-76750000D01*
X96250000Y-80250000D02*
X96250000Y-76750000D01*
X99750000Y-76750000D02*
X99750000Y-80250000D01*
X99750000Y-80250000D02*
X96250000Y-80250000D01*
%TO.C,J1*%
X75100000Y-80470000D02*
X75500000Y-80470000D01*
X75100000Y-83280000D02*
X75100000Y-80470000D01*
X75500000Y-77820000D02*
X76700000Y-77820000D01*
X75500000Y-80470000D02*
X75500000Y-77820000D01*
X76700000Y-76720000D02*
X79300000Y-76720000D01*
X76700000Y-77820000D02*
X76700000Y-76720000D01*
X77310000Y-83080000D02*
X77310000Y-83280000D01*
X77310000Y-83280000D02*
X75100000Y-83280000D01*
X78690000Y-83080000D02*
X77310000Y-83080000D01*
X78690000Y-83280000D02*
X78690000Y-83080000D01*
X79300000Y-76720000D02*
X79300000Y-77820000D01*
X79300000Y-77820000D02*
X80500000Y-77820000D01*
X80500000Y-77820000D02*
X80500000Y-80470000D01*
X80500000Y-80470000D02*
X80900000Y-80470000D01*
X80900000Y-80470000D02*
X80900000Y-83280000D01*
X80900000Y-83280000D02*
X78690000Y-83280000D01*
%TO.C,R3*%
X73020000Y-59770000D02*
X75980000Y-59770000D01*
X75980000Y-61230000D01*
X73020000Y-61230000D01*
X73020000Y-59770000D01*
%TO.C,R4*%
X74020000Y-71270000D02*
X76980000Y-71270000D01*
X76980000Y-72730000D01*
X74020000Y-72730000D01*
X74020000Y-71270000D01*
%TO.C,C6*%
X104770000Y-82020000D02*
X106230000Y-82020000D01*
X106230000Y-84980000D01*
X104770000Y-84980000D01*
X104770000Y-82020000D01*
%TO.C,SW2*%
X107250000Y-78000000D02*
X115750000Y-78000000D01*
X107250000Y-84000000D02*
X107250000Y-78000000D01*
X115750000Y-78000000D02*
X115750000Y-84000000D01*
X115750000Y-84000000D02*
X107250000Y-84000000D01*
%TO.C,R1*%
X80520000Y-50770000D02*
X83480000Y-50770000D01*
X83480000Y-52230000D01*
X80520000Y-52230000D01*
X80520000Y-50770000D01*
%TO.C,R8*%
X96270000Y-82020000D02*
X97730000Y-82020000D01*
X97730000Y-84980000D01*
X96270000Y-84980000D01*
X96270000Y-82020000D01*
%TO.C,R7*%
X94270000Y-82020000D02*
X95730000Y-82020000D01*
X95730000Y-84980000D01*
X94270000Y-84980000D01*
X94270000Y-82020000D01*
%TO.C,R2*%
X75020000Y-49270000D02*
X77980000Y-49270000D01*
X77980000Y-50730000D01*
X75020000Y-50730000D01*
X75020000Y-49270000D01*
%TO.C,R5*%
X85770000Y-73520000D02*
X87230000Y-73520000D01*
X87230000Y-76480000D01*
X85770000Y-76480000D01*
X85770000Y-73520000D01*
%TO.C,C7*%
X91770000Y-81020000D02*
X93230000Y-81020000D01*
X93230000Y-83980000D01*
X91770000Y-83980000D01*
X91770000Y-81020000D01*
%TO.C,C3*%
X80520000Y-64270000D02*
X83480000Y-64270000D01*
X83480000Y-65730000D01*
X80520000Y-65730000D01*
X80520000Y-64270000D01*
%TO.C,TH1*%
X102770000Y-82020000D02*
X104230000Y-82020000D01*
X104230000Y-84980000D01*
X102770000Y-84980000D01*
X102770000Y-82020000D01*
%TO.C,C4*%
X80020000Y-59770000D02*
X82980000Y-59770000D01*
X82980000Y-61230000D01*
X80020000Y-61230000D01*
X80020000Y-59770000D01*
%TO.C,J2*%
X61520000Y-62680000D02*
X70460000Y-62680000D01*
X70460000Y-73320000D01*
X61520000Y-73320000D01*
X61520000Y-62680000D01*
%TO.C,U2*%
X75950000Y-54500000D02*
X76950000Y-54500000D01*
X75950000Y-57500000D02*
X75950000Y-54500000D01*
X76950000Y-54300000D02*
X79050000Y-54300000D01*
X76950000Y-54500000D02*
X76950000Y-54300000D01*
X76950000Y-57500000D02*
X75950000Y-57500000D01*
X76950000Y-57700000D02*
X76950000Y-57500000D01*
X79050000Y-54300000D02*
X79050000Y-54500000D01*
X79050000Y-54500000D02*
X80050000Y-54500000D01*
X79050000Y-55610000D02*
X79050000Y-56390000D01*
X79050000Y-56390000D02*
X80050000Y-56390000D01*
X79050000Y-57500000D02*
X79050000Y-57700000D01*
X79050000Y-57700000D02*
X76950000Y-57700000D01*
X80050000Y-54500000D02*
X80050000Y-55610000D01*
X80050000Y-55610000D02*
X79050000Y-55610000D01*
X80050000Y-56390000D02*
X80050000Y-57500000D01*
X80050000Y-57500000D02*
X79050000Y-57500000D01*
%TO.C,U5*%
X114500000Y-59500000D02*
X114500000Y-75500000D01*
X114500000Y-75500000D02*
X130500000Y-75500000D01*
X130500000Y-59500000D02*
X114500000Y-59500000D01*
X130500000Y-75500000D02*
X130500000Y-59500000D01*
%TO.C,SW1*%
X82250000Y-78000000D02*
X90750000Y-78000000D01*
X82250000Y-84000000D02*
X82250000Y-78000000D01*
X90750000Y-78000000D02*
X90750000Y-84000000D01*
X90750000Y-84000000D02*
X82250000Y-84000000D01*
%TO.C,C2*%
X80520000Y-69770000D02*
X83480000Y-69770000D01*
X83480000Y-71230000D01*
X80520000Y-71230000D01*
X80520000Y-69770000D01*
%TO.C,C1*%
X71520000Y-55270000D02*
X74480000Y-55270000D01*
X74480000Y-56730000D01*
X71520000Y-56730000D01*
X71520000Y-55270000D01*
%TO.C,D1*%
X71020000Y-49270000D02*
X73980000Y-49270000D01*
X73980000Y-50730000D01*
X71020000Y-50730000D01*
X71020000Y-49270000D01*
%TO.C,C8*%
X118520000Y-77770000D02*
X121480000Y-77770000D01*
X121480000Y-79230000D01*
X118520000Y-79230000D01*
X118520000Y-77770000D01*
%TO.C,R6*%
X107770000Y-73520000D02*
X109230000Y-73520000D01*
X109230000Y-76480000D01*
X107770000Y-76480000D01*
X107770000Y-73520000D01*
%TO.C,D2*%
X114270000Y-50520000D02*
X115730000Y-50520000D01*
X115730000Y-53480000D01*
X114270000Y-53480000D01*
X114270000Y-50520000D01*
%TO.C,R11*%
X114270000Y-54520000D02*
X115730000Y-54520000D01*
X115730000Y-57480000D01*
X114270000Y-57480000D01*
X114270000Y-54520000D01*
%TO.C,U1*%
X83750000Y-47150000D02*
X83750000Y-58650000D01*
X83750000Y-47150000D02*
X112250000Y-47150000D01*
X83750000Y-58650000D02*
X88250000Y-58650000D01*
X88250000Y-72650000D02*
X88250000Y-58650000D01*
X88250000Y-72650000D02*
X107750000Y-72650000D01*
X107750000Y-58650000D02*
X107750000Y-72650000D01*
X107750000Y-58650000D02*
X112250000Y-58650000D01*
X112250000Y-47150000D02*
X112250000Y-58650000D01*
%TD*%
M02*
